<svg xmlns="http://www.w3.org/2000/svg" width="282.34" height="179.38" viewBox="0 0 282.34 179.38"><path d="M98.58,70.16a.81.81,0,1,0,.8-.8.82.82,0,0,0-.8.8Z" style="fill:#eaeaea"/><path d="M141.31,3.49c-.06.18-.13.43-.19.62h0a3.48,3.48,0,0,1-.49.93,4.2,4.2,0,0,1-.5.56,1.7,1.7,0,0,1-.62.37,7.45,7.45,0,0,1-1.12.31,19.74,19.74,0,0,1-2.66.12h-1.06a30.31,30.31,0,0,0-3.28.31,44.72,44.72,0,0,1-7.57.38h.12a10.32,10.32,0,0,1-2.66-.5A3.27,3.27,0,0,1,120.22,6a2.2,2.2,0,0,1-.56-.49L119.29,5h0a3.67,3.67,0,0,0,2.11,2.17,12.34,12.34,0,0,0,4,1A32.4,32.4,0,0,0,133.49,8a29.28,29.28,0,0,0,5.21-.81A4,4,0,0,0,140.5,6a3.84,3.84,0,0,0,.81-2.48Zm-2.79,2.79h0Z" style="fill:#eaeaea"/><path d="M163.05,0h-.37c0,.31,0,.62,0,1V.88a5.92,5.92,0,0,1-.31,1.55,2.4,2.4,0,0,1-.31.62c-.12.13-.18.25-.31.38a1.21,1.21,0,0,1-.31.18,4.58,4.58,0,0,1-.93.25,18.84,18.84,0,0,1-2.6.19,38.46,38.46,0,0,0-4.65.43c-3.41.56-6.83,1.24-10.3,1H143a10.56,10.56,0,0,1-1.36-.18,19.36,19.36,0,0,0,6.57,1.42,50.4,50.4,0,0,0,6.95-.12,26.49,26.49,0,0,0,5-.62,5.07,5.07,0,0,0,1.61-.68,4.27,4.27,0,0,0,1.18-1.18,3.31,3.31,0,0,0,.5-2.17A6.94,6.94,0,0,0,163.05,0Z" style="fill:#eaeaea"/><path d="M160.47,3.86h0Z" style="fill:#eaeaea"/><path d="M174.29,0a.9.9,0,0,1-.17.26,9.22,9.22,0,0,1-.68.75,10.84,10.84,0,0,1-1.8,1.05,11.9,11.9,0,0,1-3.35.93c-1.92.31-3.85.5-5.77.93,1.86-.25,3.66-.18,5.52-.31a12,12,0,0,0,5.33-1.3A5.34,5.34,0,0,0,175,.82a3.8,3.8,0,0,0,.37-.82Z" style="fill:#eaeaea"/><path d="M114.45,5.35a16.21,16.21,0,0,1-4.21-.93A11.75,11.75,0,0,1,107.44,3a5.14,5.14,0,0,1-1.17-1.11,9.44,9.44,0,0,1-.81-1.24c-.08-.21-.15-.42-.22-.64h-1.32c0,.13,0,.26,0,.39a6,6,0,0,0,1.3,3.47,7.74,7.74,0,0,0,3.41,2.36,12.06,12.06,0,0,0,3.91.56,16.1,16.1,0,0,0,7-1.74c-.19.06-.31.06-.5.12A19,19,0,0,1,114.45,5.35Z" style="fill:#eaeaea"/><path d="M110.3,4.36c.06,0,.12.06.18.06s-.12-.06-.18-.06Z" style="fill:#eaeaea"/><path d="M142.93,13.2a9.77,9.77,0,0,1-1.17-.25,7.37,7.37,0,0,1-1.55-.81,9.4,9.4,0,0,1-1-.88h-1.46a6.45,6.45,0,0,0,3.31,2.12,4.32,4.32,0,0,0,3.79-.56,3.95,3.95,0,0,1-1.93.38Z" style="fill:#eaeaea"/><path d="M102.05,1.94Z" style="fill:#eaeaea"/><path d="M179.2,0h-2.45c-2.26.81-4.55,1.55-6.79,2.37-2,.75-4,1.68-6,2.55-2.17,1-4.41,1.86-6.64,2.72-1.67.62-3.35,1.24-5,1.74l-2.61.74c-.74.19-1.49.38-2.29.56a35.66,35.66,0,0,1-8.19.25,116.75,116.75,0,0,1-13.09-2.17,100,100,0,0,0-14.26-2h-.56a84.13,84.13,0,0,1,14.08,3.9,72.51,72.51,0,0,0,13.09,3.54,29.22,29.22,0,0,0,7,.18,29.37,29.37,0,0,0,6.89-1.73,103.22,103.22,0,0,0,13.21-6.08c1-.56,1.92-1,2.91-1.61s1.93-1,2.92-1.43c-.06,0-.12.06-.19.06C173.83,2.39,176.57,1.29,179.2,0Z" style="fill:#eaeaea"/><path d="M162.15,44.86a20.3,20.3,0,0,0-6.27,8,25.15,25.15,0,0,0-2,10.17h0c1.18-3.1,2.66-6.08,4.09-9.18a88,88,0,0,1,4.22-9Z" style="fill:#eaeaea"/><path d="M275.47,0V0c-.06.49-.12.93-.18,1.42l-.06.44V2L275,3.24c-.12,1.12-.37,2.23-.5,3.1l-.06.31a5,5,0,0,1-.12,1c.06-1.55.06-3.22,0-5.21V1.57c.17-.54.32-1,.47-1.57h-57l.09.57.24,1.49-.06.56.13-.25v.37l.12.75.06.62c-.06,1-.06,2.11-.06,3.16-.06-.31-.12-.68-.19-1A8.42,8.42,0,0,0,218,8.08a15,15,0,0,0,.43,2.79v.87l-.37,1.18-.25.8v-.25c-.49-3.13-1-6.39-1.17-9.71.12.36.18.67.31,1l.06-.19a2,2,0,0,0-.13-.68V3.74a8.08,8.08,0,0,0-.31-1.37c0-.06-.06-.12-.18-.12a.2.2,0,0,0-.19.18,54,54,0,0,0,.5,12.41c-.25-1.12-.56-2.23-.93-3.35-.13.68-.19,1.3-.25,1.74v.06a70.1,70.1,0,0,0-.37,8.49l-.06.25a7.73,7.73,0,0,0-.07-1.3c-.18-1.8-.43-3.66-.62-4.9-.06-.31-.06-.62-.12-.87l-.06-.37V14.4a2.68,2.68,0,0,0-.31.87c-.31,1.06-.56,2.3-.87,3.66a86.54,86.54,0,0,0-1.3,9.12c-.07.5-.07,1.05-.13,1.55-.25,1.24-.43,2.48-.56,3.72-.68,1.3-1.36,2.73-2.1,4.16l.06-.38V34.69c-.19.37-.31.8-.5,1.17-.5,1.43-1,3.11-1.49,4.9L203.46,47l.06-.25a14.63,14.63,0,0,0-.06-1.49l.12-.06.37-.31h-.12a4.2,4.2,0,0,0-.44.31v-.56a24.56,24.56,0,0,0-.49-3.41l-.19.62-.12.68-.07.25v.12l-.06.44-.06.37-.12.68c-.13.75-.25,1.49-.38,2.23a34.32,34.32,0,0,0-7.19,10.55l-.37.49.06-.18V56.27l-.12.19c-.07.18-.13.37-.19.55v.13l-.06.25c-.13.37-.25.8-.37,1.24-2.18,2.73-4.35,5.58-5.77,7.5l-.19.25-.12.19-.37.49a1.18,1.18,0,0,0,.12-.49c.06-.69.12-1.43.19-2.49,0-.68.06-1.36.06-2l-.31.68c-.19.56-.37,1.05-.56,1.61l-.13.31-.12.25-.12.31-.07.19-.06.24-.12.38c-.56,1.55-1.06,3.16-1.61,4.71l-.56.75-1.18,1.61-.43-.5c-.38-.37-.75-.8-1.12-1.18l.19-.18c.74-1.06,2.35-3.23,4-5.15a2.45,2.45,0,0,0-.62.43c-.68.56-1.36,1.24-2.17,2-1.36,1.36-2.66,2.85-3.9,4.34a17.67,17.67,0,0,0-1.93-.43,8.89,8.89,0,0,0-1.8-.19H175l.06-.06.06-.12c.62-.69,1.12-1.31,1.55-1.87a2.66,2.66,0,0,0-.49.31c-.63.44-1.25,1-2,1.68h-.5a15.63,15.63,0,0,0-1.67.12,7.73,7.73,0,0,0-2.48.7h-.07l0,0-.42.22-.18-.06-.56-.18.12-.07a16.47,16.47,0,0,0,1.43-1.86,3.2,3.2,0,0,0-.44.19c-.43.31-.8.62-1.24.93l-.31.25-.55.43-.19.13c-.43.31-.87.68-1.3,1l-.06-.19A31.07,31.07,0,0,0,163.64,71c-.07.06,0,.18,0,.25a2.28,2.28,0,0,0,.24.68L164,72l-.22.1.09.34a7.81,7.81,0,0,1,.75,1.61h-.06l-.44-.12c-.31-.31-.62-.69-.93-1l-.33-.33,0,0-.44-.49-.06-.06a56.38,56.38,0,0,1-3.72-4.28,5.66,5.66,0,0,0,.19,1.24,12.48,12.48,0,0,0,2,4.34l-.25-.13-.43-.12-.19-.06c-.43-.13-.93-.25-1.36-.37-.5-.69-1.12-1.43-1.8-2.24a1,1,0,0,0,.06.44c.19.49.37,1,.44,1.24l-.31-.25-.44-.25L156,71.4l-.75-.37-.18-.43-.25-.44-.06.19v.25l-.13-.25-.12-.19-.25-.25a1.42,1.42,0,0,1-.25-.37,5.09,5.09,0,0,0-.49-.62l-.07-.12a.47.47,0,0,0-.06.25,9.5,9.5,0,0,0,.25,1.11l-.12-.12c-.19-.13-.31-.19-.5-.31v-.44H153a.55.55,0,0,0-.13.25v-.06l-.12-.12c-.12.12,0,.24.06.37a1.22,1.22,0,0,0-.06.49l-.37-.24a28.14,28.14,0,0,1-2.61-1.74c-.12-.12-.31-.25-.43-.37a8.51,8.51,0,0,1-1.68-2l.31-.93.19-.49a1.94,1.94,0,0,0-.5.49c-.68.81-1.36,1.74-2,2.67v-.06l-.06-.13a2.88,2.88,0,0,1-.13-.31,5.35,5.35,0,0,1-.43-1.67v-.31a1.59,1.59,0,0,0-.25.68,5.26,5.26,0,0,0,.06,2.61l-.18-.13c-.38-.12-.75-.25-1.06-.37a11.25,11.25,0,0,0,.44-1.05l.06-.07.06-.06-.12-.06.06-.19c.06-.18.37-1.18.93-3.1l-.25.25a9.48,9.48,0,0,0-1,1.36,2,2,0,0,0,.18-.55,11.45,11.45,0,0,0,.25-2.61l.06.19.19.18a5.37,5.37,0,0,0,.25.87l.12-.18c.13-.44.19-.75.31-1.06a15.4,15.4,0,0,1,1.37-2.54l.12-.19c-.06.13-.06.31-.12.44a8.8,8.8,0,0,0,0,1.92l.12-.06.06-.06.06-.13a27.83,27.83,0,0,1,2.3-4.77c.25-.44.43-.81.68-1.24.44-.56.81-1.06,1.24-1.62,1.06-1.42,2.23-3,3.54-5l.12-.12a12.7,12.7,0,0,1,1.61-1.12,1.86,1.86,0,0,0,.56-.25,7.09,7.09,0,0,0-.56.62,18.47,18.47,0,0,0-2.1,3.41A19.59,19.59,0,0,0,152.35,57l.31-.37.74-1.3.19-.31.06-.06c.5-.87,1.12-2,1.68-3.1a37.71,37.71,0,0,0,2-4.84h.19l.18-.06c.19,0,.37-.07.62-.07-.06-.06-.12-.12-.18-.12l-.69-.19.07-.12.06-.19h-.13l-.12.07-.12.18H157a6.34,6.34,0,0,0-2.17-.37,8.45,8.45,0,0,0-5.21,1.92l.12-.12.07-.13.12-.18.56-.93c-.06,0-.13.06-.19.06a4.58,4.58,0,0,0-.93.68l.06-.25a10.15,10.15,0,0,0,.07-1.55h.06l.12-.06a76.1,76.1,0,0,0,10.11-2,70.06,70.06,0,0,0,18.86-8.07,67.58,67.58,0,0,0,8.87-6.57,63.56,63.56,0,0,0,7.5-7.75A50.09,50.09,0,0,0,199.36,15a47.68,47.68,0,0,0,3.29-6.45c1-2.54,1.86-5.21,2.67-7.81V.45l.06-.25V.14l0-.14h-2.15l-.19.45L203,.51,203,.7l-.13.12c-.68,1.61-1.55,3.54-2.41,5.4a57,57,0,0,1-4.28,7.25,73.54,73.54,0,0,1-12.47,13.46,65.56,65.56,0,0,1-13.46,8.44,74.65,74.65,0,0,1-17.3,5.39,68.46,68.46,0,0,1-12.28,1.06c-1.8,0-3.54-.06-5.15-.19a55,55,0,0,1-13.89-3,26.51,26.51,0,0,1-4-1.74A39,39,0,0,1,114,34.75,51.85,51.85,0,0,1,105,26.06l-.31-.31-.44-.49-.12-.13-.69-.86c-1.67-2.17-3.34-4.53-4.46-6.08-.93-1.3-1.86-2.67-2.79-4a50,50,0,0,0-3.6-4.72c-.87-1-1.74-2.17-2.36-3-.43-.5-.8-1.06-1.17-1.55l-.19-.19-.06-.12-.13-.13c-.31-.43-.55-.81-.8-1.18l-.62-.8-.07-.07-.06-.06-.06-.06L87,2.19c-.5-.62-1-1.37-1.49-2L85.4,0h-.35c.43.8.87,1.59,1.37,2.37s.87,1.49,1.3,2.3l.19.31c.25.43.43.8.68,1.24C89,7,89.46,7.71,90,8.45c.31.56.69,1.05,1,1.61.24.38.43.81.68,1.18l.06.13.25.49.06.06.06.13c.31.56.62,1.18.93,1.8l.38.93.06.12c.12.37.31.75.43,1.06.31.74.62,1.48,1,2.17.81,1.79,1.49,3.22,2.24,4.52a58.56,58.56,0,0,0,5.21,8.25A38.6,38.6,0,0,0,109.37,38a30.35,30.35,0,0,0,4.4,2.85,30.46,30.46,0,0,0,4.9,2A64.36,64.36,0,0,0,139,46.35h.75c.59,0,1.29,0,2.05,0a.38.38,0,0,1,.06-.21c1.67,0,3.47-.19,5.45-.37a4.37,4.37,0,0,0-1,.31,8.72,8.72,0,0,0-3.85,2.85,6.89,6.89,0,0,1-.48-1.3,5.9,5.9,0,0,0,.42,2.66,9.74,9.74,0,0,0-.74,2,6,6,0,0,0-.87-1.12A28.19,28.19,0,0,0,135.23,47l-.74-.44v-.06l.06.06h.37a1.07,1.07,0,0,0,.43-.06.19.19,0,0,0-.12-.06h-.12a.93.93,0,0,1-.38-.12l-.12-.07h-.12a.21.21,0,0,0-.19.07c-.06.06-.12.18-.06.24,0,.25.31.5.49.69s.13.06.13.12c.87.87,1.73,1.61,2.54,2.3a.64.64,0,0,0-.43-.19l-.13-.06a10.62,10.62,0,0,0-5.58-2.24l.06.13c.06.06.13.06.19.12l.06.06.06.07.07.06.31.18c.12.07.24.19.43.31l-.37-.18a11.22,11.22,0,0,0-2.11-.37l.31.37.18.18.07.07c.43.37.86.74,1.3,1.18h-.12a3,3,0,0,0-1,.37l.06.06c.13,0,.19.06.31.06h.13a2.4,2.4,0,0,1,.28,0l-.22-.28c.13.07.19.13.25.13l.19.06.14.14.23,0c0,.08.06.16.09.25l.47.43c-.07.12,0,.43,0,.68l-.13-.16c.25.64.53,1.34.87,2.08.19.37.31.75.5,1.12.12.74.31,1.61.55,2.6a23.83,23.83,0,0,0,.69,2.48l.06.25.06.19v.19l.06.12a36.52,36.52,0,0,1,1,4v.25a8.28,8.28,0,0,0,.25-1.61,22,22,0,0,0-.43-6,34.93,34.93,0,0,0-1.74-5.21l.06.12.93.81.07.12.06.19.06.5.25,1.11.12.75c.13.68.25,1.36.44,2.11l.06.31c.18.93.37,1.92.56,2.85a26.37,26.37,0,0,1,.49,3.66,5.92,5.92,0,0,0,.38-1.43,14.24,14.24,0,0,0,.18-4.59l.13.31c.18.37.43.75.62,1.12l.31.62c-.07.62-.19,1.24-.25,1.92l-.06.37c-.13,1-.25,2.49-.5,3.85a4.32,4.32,0,0,0,.5-.93,28.42,28.42,0,0,0,1.24-3.6V62l.12.24.12.19.31.62c.31.74.62,1.36.81,2a.61.61,0,0,0,.06-.32,7.2,7.2,0,0,0,0-1.61l.25.62c.37.75.68,1.49,1.06,2.24l-.38.37a13.42,13.42,0,0,0-.87,1.05c-.93-.31-1.92-.56-2.91-.87a2.24,2.24,0,0,0,.37.38,21.12,21.12,0,0,0,1.86,1.36h-.06c-.37.43-.74.87-1.12,1.24l-.06.06c-.8.56-1.55,1.18-2.23,1.74-1.06.43-2.23.93-3.54,1.61a3.33,3.33,0,0,0,.31-.74,33.61,33.61,0,0,0,1.43-5.34,3.4,3.4,0,0,0-.62.69c-.62.8-1.24,1.79-2,3l-5,4.28-.62.56-.31.25a6.48,6.48,0,0,1-1,.81,12.27,12.27,0,0,0,.56-1.31c.68-1.92,1.3-3.9,1.73-5.33V69.6l.44-1.36A9.47,9.47,0,0,0,127.48,70a47.55,47.55,0,0,0-4,7.5c-.44.13-.93.25-1.43.44a4.39,4.39,0,0,0,.19-.93c.37-2.42.68-5.09.93-8.56a6.44,6.44,0,0,0-.56,1.42C122,71.59,121.52,73.26,121,75a1.75,1.75,0,0,0,0-.56c-.13.06-.13.19-.19.31a9,9,0,0,0-.25,1.12l-.06.18c-.18.87-.43,1.74-.62,2.49l-.87.24-.43.13c-.25-.19-.56-.31-.87-.5a27.07,27.07,0,0,0,.5-4.09l-.31.56c-.25.62-.5,1.24-.69,1.86l-.18.49v-.37c-.13-.68-.19-1.36-.31-2v-.13l-.06-.25a2.4,2.4,0,0,0-.13.69c-.06.86-.06,1.73-.06,2.73a1.58,1.58,0,0,0-.37-.19,18,18,0,0,0-2.92-.87A33,33,0,0,0,112,72.77c-.06.25-.06.49-.12.68-.06,1-.06,2.17-.06,3.29a3.18,3.18,0,0,0-.81-.06h-.74l.06.12.06.06.12.06c.5.31.93.56,1.37.87,0,.87.06,1.86.12,2.92l-.12-.07h-.19a23.69,23.69,0,0,0-2.85-2.48c-.25-.18-.56-.37-.87-.55-.25-.81-.62-1.74-1.12-3a.78.78,0,0,0-.06.37c0,.62,0,1.3.06,2.11-.06-.13-.18-.19-.37-.25-.87-.43-1.8-.87-2.91-1.3-.31-.75-.62-1.49-.93-2.17a.68.68,0,0,0-.07.37c.07.56.13,1.11.19,1.61l-.06-.06c-.44-.19-.87-.31-1.24-.44l.18.38A16.07,16.07,0,0,0,103,76.74c0,.12.06.25.06.37v.12l.06.19.06.19-.18-.19c-.5-.43-1.06-.81-1.61-1.24s-1.12-1-1.68-1.43c-.74-.8-1.43-1.55-2.11-2.42l-.06-.12c-.06-.19-.12-.37-.19-.56l.07.06a.8.8,0,0,0,.43.07h.31c.06,0,.13,0,.13-.07v-.12a4.14,4.14,0,0,0-.63-.75l-.18-.18v.18l.12.19.06.06a1.69,1.69,0,0,1,.31.44c-.55-.19-1-.44-1.61-.69l-.18-.18-.31-.44c-.81-1-1.49-2-2.11-2.91a3.69,3.69,0,0,0,.74.74c.81.75,1.68,1.49,2.61,2.3-.19-.31-.44-.68-.62-.93l-.13-.13c-.43-.62-.93-1.24-1.49-2a71.67,71.67,0,0,0-4.46-6.39c-.19-.56-.37-1.18-.56-1.8.12.19.31.25.5.37.86.56,1.73,1.12,2.48,1.56l.56.31-.5-.56c-.31-.25-.56-.5-.87-.75l-.25-.18c-.8-.69-1.55-1.37-2.35-2-.25-.74-.5-1.55-.75-2.29l.25.25c.68.49,1.43,1,2.23,1.55s1.55,1,2.3,1.42l-.62-.56c-.44-.37-.93-.8-1.43-1.17C90.2,56,89.09,55,88,54l-.18-.55.24.31.62.62.25.24.19.19c.31.37.68.75,1,1.06a7.72,7.72,0,0,0-1-1.49c-.44-.56-.87-1.12-1.24-1.62l-.19-.18-.06-.06L87,51.62l-.38-.5-.37-.49-.62-.81-.74-3-.13-.37-.12-.5.06.13.19.25.12.12c.93,1.12,2.24,2.61,3.41,4.16a4.75,4.75,0,0,1,.44.62,27,27,0,0,0-1.49-2.61c-.87-1.43-1.92-3-3.29-4.9l.25.31c.5.56,1,1.18,1.55,1.74l.12.12.19.25c.43.43.81.93,1.24,1.36a5,5,0,0,0-.62-1c-.31-.49-.62-.87-.93-1.3L85.74,45l-.19-.24-.31-.44L85,44c-.43-.62-.87-1.18-1.3-1.8l-.06-.12-.87-3.35a.33.33,0,0,0,.25.18c.12,0,.18-.06.31-.12l.18.25a.25.25,0,0,0,.19.06c.06,0,.19-.06.19-.12a.12.12,0,0,0,0-.19c-.19-.37-.38-.68-.56-1-.25-.62-.5-1.24-.75-1.74l-.93-1.67c-.25-.87-.49-1.8-.74-2.67l.31.43c.74.81,1.55,1.62,2.29,2.36l.75.74.93.93-1.55-2.1-1.3-1.74-.62-.87.18.19a22.94,22.94,0,0,0,2.3,1.92.7.7,0,0,0-.25-.31l-.19-.12-.43-.44a29.68,29.68,0,0,1-4.41-6.08l-.31-.49c-.49-.87-1-1.74-1.48-2.79l.18.31c.37.43.75.8,1.06,1.24s.55.62.86.93c-.12-.25-.31-.5-.43-.75L78.73,25l-.19-.25-.12-.25c-.19-.25-.37-.56-.56-.8-.81-1.24-1.61-2.55-2.48-4l-.19-.37-.06-.06-.06-.12v-.13c-.13-.74-.19-1.49-.31-2.29l-.13.31a7.78,7.78,0,0,0-.12,1.24c-.06-.19-.19-.44-.25-.62l-.12-.25c-.68-1.24-1.3-2.48-1.92-3.78-.44-2.17-.75-4.22-1.06-6.21l.13.31c.24.38.55.81.93,1.31V8.76l-.07-.12a44.77,44.77,0,0,1-2.31-4.81l.08.09c.37.75.87,1.49,1.37,2.3A3.69,3.69,0,0,0,71,5.41L70.79,5c-.31-.75-.62-1.43-.87-2.17l.06.06a4,4,0,0,0,1.68.56.81.81,0,0,0-.31-.19l-.13-.06c-.24-.13-.43-.19-.62-.31a5.34,5.34,0,0,1-.87-.68l-.06-.07C69.42,1.42,69.18.71,69,0H43.75a39.83,39.83,0,0,1-.69,4c.24-.61.46-1.19.63-1.74a1.19,1.19,0,0,0-.07.49l-.18,2.42v.07c-.07,1.17-.19,2.29-.31,3.41A2.82,2.82,0,0,0,43.37,8c.07-.25.13-.56.19-.81a1.08,1.08,0,0,0,0,.62A28.2,28.2,0,0,0,43.93,12a2.48,2.48,0,0,0,.13-.93v-.13l.12-1.55V8.76c.06-.62.06-1.24.13-1.86a2.36,2.36,0,0,0,.06.68A20.59,20.59,0,0,0,45,10.81,33.06,33.06,0,0,0,46.48,16l-.07-.69-.12-.62a.63.63,0,0,0,.12.31,5.65,5.65,0,0,0-.12-.93l-.12-.56a18,18,0,0,1-.25-1.92l.06-.93V7.71L46,7.15l.13.62.18.62.06.56a37.42,37.42,0,0,1,.38,4.83,14.73,14.73,0,0,1-.13,1.74A3.5,3.5,0,0,0,47,14.09a16.94,16.94,0,0,0,.25-1.86v.13c.37,2,.68,3.91,1.06,5.89l.12.62a.67.67,0,0,0-.12-.31,13.93,13.93,0,0,0-1.06-1.49,18.06,18.06,0,0,0-6-5.33l.25.12a5.6,5.6,0,0,0,1,.13l-.5-.25L42,11.68c-.31-.13-.62-.25-1-.44-.81-.37-1.55-.74-1.93-.93l-.86-.62a4.22,4.22,0,0,0,.49.19l2,.37v0A24.41,24.41,0,0,1,37.36,9a7.28,7.28,0,0,1-.81-.62l-.18-.13a1.28,1.28,0,0,0,.49.13l-.37-.25L36.06,8l-.25-.12c-.56-.37-1.12-.81-1.68-1.18a12.79,12.79,0,0,0-1.55-1l-.12-.12-.25-.19A12.19,12.19,0,0,0,37.3,7.4a1,1,0,0,0-.44-.25c-.18-.06-.43-.19-.62-.25A10.22,10.22,0,0,1,34.44,6a6.62,6.62,0,0,0-.68-.43L32.34,3.92l-.75-.87a3,3,0,0,0,.81.5,28,28,0,0,0,3.84,1.74l-.12-.19L35.87,5l-.06-.07-.19-.24A24.17,24.17,0,0,0,31.4,0H29.27l0,0,.55.37.5.37c1.61,1.3,3.41,2.54,5,4-2-1.36-4-2.85-5.83-4.34L29.3.33,28.92,0H0L.15.45A9.59,9.59,0,0,0,.27,1.69C.52,3.74.83,5.85,1.14,8c.18,1.37.43,2.73.62,4,.06-1.49,0-2.73,0-3.91-.06-1.61-.12-3-.24-4.31a33.09,33.09,0,0,0,.55,3.38c.25,1.11.56,2.17.87,3.16a22.44,22.44,0,0,0,.49,3.6c.13.49.25,1,.37,1.36s.13.62.19.93.17.5.26.74v-.05l-.19-.75a4.34,4.34,0,0,1-.12-.87l.06.31a7.71,7.71,0,0,0,.75,1.49c.09.56.22,1.16.35,1.84l.34.76v-.12l-.13-.68c-.12-.68-.18-1.36-.31-2.05l.5,1.24A28,28,0,0,0,6.6,21.85l-.07-.06c-.07-.12-.16-.24-.24-.36.19.37.4.75.62,1.16a3.42,3.42,0,0,0-.25-.8L6.6,21.6C6.41,21,6.22,20.54,6,20a1.7,1.7,0,0,0,.18.31c.38.43.81.87,1.24,1.3l.75,1.86L8.15,23,8,22.59l-.12-.37-.06-.37L7.9,22c.18.19.37.31.56.5a.84.84,0,0,0-.25-.37L8.08,22,8,21.85l-.25-.25c-.25-1.12-.56-2.42-.8-3.85.06.19.12.44.18.62.37,1.18.75,2.49,1.24,3.73a66,66,0,0,0,2.79,6.57L11,28c-.16-.68-.35-1.34-.53-2,.24.48.48,1,.78,1.54A14.69,14.69,0,0,0,12,31.34a2.14,2.14,0,0,0-.06-.62c-.06-.25-.06-.5-.12-.69a20.28,20.28,0,0,1-.25-2,.93.93,0,0,0,.18.43c.08.29.18.59.27.88-.07-.34-.14-.69-.2-1.06l.12.37c.25.49.5,1.05.74,1.55s.25.79.38,1.2l-.13-.71-.06-.43.19.37c.37.56.8,1.18,1.36,2,.5,1.05,1,2.23,1.55,3.22l.37.75a14.06,14.06,0,0,0-.43-1.37l-.25-.68c-.31-.87-.62-1.67-.87-2.42.1.19.21.38.32.57-.23-.74-.46-1.5-.69-2.31l.19.38c.37.55.74,1.11,1.05,1.61a21,21,0,0,0,.56,2.29c0,.12.08.23.11.34a25.46,25.46,0,0,0,4,6.86,1,1,0,0,0-.25-.44,12.2,12.2,0,0,0-.49-1.55l-.06-.21a1.15,1.15,0,0,0-.07-.59l-.06-.29-.12-.27-.44-1-.07-.14.2.45c.19.57.33,1.05.45,1.48-.24-.76-.48-1.45-.72-2.1l-.54-1.24.19.37c.31.43.62.93,1,1.36.22.65.43,1.35.65,2,.2.38.39.76.59,1.13l.06.12.06.12.07.07c.56,1,1.05,1.92,1.55,2.85.31.87.49,1.61.74,2.42L23,45.79c-.06-.31-.12-.56-.19-.87v-.19c-.18-.93-.37-1.79-.62-2.73a35.3,35.3,0,0,0,2.3,5.71l.25.56a19.3,19.3,0,0,0-.56-1.86l-.31-1c-.56-1.68-.93-3-1.24-4.28a9.64,9.64,0,0,1-.31-1.37l.12.25.06.06.25.37c.25.93.56,1.86.93,2.92.31.87.75,1.74,1.18,2.73l.06.18c.5,1.18,1.12,2.49,1.55,3.73l.07-.13.06.25c.18.43.37.87.56,1.3,0-.2-.07-.4-.12-.6l-.18-.61v0l-.06-.2c-.2-.69-.4-1.39-.57-2.09l-.05-.3c-.29-1.08-.58-2.19-.88-3.3L25,43.43l.12.37c.31.56.56,1.12.87,1.62a18.72,18.72,0,0,0,.5,2.66c.31,1.12.74,2.11,1.11,3.1-.18.42-.36.85-.53,1.27,0,.16.11.32.16.53,1.49,1.62,2.42,3.1,3.53,4.41A.57.57,0,0,0,30.6,57l-.13-.18-.18-.31a21.28,21.28,0,0,1-1.8-4.34c-.12-.38-.19-.69-.31-1.06v-.06l.19.43c.62,1,1.36,2,2.29,3.42l.5.68.31.43.12.19.12.18-.06-.31L31.59,56a1.1,1.1,0,0,0,.19.31A20.35,20.35,0,0,0,33.39,58a25.34,25.34,0,0,1,1.36,3.28,10.56,10.56,0,0,0-.43-1.86c-.37-1.11-.81-2.23-1.24-3.22l-.19-.37.31.49.87,1.24.75,1.06c.24.43.49.86.74,1.24l.06.12.06.13.13.18.18.31.31.56-.12-.43c-.06-.19-.19-.44-.25-.62l.13.24.43.62.19.25a42.57,42.57,0,0,0,1.42,4.34l.25.62a17.23,17.23,0,0,1,.68,2,5.71,5.71,0,0,0,.07-1.06c0-.55-.06-1.16-.13-2,.11.25.21.51.31.76v-.43l-.18-.75.06.19.12.19a.85.85,0,0,0-.18-.5L39,64.46a2,2,0,0,0-.12-.5v-.1l.12.41.25.68c.37,1,.75,2,1.12,3,.18,1,.43,2.17.62,3.23l.06.18c.31,1.43.56,2.85.81,4.28,0,1.49.06,2.85.12,4.22a15.33,15.33,0,0,0,.25-1.61v-.44l.12-.74L42.51,76l.12-.93v-.18c.19-1.68.44-3.66.62-5.52v-.13a26.78,26.78,0,0,0,1.06,3.17,5.71,5.71,0,0,0-.13-1l-.06-.18-.06-.13c-.13-.62-.25-1.18-.37-1.8a6.68,6.68,0,0,0,.37,1.12c.68,1.86,1.42,3.6,1.92,5l.37,1c.06,1.06.13,2.11.19,3.17.12,2,.31,4.77.31,7.38v.31a39.3,39.3,0,0,0,.68-4,42.62,42.62,0,0,0,.37-5.58c.31,1.79.75,4.27,1.12,6.63.06.56.19,1.18.25,1.74l.06-.06v.49c.12,1.62.31,3.29.43,4.72l.07.8L50,93.42c.19-1.67.25-3.35.31-4.9.06-2.23.12-4.28.12-6.26l.19,1.3.12.68c.31,1.43.56,2.79.87,4.22.5,2.54.81,4.46,1.12,6.33.06-.81,0-1.56,0-2.3-.06-1.12-.13-2.29-.25-3.78s-.12-2.79-.19-4.22c.31,2.91.56,5.27.69,7.26A16.57,16.57,0,0,1,53,93.48a7.48,7.48,0,0,0,.31-1.67c.06-.62.12-1.18.18-1.8v.81a14.72,14.72,0,0,0,.07,1.79,59.5,59.5,0,0,0,1.18,14.08c.31,1.43.62,2.79.93,4,.24.8.49,1.79.86,2.72v-.86c-.06-.31-.06-.62-.12-.93-.06-.93-.12-1.93-.19-2.92v-1c0-.56-.06-1.12-.06-1.68a7.08,7.08,0,0,0,.19,1.12v.12c.49,2.11,1.11,4.22,1.61,6-.06,1.42-.12,2.67-.25,3.84a6.3,6.3,0,0,0,.56-1.24c.25-.74.5-1.42.74-2.11a6.3,6.3,0,0,0,.38,1.31,45.67,45.67,0,0,0,1.92,5,19.39,19.39,0,0,1-.68,4.65,6,6,0,0,0,.62-1.24,14.18,14.18,0,0,0,.68-2.11l.19.44c.31.62.55,1.24.86,1.8v.12a25.71,25.71,0,0,1,.56,3.35,1.77,1.77,0,0,0,.13-.81c0-.43.06-.8.06-1.24a2.22,2.22,0,0,0,.25.44l-.07-.38c-.06-.18-.12-.31-.18-.49v-2l.06.62.12,1.24c.31,3.11.69,6,1,8.69l.18-1.06V132a10.79,10.79,0,0,0,.13-1.55l.12-1.61a1.72,1.72,0,0,0,.06.55c.19,1.12.31,2.11.44,3.11a8.39,8.39,0,0,0,.18-1.43,21.26,21.26,0,0,0,.07-2.17l.18,1,.13.62c.31,1.31.55,2.61.86,3.91a16.13,16.13,0,0,1,.31,1.61,12.17,12.17,0,0,0,.13-2.11c0-.93,0-1.86-.06-2.85a6.76,6.76,0,0,0,.24,1.3A38.87,38.87,0,0,0,69.73,138a25.7,25.7,0,0,0,3.66,6.21v.24c.13.93.19,1.8.31,2.73l.13-.93c0-.49.06-1,.06-1.55l.06.13.13.12v-.19a.2.2,0,0,0-.07-.12v-2.3l.25.81.31.75.06.24.07.25c.49,1.3,1.3,3.23,2,5l-.06-.75-.06-.18c-.62-3-1.24-6.15-1.93-9.12l.13.25.56.74c.31,1.43.68,2.92,1.18,4.65s1.17,3.79,1.73,5.34l.06.18c.31.87.56,1.74.87,2.54a21,21,0,0,0-.37-2.91c-.25-1.49-.56-3-.87-4.53l-.06-.25-.37-1.73-.13-.62a3.81,3.81,0,0,0,.25.43c.5.62,1,1.18,1.49,1.8l.37.43a24.19,24.19,0,0,0,2.61,5.59,11.65,11.65,0,0,0,4,4L86,155l-.18-.19a11.6,11.6,0,0,1-1.61-2.11,18,18,0,0,1-1.86-4.59l.12.19c.31.25.68.5,1,.75l-.24-.44c-.38-.43-.69-.87-1.06-1.3a2.94,2.94,0,0,0,.44.43c.68.62,1.48,1.31,2.41,2.05.81,1,1.62,1.92,2.49,2.79.18.37.43.74.62,1.12a31.32,31.32,0,0,0,8.37,9.42c.31.25.62.44,1,.69l.06.06c.19.12.31.18.44.25h.12a1.83,1.83,0,0,0,.44-.13h.06a1.46,1.46,0,0,0,.6-.52.35.35,0,0,1-.11,0h-.24a22.06,22.06,0,0,0-.69-2.17c-.37-1.06-.8-2.24-1.3-3.6l.06.12c.19.13.37.19.56.31.31.37.62.75.93,1.06a27.7,27.7,0,0,0,1.68,3.59c-.07,0-.13.07-.19.13l-.21.2a3.77,3.77,0,0,0,.33.6,16.83,16.83,0,0,0,1.82,2.47,7.83,7.83,0,0,1,2.83,1.41,16.56,16.56,0,0,0,2.65,1.63l.21-.3c.74-1.05,1.49-2.23,2.36-3.53l.06.12c.49.5,1,.93,1.42,1.37a1.83,1.83,0,0,0-.37-.62l-.06-.13c-.31-.37-.56-.74-.87-1.11l.62-.93a5.42,5.42,0,0,0,1.49.43l-.12-.12-.13-.07h-.06l-.06-.06a2.91,2.91,0,0,1-.5-.25,3.44,3.44,0,0,1-.43-.24l.49-.69.19.25c.43.5.93.93,1.49,1.49a25.09,25.09,0,0,0,3.29,2.73l-.07-.19-.18-.18a44.35,44.35,0,0,1-4.1-4.9c.19-.25.38-.56.56-.81l.13-.12a9.15,9.15,0,0,0,1.42.93c.44.68.81,1.24,1.18,1.86l.25.37a30.27,30.27,0,0,1,2.05,4.34l-.13-.18a7,7,0,0,1-1-.81,2.63,2.63,0,0,0,.56.74,12.34,12.34,0,0,0,.93.87.19.19,0,0,0,.12.06c.06,0,.12-.06.19-.12a.23.23,0,0,0,.06-.19,22.26,22.26,0,0,0-1.92-6.07,4.45,4.45,0,0,0,.49.37c1.06.62,2.17,1.18,3.29,1.74-.13,1.36-.31,2.54-.5,3.59a7.15,7.15,0,0,0,.5-1.3c.18-.62.37-1.36.56-2a1.37,1.37,0,0,0,.43.25c.25.13.44.19.68.31s.69.56,1.06.81a4.81,4.81,0,0,0,.68.49,14.32,14.32,0,0,0,2.79,3.66.93.93,0,0,0-.18-.43l-.07-.06-.12-.19-.06-.12c-.07-.13-.19-.25-.25-.38-.31-.49-.56-1.11-.87-1.67a1.13,1.13,0,0,0,.43.31,12.26,12.26,0,0,0,2.67,1.36,1.7,1.7,0,0,0-.18-.31,18.67,18.67,0,0,1-1.49-1.86c-.69-.93-1.43-2-2-2.85l-.06-.06-.06-.12-.25-.31-.56-.81-.06-.25.25.19c.31.18.68.37,1,.55a23.36,23.36,0,0,0,1.68,2.55,19.83,19.83,0,0,0,5,4.77,9.81,9.81,0,0,0,5.21,1.74h.31a.47.47,0,0,0-.37-.12h-.13l-.74-.19a7.76,7.76,0,0,1-2-.93,14.73,14.73,0,0,1-2.79-2.23,29.4,29.4,0,0,1-3.29-4.1l.38.25.43.25.25.12-.5-.49c-.18-.19-.43-.31-.62-.5L127,165c-.31-.5-.68-1.06-1-1.56a4.15,4.15,0,0,0,.56.62,23.06,23.06,0,0,0,3.6,2.92,21.91,21.91,0,0,0,5,2.48.64.64,0,0,0-.31-.25l-.25-.18-.25-.13a31.62,31.62,0,0,1-6.08-4.9c-1.24-1.3-2.42-2.54-3.35-3.72l.25.19c.37.12.68.31,1.06.43.37.44.8.87,1.3,1.37a27.21,27.21,0,0,0,4.53,3.47c.37.25.8.5,1.24.74l.74.81.5.5.8.86.13.19.12.12c1.06,1.18,2.11,2.3,3.17,3.48a10.28,10.28,0,0,0-1.12-1.86c-.62-.93-1.24-1.86-2.05-2.92l.19.19c.31.12.56.25.87.37l.37.12a36.57,36.57,0,0,0,3.29,4.53,5,5,0,0,0-.44-1l-.06-.12-.06-.19-.13-.31L139,170c-.62-1.3-1.17-2.61-1.73-4l.18.12c.31.13.69.25,1,.38a40.91,40.91,0,0,0,4.09,5c-.19-.5-.44-1-.62-1.43l-.13-.25-.49-1.05-.37-.68-.19-.44-.25-.56.13.07c.37.12.74.18,1.11.31a48.07,48.07,0,0,0,4.65,4.15,13.6,13.6,0,0,0-.8-1.24l-.06-.12-.07-.06c-.49-.75-1.05-1.49-1.61-2.36l.31.12,1.37.19c.18.06.37.18.55.25a2.07,2.07,0,0,0,.38.31,5.77,5.77,0,0,0,2.66,1.36h.25l-.06.06h.12a1.77,1.77,0,0,0,.87-.37,13,13,0,0,0,1.74.31c.31.06.56.06.87.13a49.75,49.75,0,0,1,7.63,8.06l.86,1.11v-.24l-.06-.19v-.06c-.87-2-1.8-4-2.85-5.89h.06a3.4,3.4,0,0,0,1.86-.75h-.06c-.12,0-.19.06-.31.06a3.93,3.93,0,0,0-.56.19,2.18,2.18,0,0,1-.62.06,1.07,1.07,0,0,1-.43-.06.32.32,0,0,1-.25-.12c-.31-.56-.62-1.06-1-1.62-.07-.18-.07-.43-.13-.62.31-.06.62-.18.93-.25,0-.06-.06-.06-.12-.06h-.37a1,1,0,0,1-.44-.06,14.44,14.44,0,0,1-.06-1.61,14.65,14.65,0,0,0,1.8-.13,5.17,5.17,0,0,0,1.67,2.42c0-.12-.06-.18-.06-.24a1.18,1.18,0,0,1-.25-.44,4.93,4.93,0,0,1-.43-1c.06.12.12.18.19.18l.06.07c.06-.07,0-.13-.06-.19l-.13-.12-.06-.07-.12-.12a1.33,1.33,0,0,1-.13-.5l-.06-.18h.19c.86-.13,1.67-.19,2.54-.31a4.52,4.52,0,0,0,2.29,2.48c0-.13-.12-.19-.18-.25l-.07-.06c-.12-.06-.18-.19-.24-.25a5.5,5.5,0,0,1-.69-.87,5.72,5.72,0,0,1-.49-1.24H163l.69-.06c.74.87,1.42,1.74,2.29,2.85.56.69,1.06,1.37,1.61,2a.47.47,0,0,0-.06-.31c-.12-.31-.25-.62-.43-1.06-.56-1.3-1.12-2.54-1.74-3.78l1-.12-.43-.07h-.68a27.45,27.45,0,0,0-2.67-4.34v-.18c.06-.38.12-.69.19-1l.55-.18c.81-.31,1.62-.68,2.42-.93a9.49,9.49,0,0,0,1,6.26v-.25l-.07-.12V166a9.11,9.11,0,0,1-.24-2.24,14.83,14.83,0,0,1,.24-2.29,6.19,6.19,0,0,0,.25.62,18.69,18.69,0,0,0,1.06,2l.06.07c.56,1.05,1.11,2.17,1.67,3.28a18.84,18.84,0,0,1,.69,1.8,3.26,3.26,0,0,1,.12.75,3.05,3.05,0,0,0,.06-1.31,11.42,11.42,0,0,0-.37-1.79,23.79,23.79,0,0,0-1.43-3.73c-.37-.86-.8-1.73-1.18-2.6l-.31-.62h.25c.44-.06.93-.19,1.37-.25a5.68,5.68,0,0,0-.07,1.18,8.38,8.38,0,0,0,1.18,3.91,6.52,6.52,0,0,0,3.23,2.66,2.43,2.43,0,0,0-.37-.31l-.13-.12c-.31-.25-.56-.5-.8-.68a5.85,5.85,0,0,1-1.06-1.37,7.26,7.26,0,0,1-.62-1.61,8.33,8.33,0,0,1-.25-2.23v-.25a13.33,13.33,0,0,0,.56,2l.06-.13v-.12a10.62,10.62,0,0,1-.31-2.36,7,7,0,0,1,.13-1.11c.56-.07,1.11-.25,1.55-.31-.06.12-.06.31-.13.43a6,6,0,0,0,.75,3.84c.06-.06,0-.18,0-.24l-.06-.13-.07-.18a6.52,6.52,0,0,1-.18-1.55,9.93,9.93,0,0,1,.31-2.24l.06-.25c.43-.12.93-.24,1.55-.37v.31c.25,1.31.43,2.61.62,3.79v.31l.06.62a27.67,27.67,0,0,0,.75,4.09,2.15,2.15,0,0,0,0-.62c0-.25-.07-.43-.07-.68-.06-.68-.06-1.37-.06-2.05v-.62c0-1.18,0-2.6-.12-4-.06-.56-.13-1.06-.19-1.55h.06a34.56,34.56,0,0,1,.56,6.32c0,.87-.06,1.68-.12,2.49a12.63,12.63,0,0,0,.68-2.67,23.86,23.86,0,0,0,.31-5.15c.13,1.49.19,2.85.19,4.47V165c0,1.42,0,2.91.12,4.4l.06-.25v-.06c0-1.06.13-2.11.19-3.1v-.25l.06-.74c.13-1.43.19-3,.19-4.59a13.36,13.36,0,0,0-.25-2.86l.19-.06c.06,0,.12.06.24.06a4,4,0,0,0,2-.62,1.22,1.22,0,0,0-.25.56.55.55,0,0,0,.06.43.53.53,0,0,0,.38.19.22.22,0,0,0,.18-.06c.19-.06.37-.19.56-.25a1,1,0,0,0,.31.81l.06.06c.19.62.38,1.18.56,1.86a16.43,16.43,0,0,0,.44,1.67l.12.38c.12.62.31,1.24.43,1.86a.77.77,0,0,0,0-.56l-.06-.56v-1c-.06-.44-.06-.81-.12-1.24a23.53,23.53,0,0,0-.44-2.49,13.89,13.89,0,0,0,2.17-1c.31.87.62,1.74.87,2.61a21,21,0,0,1,.68,5.15v.49a12.19,12.19,0,0,1-.24,1.74,8.46,8.46,0,0,0,.93-3.23v-.06a14.83,14.83,0,0,0-.13-4.34,10.11,10.11,0,0,0-.93-3,8.92,8.92,0,0,0,1.43-.81,2.15,2.15,0,0,1,.06-.55l.19-.13q1.11-.47,2-.93l-.18.19-.06.12a11.91,11.91,0,0,1-.93,1.18c-.13,0-.19.06-.31.13l-.31.18-.07.06a2.66,2.66,0,0,1-.24.23c0,.22.11.43.18.64,0,.06.06.13.19.13s.12,0,.12-.07l.25-.24a3.87,3.87,0,0,0,1.24-.44,8.68,8.68,0,0,0,2-1.36,14.57,14.57,0,0,0,2.18-2.48l.12-.07a25.11,25.11,0,0,1,1,2.55l-.12.12c-.25.25-.44.5-.68.75a9.36,9.36,0,0,1-1.37,1.24H192a1.54,1.54,0,0,0,.5-.13,6.81,6.81,0,0,0,2-.93v.13c.19.68.31,1.24.44,1.86a6.37,6.37,0,0,0,.06-1A9.08,9.08,0,0,0,195,156a8.42,8.42,0,0,0,1.67-1.42v.68c.05,1,.1,2,.15,3a31.79,31.79,0,0,0,.29-3.87v-1.12a11.29,11.29,0,0,0,1-1.3,18.14,18.14,0,0,0,1.12-1.8l.62.68q1.55,1.68,3.2,3.42a15.06,15.06,0,0,1,2.32-1.36h0l-.31-.19-.81-.55-2-1.37a1.21,1.21,0,0,0,.31-.18,16.05,16.05,0,0,0,2.42-2.3,26.5,26.5,0,0,0,3-4.28l-.12.44-.07.31-.06.24c-.06.31-.12.56-.18.81a7.41,7.41,0,0,0,.8-1.3,36.53,36.53,0,0,0,2.36-5,33.5,33.5,0,0,0,1.55-4.66,30.16,30.16,0,0,0,2.17-5c.15-.49.32-1,.47-1.43l-.53,2.42-.06.25v.13l-.13.43c-.25,1.18-.43,2.3-.68,3.41l-.06.31c-.06.31-.13.62-.19.93v.13a33.59,33.59,0,0,1-2.6,7.87,8.6,8.6,0,0,1-.93,1.49,1.16,1.16,0,0,0,.56-.43,12,12,0,0,0,2-2.67,24.46,24.46,0,0,0,2-4.28c.49-1.4,1-2.93,1.46-4.87-.11.72-.23,1.59-.35,2.58-.37,3.84-.62,7.87-.8,12.28l.12-.38.06-.37.25-1.61.25-1.43.19-.93.06-.49.06-.37c.19-.87.31-1.74.43-2.61l-.12.19c.12-.5.25-1,.31-1.37l.06-.18c.5-2.8,1-5.28,1.55-7.82a5.92,5.92,0,0,0,.44-.87c.43-1,.8-2.23,1.24-3.66s.87-3.16,1.24-5A8.12,8.12,0,0,0,221,123a16.07,16.07,0,0,0,1.79,4.28,1.81,1.81,0,0,0-.12-.56l-.06-.13c-.13-.37-.19-.68-.31-1a28.75,28.75,0,0,1-.75-7.13c.19-.69.38-1.31.5-2v-.18c.12-.62.31-1.18.37-1.74s.13-1,.19-1.49v-.25l.74-.93-.06.25c.06.37.06.74.12,1.12l-.06.49-.25,1.43a57.53,57.53,0,0,0-1.11,8.5,5.64,5.64,0,0,0,.31-.93v-.07l.06-.24c.19-.75.37-1.55.62-2.3s.5-1.74.74-2.6l.38-1.24a1.07,1.07,0,0,0,.06.43,11.86,11.86,0,0,0,.43,1.36l.19.44c-.37,1.61-.68,3.29-1.06,5-.8,3.72-1.61,7.26-2.6,11.6.56-1.37,1.05-2.92,1.8-5.15,1-3.22,1.92-6.14,2.67-8.81l.18-.74c.62-2.3,1.06-4.4,1.43-6.45.25-1.3.43-2.67.62-4v.68l.06.87.06,1.24a9.91,9.91,0,0,0,.5-2c.43-2.35.8-5,1.18-8.12.24-.44.49-.87.74-1.37l-.12.38a20.28,20.28,0,0,0-.25,2,87.77,87.77,0,0,1-1.43,8.87c-.18.81-.37,1.49-.56,2.11-.31,1.12-.68,2.11-1,3.16a18.54,18.54,0,0,0,1.61-3.22,42.6,42.6,0,0,0,2.61-9.3c.16-.94.33-2,.49-3.16.07.62.07,1.23.13,1.85s.12,1.43.18,2.11c-.18.31-.37.68-.62,1.12l-.74,1.11a2.8,2.8,0,0,0,.62-.62c.25-.31.56-.68.81-1.05v.37c.06.68.18,1.37.24,2l.07.49a7.73,7.73,0,0,0,.06-1.24V106a17.77,17.77,0,0,0,1.49-2.6,35.46,35.46,0,0,0,2-5.52v.55c-.06,2.49-.19,4.9-.37,7.2a26.46,26.46,0,0,0,.68-3.66c.19-1.55.37-3.29.5-5.33V97c.06.8.18,1.61.31,2.42a8.72,8.72,0,0,0,.06-1.25V95.59c0-1.36.06-2.73.12-4l.07-.19v-.06c.24-1.55.55-3.35.93-5.08.12-.62.31-1.24.43-1.86s.31-.93.43-1.43a1.78,1.78,0,0,0-.06.56c-.06,1-.06,2.11-.12,3.22,0,2.17.06,4.41.18,6.21v.12l.07.74a8.82,8.82,0,0,0,.55-1.67c.44-1.43.81-2.73,1.12-4v.74a26.54,26.54,0,0,1-.43,3.35,22,22,0,0,0,1.67-5,38,38,0,0,0,.81-6.45A14.85,14.85,0,0,0,243.4,79a23.3,23.3,0,0,0,.93-4.28,2,2,0,0,0,.25.68c.43,1.06,1,2.24,1.67,3.54v-.25a.22.22,0,0,0-.06-.18v-.13c-.62-2.29-1.12-4.71-1.61-7.19V70l.18.56a11,11,0,0,0,2.05,3.53V74l-.06-.13a9.6,9.6,0,0,1-.93-2.35c.31.31.24.31.24.25A39.41,39.41,0,0,1,245.2,64V63.4l.06.19c.18.25.31.56.49.8.13.5.25.93.38,1.43.43,1.43.93,2.92,1.49,4.4a6.28,6.28,0,0,0-.13-1l-.06-.31c-.13-.81-.19-1.61-.31-2.42l.12.25,1.12,1.67.06.07.13.18.06.13c.16.25.32.48.48.72a9.67,9.67,0,0,1,1.7-2.77l-1-1.18-.25-.25c-.93-1.11-1.86-2.17-2.79-3.28-.13-2.17-.13-4.53-.13-7.14v-.43c.13-.31.25-.68.37-1l.19-.44v.25c.06.56.19,1.12.31,1.8A23.4,23.4,0,0,0,249,59.87a4.78,4.78,0,0,0,.43.8c.07-.12,0-.18,0-.24l-.06-.31-.06-.19a29.7,29.7,0,0,1-.62-7V52c0,.19.06.37.06.56a24,24,0,0,0,1,4l-.18,2.11a2.3,2.3,0,0,0,.25-.62c.06-.25.12-.56.18-.81l.06.12.07.19a14.54,14.54,0,0,0,2.17,4.09l-.13-.43a7.74,7.74,0,0,1-.43-1.05,21,21,0,0,1-.68-2.24c-.19-.74-.38-1.61-.56-2.54.49-2.23.93-4.53,1.3-6.51.12-.62.25-1.24.31-1.86V46.9l.06-.24c.19-1.06.37-2.11.56-3.1.06-.25.19-.5.25-.75-.06.19-.06.31-.13.5a28.2,28.2,0,0,0-.31,3,27.64,27.64,0,0,0,.31,4.9,12.6,12.6,0,0,0-.49,2,.67.67,0,0,0,.18-.43l.07-.13c.1-.2.2-.45.31-.67v.18a21.28,21.28,0,0,0,1.61,5.08v-.43a29.42,29.42,0,0,1-.74-6.2,9.47,9.47,0,0,0,.55-.81l.07-.12.12-.19a16.92,16.92,0,0,0,1.36-2.17c.07-.12.19-.31.25-.43v.12l.06.12.07-.12-.07-.19.25-.49c.13-.31.31-.62.44-1A2,2,0,0,0,257,46a7.45,7.45,0,0,0,1.74,2.55,8.16,8.16,0,0,0,1.36,1l-.06-.12-.06-.06A7.56,7.56,0,0,1,259,48a7.25,7.25,0,0,1-.81-2.05,17.24,17.24,0,0,1-.44-3.28l.07-.13a4.08,4.08,0,0,1,.12-.43,39.64,39.64,0,0,0,.62-7.94c.19-.31.44-.68.68-1l-.06.12-.06.25a34.35,34.35,0,0,0,0,7.19,23.78,23.78,0,0,0,.87,3.72V44.3c-.06-.5-.19-1-.25-1.68-.06-.86-.12-1.73-.12-2.72,0-.5,0-1.06.06-1.68.12-1.8.43-3.47.62-4.77.12-.69.25-1.31.37-2l.06-.31c.13-.56.19-1,.31-1.61l.06-.13c.13-.31.25-.55.38-.86l-.07.55a16.86,16.86,0,0,0-.06,1.74,50.33,50.33,0,0,1-.62,7.38,16.73,16.73,0,0,0,.93-3.41c.31-1.74.5-3.41.68-5a9.88,9.88,0,0,0,1.56-1.55c0,.19.06.37.06.49-.13.87-.31,1.86-.44,2.92l.19-.38.37-1.11.12-.44a2.8,2.8,0,0,0,.13.69,26.06,26.06,0,0,0,.93,3,17.25,17.25,0,0,0,2.29,4.21v-.12a.21.21,0,0,0-.06-.12A15.44,15.44,0,0,1,266,33.63a31.23,31.23,0,0,1-.93-6.2c.25-.74.5-1.55.81-2.3.19-.43.37-.86.62-1.42.37-.93.68-1.92,1-3l.13-.31.12-.25-.12.5c-.19.93-.31,1.8-.5,2.73l-.19.93-.12.56.25-.38c.31-.74.62-1.48.93-2.35-.13.8-.19,1.73-.25,2.79a33.45,33.45,0,0,0,.5,7.26,3.69,3.69,0,0,0,.06-.81V29.6a66.5,66.5,0,0,1,1.05-9.24l.19-1.18v.19l.06.18a20.18,20.18,0,0,0,3.66,7.57l-.06-.25c-.06-.06-.06-.18-.13-.25a22,22,0,0,1-1.55-3.53,38.39,38.39,0,0,0,1.24-3.85,50.63,50.63,0,0,0,1.18-5.39l.06.24c.13.25.25.56.38.81a10.92,10.92,0,0,0,.55,1.86l.07-.06v-.06c-.07-.37-.13-.68-.19-1.06l.06.25a5.07,5.07,0,0,0,.75,1.24,1.92,1.92,0,0,0-.25-.62l-.06-.18c-.19-.44-.38-.87-.56-1.31V14a30.41,30.41,0,0,1,1.12-6.33l.06-.31.06-.24L276,6.9c.19-.81.44-1.67.62-2.48s.37-1.86.56-3.23c.06-.39.11-.79.16-1.19ZM3.74,12.05v-.31c.13.25.19.43.31.68a7,7,0,0,1,.13,1.18l-.25-.87Zm.13,2.54v-.12c0-.19-.07-.44-.07-.69l.13.44c.18.49.43,1,.62,1.49a4.37,4.37,0,0,0,.12.93C4.36,16,4.11,15.27,3.87,14.59Zm1.24,1.86-.31-1v-.25l-.06-.62L4.49,13l.06.31c.19.37.31.68.5,1.05a14,14,0,0,0,.24,2.73ZM10.63,27a37.85,37.85,0,0,1-1.74-4.9c-.06-.31-.19-.62-.25-.94l.13.38c.24.49.55.93.8,1.36s.44,1.24.69,1.92c0,.27.09.53.13.79v0l0,.12C10.48,26.12,10.55,26.55,10.63,27ZM20.8,39.83l-.13-.49.13.31.18.25c.07.43.13.86.19,1.3ZM30.16,3.24,30,3.18A14.71,14.71,0,0,0,27.87,2L27.13.51,27.5,1c.74.68,1.61,1.36,2.66,2.23Zm3.17,54.21-.06-.06c-.31-.44-.62-.93-1-1.55a30.92,30.92,0,0,1-1.67-3.48l.56.81.8,1,.38.93A14.63,14.63,0,0,0,33.33,57.45Zm1.92-45.84.31.13h.12l.19.06a2.3,2.3,0,0,0,.25.62Zm5.46,3.48-.44-.5L39.78,14l.8.68.07.07.12.43Zm1.86,54.33c-.19,2-.25,4-.25,6-.12-2.13-.24-4.28-.47-7l0,.13.06.44V67.19c0-.93-.06-1.8-.13-2.73l.13.18c.25.25.49.56.74.81.06.25.13.5.19.81C42.75,67.37,42.63,68.36,42.57,69.42ZM56.21,97.58l-.06-.81-.06-1.49v-.12l.25-1.74A19.76,19.76,0,0,0,56.4,96c.12,2.61.37,5,.68,7.2l-.06.93C56.65,101.48,56.4,99.5,56.21,97.58Zm2,14.32-.06-.43-.25-1.3-.06-.5c-.19-1.12-.37-2.23-.56-3.35l-.25-1.49.13-.62c0,.38.06.75.06,1,.25,1.67.62,3.34,1,5Zm8.81,8.25c-.06-.62-.19-1.3-.31-1.92l.12.31.25.43A8.25,8.25,0,0,0,67.07,120.15ZM73.64,19.24l-.06.5L73.21,19l-.37-.86-.19-.38A12.7,12.7,0,0,0,73.64,19.24ZM68.37,3.67l-.06.25-.06.19-.07.31-.06.12-.18.5-.07-.12-.06-.5c-.18-1-.37-2-.56-3V.82a.87.87,0,0,0,.19.5c.25.56.56,1.24.93,1.92Zm1.3,5.4L69.61,9l-.06-.25c-.19-1.43-.44-2.85-.62-4.28V4.36c.06.12.18.31.25.43.37.62.74,1.24,1.11,1.74A33.6,33.6,0,0,0,70.11,10C70,9.69,69.8,9.38,69.67,9.07ZM71,136.59c-.44-1.74-.81-3.54-1.12-5.58l.18.49c.31.62.69,1.31,1.06,2.05.56,1.8,1.24,3.78,2.11,5.95l.12.38c.06.8.19,1.55.31,2.35l.13,1.49A30.12,30.12,0,0,1,71,136.59Zm3-5.4-.06-.56a1.58,1.58,0,0,0,.13.56c.18.5.37,1,.55,1.49C74.45,132.19,74.2,131.69,74,131.19Zm11.6-80.07c.44.5.87.93,1.37,1.43l.12.12V53l-.25-.31c-.43-.43-.8-.87-1.24-1.24l-.06-.18-.12-.38Zm1.55,4.78L87,55.77c-.13-.12-.31-.24-.44-.37l-.49-1.86.18.25c.25.18.5.43.75.62A12.47,12.47,0,0,1,87.16,55.9ZM85,61.11a2.86,2.86,0,0,0,.13.68l-.07-.12c-.24-.38-.49-.75-.68-1.06a11.09,11.09,0,0,1-.87-2c.07.12.13.24.19.37A18,18,0,0,0,85,61.11ZM82,51.8c.31.5.69,1.06,1.12,1.68.19.62.43,1.3.68,2.05A36.26,36.26,0,0,1,82,51.8Zm.5-8.31c.19.25.37.44.56.69l.18.74.56,2.67-.18-.25c-.31-1.18-.75-2.42-1.06-3.47l-.06-.25-.06-.31ZM77.18,28c.74.93,1.61,1.92,2.73,3.16a14.79,14.79,0,0,0,.43,1.68l.31,1.11c-.5-.74-1-1.55-1.61-2.42l-1.86-3.35-.56-1A9.47,9.47,0,0,0,77.18,28Zm2.91,8.06v1.18L80,37l-.19-.62-.37-1.24.12.19A8.49,8.49,0,0,0,80.09,36.05ZM77.8,33l.18.31c.25.37.56.81.87,1.18a1.67,1.67,0,0,0,.06.74C78.48,34.38,78.11,33.63,77.8,33Zm.31,2.6c-.37-.55-.75-1.11-1.18-1.79-.19-.93-.37-1.87-.5-2.73a1.85,1.85,0,0,0,.25.37,8.72,8.72,0,0,0,.25,1.05A13,13,0,0,0,78.11,35.55Zm-3.1-13c-.13-.68-.25-1.37-.31-2a4.32,4.32,0,0,0,.31.87,30.85,30.85,0,0,0,2,4s0,0,0,0c-.66-.91-1.15-1.64-1.64-2.31Zm1,110.28v-.31l.19.31c.49.62,1.11,1.36,1.92,2.29.06.25.19.5.25.74s.06.87.06,1.43c-.62-1.05-1.24-2.29-2-3.66Zm.62,4.4v-.12a2.24,2.24,0,0,0,.25.55,31.94,31.94,0,0,0,1.92,3.1,4.27,4.27,0,0,0,.13.87C78.23,140.31,77.49,138.82,76.68,137.21ZM79.1,41.14c-.12-.38-.25-.75-.37-1.12l-.06-.12-.13-.44c-.25-.8-.49-1.61-.74-2.54a2.47,2.47,0,0,0,.37.68c.5.81,1,1.68,1.61,2.48.13,1,.37,1.92.56,2.85Zm1.12-5c.06.13.18.25.24.38.31.37.69.74,1,1.11l.62,2.55-1.31-1.86C80.59,37.6,80.4,36.92,80.22,36.17Zm3.22,111.09c-.37-.44-.8-.93-1.18-1.37A15.15,15.15,0,0,1,82,144.4a1.45,1.45,0,0,0,.25.31,41.85,41.85,0,0,0,2.36,3.73l.06.06c0,.12.06.18.19.31A18.29,18.29,0,0,1,83.44,147.26Zm.93-84.6a59.33,59.33,0,0,1-2.21-6.36,20.13,20.13,0,0,0,1,1.89,9.23,9.23,0,0,0,1.12,3.72,14.72,14.72,0,0,0,1.43,2.24c.31,1.17.74,2.35,1.17,3.53A39,39,0,0,1,84.37,62.66Zm2.48,81.5c-.31-.69-.56-1.43-.87-2.11s-.49-1.24-.74-1.93l.06.07.13.12a47.13,47.13,0,0,0,2.42,5.09A9.87,9.87,0,0,1,86.85,144.16ZM93.68,72c.37.25.74.5,1.17.81a17.61,17.61,0,0,0,2,3.47c-.81-.49-1.55-1-2.23-1.49-.44-1-.81-2-1.18-3Zm-2.3-6.76,1.3,1.31c.13.49.25,1.11.44,1.86l-.06-.07c-.44-.49-.87-.93-1.31-1.42l-.62-2Zm-2.79,2.42.06.13.13.12c.18.43.43.93.68,1.43l.06.12c-.31-.5-.56-1-.87-1.49Zm.62,2.73-.31-1.24a2.3,2.3,0,0,0,.25.62,25.16,25.16,0,0,0,1.55,2.42,13.66,13.66,0,0,1-1.37-1.3ZM97,159.6l.06.12c.62,1.31,1.25,2.55,1.8,3.79A64.58,64.58,0,0,1,93,155.57c-1-1.55-2-3-3.1-4.72l-.06-.18a1.76,1.76,0,0,0,.31.25c.37.37.74.8,1.18,1.17.25.25.49.44.74.69A9.55,9.55,0,0,0,93,154a19.78,19.78,0,0,0,2.61,2.79l1.3,2.6Zm-.31-5.15c-.74-1-1.55-2-2.35-3.22l-.07-.07-.43-1v-.06l.12.18a7.84,7.84,0,0,0,.69.75c.62.62,1.24,1.24,1.86,1.8.12.49.24,1.18.43,1.92Zm.81-8.62c-.25-.25-.5-.43-.75-.68-.12-.75-.18-1.49-.24-2.17a2.14,2.14,0,0,0,.18.56c.31.68.68,1.42,1.12,2.29v.06a.69.69,0,0,0,.06.31Zm6.88-67.73c.75.62,1.49,1.24,2.24,1.8-.25-.06-.44-.06-.69-.12-.49-.38-1-.81-1.61-1.18a5.64,5.64,0,0,1-.31-.93A.85.85,0,0,0,104.34,78.1Zm-.06,79.27a.92.92,0,0,0,.31.18,27,27,0,0,0,1.61,3.23c-.31-.13-.68-.19-1-.31v-.13Zm-1.3-3.66.12.06c.37,1,.69,2,1.12,3l-.25-.19c-.25-.68-.5-1.36-.74-2.11-.13-.25-.19-.56-.31-.81Zm-.87,4.34.06.06.13.19.62,1,.06.12-.31-.18-.25-.13-1.12-.74-.06-.93-.06-.87C101.43,157.06,101.8,157.55,102.11,158.05Zm-3.6-3.78.13.18a8.34,8.34,0,0,0,1,.68c.19.75.37,1.55.62,2.48-.31-.24-.68-.55-1-.8C99,156,98.76,155.13,98.51,154.27ZM104.59,167l-.12-.18a16.35,16.35,0,0,1-1.8-2.24,18.68,18.68,0,0,1-1.06-1.86l.13.19a2.84,2.84,0,0,1,.43.43l-.31-.49-.49-.62a29.67,29.67,0,0,1-1.31-3l.13.18c.25.19.49.31.68.44.12.43.31.87.43,1.3l.13.37.06-.31-.06-.8v-.31l.12.12a12.61,12.61,0,0,0,1.55.81,1.72,1.72,0,0,0-.49-.44l-.13-.12a7.35,7.35,0,0,1-1-.87l.25.12a15.13,15.13,0,0,0,1.79.69c.69,1.17,1.43,2.41,2.24,3.65A27,27,0,0,1,104.59,167Zm.75.68-.13.19v-.06a19.73,19.73,0,0,0,.87-3.23v.13l.06.12.19.37.06.13v-.31a2.7,2.7,0,0,1,.43.56l-.18-.81c-.13-.31-.19-.62-.31-.87l-.06-.25a19.3,19.3,0,0,0,.12-2.66,21.57,21.57,0,0,0,2,3Zm4.15-5a10.27,10.27,0,0,1-1.24-1.55,21.57,21.57,0,0,1-2.23-5c-.06-.25-.13-.43-.19-.68.25.43.5.93.81,1.42a33,33,0,0,0,2.66,3.85,14.75,14.75,0,0,1,.94,1.18Zm1.37-1.67c-.5-.68-1.06-1.43-1.56-2.24l.07.07a15.73,15.73,0,0,0,1.92,1.67Zm2.23-82.43.12.19.25.18c.31.25.62.44.93.68l.19.19-.44.12-.12.07-.75.12C113.21,79.71,113.15,79.16,113.09,78.66Zm1.74,82.24c-.32-.56-.63-1.11-1-1.67l.44-.69.06-.06.18.31c.5.69,1.06,1.43,1.68,2.17a39.45,39.45,0,0,0,3.6,3.6C118.17,163.51,116.56,162.27,114.83,160.9Zm5.27-1.61c-.69-.93-1.24-1.68-1.8-2.36l-.19-.25,0-.06a7.12,7.12,0,0,1,.66.5l.06.06a11.26,11.26,0,0,1,1.31,1.18Zm4.71.56c-.19-.06-.43-.06-.68-.13l-.19-.31-.43-.62.18.19a7.77,7.77,0,0,0,1.18.62.75.75,0,0,0,.19.31Zm4.09,2.35a2.1,2.1,0,0,0,.69.25l.06.06c.06.13.18.25.25.38l.06.12.43.5C129.9,163.07,129.4,162.7,128.9,162.2Zm5.71,4.47c-.62-.81-1.3-1.74-2.17-2.79l.31.25c.62.31,1.3.62,2.05,1l.18.12c.44.75.87,1.68,1.43,2.61C135.79,167.48,135.17,167,134.61,166.67Zm3.78-93.9-.12.18-1.05.81c.24-.25.43-.5.68-.74l.56-.31Zm5.46-13.15a16.82,16.82,0,0,0,0,1.74l-.18-.38a2.69,2.69,0,0,0-.07-.74l.25-.68Zm4.47-8.25.06-.19v-.31a21.3,21.3,0,0,1,2.11-2,13.26,13.26,0,0,1,1.73-1.24,13.57,13.57,0,0,0-2.17,1.73,10.92,10.92,0,0,0-1.61,2.11.33.33,0,0,1-.18.25C148.26,51.56,148.32,51.49,148.32,51.37Zm-2.55-2.29c-.12,0-.24.06-.31.06a4.76,4.76,0,0,0-1.11.62l.37-.37A12,12,0,0,1,147,47l.87-.69a2.42,2.42,0,0,0-.31.69c-.31.8-.56,1.61-.81,2.42A17.09,17.09,0,0,0,144.41,53l-.06-.24a11.46,11.46,0,0,0-.75-1.55,12.55,12.55,0,0,1,1.86-1.86c.13-.13.25-.19.38-.31Zm-2.66,16-.06.06-.13.18c-.12-.8-.25-1.61-.31-2.48l.06.19c.19.68.31,1.3.44,1.92ZM143,57a9,9,0,0,0-.87-2.17v-.37l.13.06a2.31,2.31,0,0,0-.06-.37,9.52,9.52,0,0,1,.31-1.36,2.08,2.08,0,0,1,.37-.56l.06.12a16.22,16.22,0,0,0,1.18,1.43,16.57,16.57,0,0,0-1,3.84A2,2,0,0,0,143,57Zm3.23,11.54-.06-.06c.31-.68.68-1.61,1-2.61a1.29,1.29,0,0,0,.19.62c0-.06-.07-.06-.13-.06a.4.4,0,0,0-.25.06l.07.07h.12c.12,0,.12,0,.19.06l.12.06a8,8,0,0,0,1.92,2.91h-.06l-.25-.06-.62-.18.07-.07c-.07-.06-.13-.12-.19-.12s-.44-.06-.62-.12l-.25-.07-.43-.12L147,68.8C146.7,68.74,146.46,68.61,146.21,68.55Zm5,95.39a6.24,6.24,0,0,0-.68.93,11.15,11.15,0,0,0-2.3-1.24l-.68-.31h.06a.26.26,0,0,0,.13-.06,10.67,10.67,0,0,1-1.24-1.18l.31.12h.31l.49-.06.19.06.37.19c.93.43,1.92.81,3,1.24Zm1.36-1.43a2.7,2.7,0,0,0-.37.38,1.81,1.81,0,0,1-.06-.56,1.19,1.19,0,0,0,.5.12Zm2.05,5.59.06.06h.56a4.27,4.27,0,0,0,.13.87Q155,168.66,154.58,168.1Zm.81-5.28a23.66,23.66,0,0,0-.31,3.6,1.61,1.61,0,0,1,.06.5c-.62,0-1.18-.06-1.8-.06a13.38,13.38,0,0,1-.68-1.74,16.15,16.15,0,0,0,1.18-1.68l.12-.06.06-.06.44-.25.25-.18.24-.19h.5Zm.87,4.16c.06-1.43.18-2.79.37-4.28h.43c-.06.12,0,.31,0,.5a9.56,9.56,0,0,0,.19,2.73,2.92,2.92,0,0,0,.37,1Zm4.71-.06h-.19c-.74,0-1.55,0-2.29.06l-.06-.19a21.47,21.47,0,0,1-.25-3.72v-.43l.18.12.13.13c.68.55,1.36,1.17,2.17,1.92a8.36,8.36,0,0,0,.5,2.17Zm9.37-94a6.18,6.18,0,0,1,1.11-.06,12.38,12.38,0,0,1,1.49.06l-.25.13c-.25.25-.56.49-.74.68-.7-.17-1.51-.41-2.38-.69A3.92,3.92,0,0,1,170.34,73Zm.06,2.17a3.4,3.4,0,0,1-.75.87c-1.18-.49-2.23-.93-3.28-1.3l.18-.25c.5-.56.93-1.11,1.43-1.67a1,1,0,0,0,.31.43,2.16,2.16,0,0,0-.75.5l.07.06.24-.12a2.1,2.1,0,0,1,.56-.25,9.24,9.24,0,0,0,2.05,1.73Zm3.22,1.74c-.68.06-1.24.06-1.73.13l-.19-.07c-.25-.12-.5-.24-.81-.37.31-.25.5-.5.75-.74A12.17,12.17,0,0,0,174,76.92Zm3.17-2.29v.18a32.4,32.4,0,0,1-3.29-.62l-.44-.12H173l.13-.13.68-.8c1.11.25,2.29.56,3.41.87h.06A5.09,5.09,0,0,1,176.79,74.57Zm4,.55-.31.13c-.49-.06-1.11-.13-1.86-.19l-.24-.06-.25-.06.12-.06.19-.19.25-.31c.74.25,1.48.5,2.23.68Zm.94,81.75-.13.06-.18.13-.25.24-.13.19-.06-.25a4.87,4.87,0,0,0,.93-.56ZM182,73.51l-.19-.06-.25-.06a14,14,0,0,0-1.86-.56l.19-.19L181,71.16l.06.24a13.06,13.06,0,0,0,1.06,2Zm11.1-6.26c-.19.49-.37,1-.62,1.8-.25.18-.5.31-.81.49l-.06.06-.13.07.13-.44.12-.37a18.4,18.4,0,0,0,1.55-1.92Zm1,86.95a8.51,8.51,0,0,0-.62-2.35l.5-.31c.43-.31.86-.69,1.3-1.06v.19l.06.12a8.85,8.85,0,0,1,.25,1.06A17.38,17.38,0,0,1,194.09,154.2Zm3.22-5.52-.18.38-.31.55-.06.13-.07.12c-.06-.18-.06-.37-.12-.56a6.38,6.38,0,0,0,1-1Zm1.37-94c-1.05,1.3-2.23,2.73-3.54,4.34l.31-.75.38-.93a54.1,54.1,0,0,1,2.29-5.08A26.49,26.49,0,0,1,202,46.59a34,34,0,0,0-.62,3.73l-.38.62c.07-.13.07-.25.13-.38v-.24l-.5.74-.37.68C199.73,52.73,199.18,53.66,198.68,54.66Zm8.87,82.8-.25.62-.43,1.24a63.89,63.89,0,0,1-3.23,7.44c-.74,1.43-1.43,2.67-2.11,3.72l-1.73-1.11-.13-.07a37.65,37.65,0,0,0,2.42-5.21,49.56,49.56,0,0,0,4.22-5c.56-.74,1.05-1.49,1.55-2.23ZM214.43,127c-.37,1.17-.74,2.41-1.11,3.65-.13.38-.25.75-.38,1.06a13.09,13.09,0,0,0,.25-1.61c.13-.62.31-1.31.44-1.93l.12-.43.31-.5.75-1.24Zm8.81-16.32-.31.44.06-.25v-.12l.06-.19.19-.62Zm3.72-3.22-.06.43-.25,1.37c-.37,2.42-.87,4.9-1.3,7.07v.18l-.25,1-.06.18a15.42,15.42,0,0,1-.37-2.73v-.18l.06-.25c.56-1.92,1-3.91,1.36-5.89l.07-.25c.31-.44.62-.93.93-1.37Zm.44-3.66c-.25.5-.56,1-.81,1.49.12-.81.19-1.74.25-2.67s.12-2,.12-3.22l.06-.19.25-.62.06-.12.07-.13a3.41,3.41,0,0,0-.07.87c0,1.18.07,2.48.13,4.22ZM232.11,89c-.25.93-.5,1.86-.68,2.72L231,93.42l-.18.81-.62,2.85c.06-.93.12-1.86.24-2.79l.07-.81.06-.68.06-1c.06-.25.19-.5.25-.75.56-1,1-2,1.49-2.79A3.94,3.94,0,0,0,232.11,89Zm3.1,6.45c-.37,2-.81,4.15-1.36,6.2v.06c-.07.25-.13.43-.19.62a18.31,18.31,0,0,1-1,2.73c.06-3,.12-6,.25-8.81.68-1.49,1.42-3.1,2.1-4.84l-.06.25-.06.5c-.19,1.86-.31,3.41-.43,4.71a1.47,1.47,0,0,0,.31-.68c.24-.56.43-1.24.68-1.92A6.89,6.89,0,0,0,235.21,95.41Zm4.4-25.62v-.25l.13-1.8a19.09,19.09,0,0,0,.31,2.11c-.13.5-.37,1.06-.56,1.62Zm-.12,10c-.12.74-.19,1.61-.31,2.54-.37.75-.81,1.61-1.18,2.54,0-.18.06-.37.06-.49v-.06c.13-.75.19-1.55.31-2.3.38-1,.69-2.17,1-3.22l.93-3.17A33.77,33.77,0,0,0,239.49,79.84ZM243,77.61c0-.87-.07-1.87-.07-3L243,73.2v-.43a15.72,15.72,0,0,0,.06-1.68v.25c.12.37.18.68.31,1A40.8,40.8,0,0,1,243,77.61ZM251.34,45c-.25.93-.5,2-.69,3.1A36.89,36.89,0,0,0,250,53l-.06-.62c-.18-1.73-.31-3.16-.37-4.46.62-1.18,1.24-2.36,1.92-3.54A1.1,1.1,0,0,0,251.34,45Zm3.78-.12c-.12.37-.19.74-.31,1.18l-.12.37a9.29,9.29,0,0,1-.56,1.55,6.13,6.13,0,0,1-.37,1.12c.06-2.3.18-4.59.37-6.7.06-.87.18-1.74.31-2.61l.12-.18.37-.5a.48.48,0,0,0-.06.31c-.06.5-.06,1-.12,1.49a15.38,15.38,0,0,0,.43,3.78Zm.81-3.47c-.07.49-.19,1-.31,1.48a16.85,16.85,0,0,1,.31-3A5.31,5.31,0,0,0,255.93,41.45Zm7.38-13.71v.06c-.31.56-.69,1.12-1,1.61l.07-.55.06-1.12.06-.37.06-1c.31-.74.62-1.48.87-2.23a2.21,2.21,0,0,0-.06.62c.06.81.12,1.61.18,2.48C263.49,27.43,263.37,27.55,263.31,27.74Zm3.28-11.35c-.68,2.6-1.24,5.09-1.73,7.38V22.53c0-.87,0-1.68.06-2.42.37-1.05.74-2.05,1.05-3.1v-.12c.25-.75.56-1.56.81-2.3.56-1.49,1-2.79,1.43-3.84C267.65,12.54,267.15,14.28,266.59,16.39Zm4.9,5.64c-.06.31-.12.62-.18.87l-.06.19-.07.18-.12-.37c-.12-.43-.25-.87-.37-1.36a46,46,0,0,1-1-5.4l.06-.62c.31-1.24.62-2.42.8-3.6l.19-.55.62-1.62-.06.5c0,.5-.06,1-.06,1.49v.62l.12,1.61a9.83,9.83,0,0,0,.31-1.05c.25-.93.5-2,.74-3.17V10c.13.5.25,1.06.38,1.55A82.54,82.54,0,0,1,271.49,22Zm1.62-15.19-.07.62V8L273,8.7l-.06,1.11a13.22,13.22,0,0,1-.25-1.36c.13-.68.31-1.43.44-2.17Z" style="fill:#eaeaea"/><path d="M281.65,0c.06,1,.1,1.94.08,2.93,0,.74-.06,1.49-.13,2.23a22.8,22.8,0,0,0,.69-4.09c0-.35,0-.71,0-1.07Z" style="fill:#eaeaea"/><path d="M277.67,0c.05,1,.11,2,.21,2.87s0,2.17.06,3.22l.13-.43.06-.5v.69c.06.8.19,1.67.31,2.54l.06-1.12V2.19c.13-.69.19-1.37.31-2l0-.14Z" style="fill:#eaeaea"/><path d="M42.57,4.61V5.1L42.69,5V4.85c.13-.27.23-.53.34-.8.19-1.28.36-2.6.52-4h-1a23.46,23.46,0,0,0-.3,3,3.54,3.54,0,0,0,.24-.74l.19-.81.06-.37-.06.62C42.63,2.68,42.57,3.61,42.57,4.61Z" style="fill:#eaeaea"/><path d="M41.89,8.2V6.9c0-2,.18-4.16.43-6.7l0-.2h-.88c0,.23-.06.46-.08.7a28.7,28.7,0,0,0,.43,8.06A1.54,1.54,0,0,0,41.89,8.2Z" style="fill:#eaeaea"/><path d="M40.83,2.81V2.37A20.65,20.65,0,0,1,41,0h-.44a25.72,25.72,0,0,0,.22,3.12Z" style="fill:#eaeaea"/><path d="M224.79,105.27l.19-.56.12-.37-.12.43-.19.93-.12.93A11.4,11.4,0,0,1,224.79,105.27Z" style="fill:#eaeaea"/><path d="M26.57,49.26l.19.73c0,.08,0,.16.07.23l.05.1a4.77,4.77,0,0,1,.13.51.84.84,0,0,1,0,.17l.13.43.06.19.19-.31a.44.44,0,0,1-.13-.31,17,17,0,0,1-.56-2.17c-.18-.31-.36-.68-.55-1l.18.67Z" style="fill:#eaeaea"/><path d="M108.45,169.76a17.6,17.6,0,0,1,4.57,1.51c-.35-.22-.69-.44-1-.63a17.84,17.84,0,0,0-3.91-1.49l-.18-.06-.25-.06-.19.27C107.77,169.47,108.11,169.62,108.45,169.76Z" style="fill:#eaeaea"/><path d="M15.4,33.14l-.3-.49c.27.84.53,1.64.8,2.41a41.78,41.78,0,0,0,2.48,5.46,14.73,14.73,0,0,0,.87,1.42l.12.25c0,.06.06.06.06.12l-.06-.24A46.83,46.83,0,0,1,16.32,35c-.12-.3-.25-.59-.36-.89Z" style="fill:#eaeaea"/><path d="M31.28,7.46l-.19-.25L30.91,7l-.19-.31.19.19.18.12a3.1,3.1,0,0,1,.19.5Z" style="fill:#eaeaea"/><path d="M34.07,10.19l-.31-.62c-.18-.44-.43-.87-.62-1.24l.25.37.12.12c.44.5.87.93,1.31,1.43l-.07-.06h-.68Z" style="fill:#eaeaea"/><path d="M273.85,13.66c0-.06-.06-.19-.06-.25v-.06c0-.12.06-.25.06-.43v.74Z" style="fill:#eaeaea"/><path d="M14,30.1,13.91,30l-.24-.62.18.31a2.62,2.62,0,0,0,.13.44Z" style="fill:#eaeaea"/><path d="M32.52,52.73l-.37-.55-.25-.44v-.06l.19.19.31.49.12.37Z" style="fill:#eaeaea"/><path d="M191.48,63.34c.31-.56.56-1.05.87-1.61-.06.18-.18.37-.24.56v.06l-.19.43-.44.56Z" style="fill:#eaeaea"/><path d="M142,66.63c.12-.25.19-.5.31-.75V66l.06.12c-.12.19-.25.31-.37.5Z" style="fill:#eaeaea"/><path d="M96.78,71.59l-.38-.43.13.06h.31c-.06.12-.13.25-.06.37Z" style="fill:#eaeaea"/><path d="M129.71,74.26l.12-.13.31-.31c-.06.13-.12.19-.18.31l-.25.13Z" style="fill:#eaeaea"/><path d="M49.45,76.12c-.06-.38-.06-.75-.12-1.12v-.19l.06.5.13.37a.85.85,0,0,0-.07.44Z" style="fill:#eaeaea"/><polygon points="188.38 75.81 188.45 75.75 188.63 75.62 188.76 75.5 188.63 75.62 188.57 75.75 188.51 75.93 188.38 75.87 188.26 75.81 188.38 75.81 188.38 75.81 188.38 75.81" style="fill:#eaeaea"/><path d="M69.24,126.23l-.06-.12V126l-.07-.37a1.67,1.67,0,0,1,.13.62Z" style="fill:#eaeaea"/><path d="M113.15,158.17h0c-.25-.43-.5-.74-.74-1.11l.06.06h.31l.62.18.06.13.06.12-.37.62Z" style="fill:#eaeaea"/><path d="M121.15,160.72l-.06-.07v-.43a1.27,1.27,0,0,0,.06.5Z" style="fill:#eaeaea"/><path d="M106,162.82l-.13-.31-.37-1.17-.19-.56.13.06.93.19.06.06-.06.18-.06.25c-.13.37-.19.87-.31,1.3Z" style="fill:#eaeaea"/><path d="M123.26,162.33l-.68-.5v-.12l-.06-.31c-.07-.19-.07-.44-.13-.62l.06.25c.19.31.38.55.56.86a1.41,1.41,0,0,1,.25.44Z" style="fill:#eaeaea"/><path d="M151.11,162.33l-.31-.25c.12.06.18.06.31.12v.13Z" style="fill:#eaeaea"/><path d="M108.93,163.51l-.18-.31v-.07c.06.13.18.19.31.31l-.13.07Z" style="fill:#eaeaea"/><path d="M151.54,165.43l-.18-.12c.06,0,.12-.07.18-.13l.06.13-.06.12Z" style="fill:#eaeaea"/><path d="M162,166.86c-.06-.31-.12-.69-.18-1.06l.12.19.12.12.44.44.25.24-.25-.06h-.06l-.44.13Z" style="fill:#eaeaea"/><path d="M149.06,169.52a.8.8,0,0,1-.37-.06,1.67,1.67,0,0,1-.5-.25c.31.13.62.19.87.31Z" style="fill:#eaeaea"/></svg>