<svg xmlns="http://www.w3.org/2000/svg" width="346.54" height="218.21" viewBox="0 0 346.54 218.21"><path d="M1.19,180a39.19,39.19,0,0,0,2.6,4.53l.56.93.06.06.06.12a20.14,20.14,0,0,1,1.18,2.11c.19.37.31.68.5,1.12l.06.12a2,2,0,0,0,.25.56c.5,1.18,1,2.3,1.67,3.6l.13.18.43.93C9.5,196,10.49,198,11.42,200a56.16,56.16,0,0,1,2.11,5.34c.12.49.25.8.31,1.17a4.54,4.54,0,0,0-1.3-.18,2.14,2.14,0,0,0-.62.06,3.73,3.73,0,0,0-2.73,1.74,4.67,4.67,0,0,0-.62,1.73,7.28,7.28,0,0,0-.06,1.68v.12a17.69,17.69,0,0,0,.68,3.54c.3,1,.63,2,1,3H44c-.2-.57-.39-1.15-.58-1.75a21.63,21.63,0,0,1-1-5.58,15.7,15.7,0,0,1,.37-3.23c.44-1.55,1-3.1,1.37-4.22l.06-.12a45.51,45.51,0,0,0,1.55-5,24.64,24.64,0,0,0,.13-7.94v-.44c-.07-.93-.19-1.92-.19-2.85A21.45,21.45,0,0,1,46,183.4c.06-.31.19-.56.25-.81a12.8,12.8,0,0,1,1.61-2l.06-.13.06-.06.07-.06.06-.12c.25-.31.49-.56.74-.87a15.48,15.48,0,0,0,1.93-4.1,39.66,39.66,0,0,0,1.61-9.73c.12-2,.12-4.16.18-6V159a66.78,66.78,0,0,1,1.12-13.52,26.65,26.65,0,0,1,2.17-5.77c.68-1.17,1.43-2.23,2.23-3.34s1.74-2.3,2.79-3.66c1.74-2.17,3.73-4.47,6-6.95a151.61,151.61,0,0,1,29.28-24.25c2.85-1.74,5.52-3.29,8.18-4.65,1.12-.56,2.3-1.12,3.1-1.49l.25-.13,1-.49,2-.93.12-.06c1.06-.5,2-1,3.11-1.49a158.28,158.28,0,0,1,20.4-8.31l.13-.07h.06a63,63,0,0,1,16.19-2.79h.86a65.55,65.55,0,0,1,7.69.5c2.73.37,5.52.87,8,1.36h.18l.93.19c6,1.18,12.34,2.23,19.35,3.29,6,.87,12.22,1.73,19.17,2.6,1.8.19,3.53.44,5.27.68l1.3.19,3.17.37a68.37,68.37,0,0,1,8.12,1.43,77,77,0,0,1,17.06,6.76,72.92,72.92,0,0,1,14.82,10.73,62.93,62.93,0,0,1,4.9,5.21c.19.25.37.43.56.68l.12.13c.5.55,1,1.17,1.55,1.73a24.94,24.94,0,0,0,2.55,2.24,36.2,36.2,0,0,0,4.46,2.85l1.06.62.06.06a37.62,37.62,0,0,1,5.58,4,12.27,12.27,0,0,1,1.86,2.11c.62.74,1.12,1.61,1.55,2.23l.06.13a95,95,0,0,1,6.7,13.64c.44,1,.87,2,1.24,3l.37.87.13.31,1.11,2.6c.44,1,.87,2,1.31,3l.12.31a37.19,37.19,0,0,1,1.43,3.91,84.73,84.73,0,0,1,2.42,14.57v.12c.31,3,.62,6.08,1.17,9.06A38.27,38.27,0,0,0,300.76,194a4.4,4.4,0,0,0,.43.74l.12.19.13.24.06.07a11.58,11.58,0,0,1,.68,1.3c.44.87.87,1.74,1.43,3a57.91,57.91,0,0,1,2.23,6c1.25,4.17,2.11,8.42,2.93,12.61h37.77a6.58,6.58,0,0,0-1.31-2.62,9.42,9.42,0,0,0-1.74-1.74,3.34,3.34,0,0,0-.87-.49,2,2,0,0,0-.74-.25,6.58,6.58,0,0,0-2-.25,23.85,23.85,0,0,0-3,.31c-.74.13-1.55.25-2.35.31a2.16,2.16,0,0,1-.68-.06,1.73,1.73,0,0,1-.38-.31,4.09,4.09,0,0,1-.49-.56.47.47,0,0,1-.13-.31v-.19a.52.52,0,0,1,.07-.31,2.19,2.19,0,0,1,.24-.55,12,12,0,0,1,1.93-2.36,16.53,16.53,0,0,0,2-2.61,4.79,4.79,0,0,0,.56-1.3,9.13,9.13,0,0,0,.25-1.36c.12-1.24.12-2.48.12-3.66a37.91,37.91,0,0,0-.62-7.38,23.07,23.07,0,0,0-1.18-3.72c-.12-.31-.24-.56-.37-.87l-.06-.13v-.06a6.63,6.63,0,0,1-.43-1.05,1.54,1.54,0,0,1-.07-.56,9,9,0,0,1,.13-1.18,27.64,27.64,0,0,1,1.36-3.78c.31-.62.68-1.3,1-1.93l.07-.12.06-.19c.5-.86.93-1.67,1.36-2.41.75-1.31,1.43-2.61,2.17-4,.69-1.18,1.18-2.24,1.68-3.29a14.79,14.79,0,0,0,1.12-2.61,4.09,4.09,0,0,0,.24-2.29,4.23,4.23,0,0,0-2.11-2.79,11.77,11.77,0,0,0-4.77-1.18,20.74,20.74,0,0,1-2.48-.37,8.65,8.65,0,0,1-1.12-.44c-.12-.12-.31-.18-.43-.31a4.81,4.81,0,0,1-.5-.62,9,9,0,0,1-.49-1.11,8.68,8.68,0,0,1-.25-1.93,28.3,28.3,0,0,1,.74-5.7l.13-.56a28.19,28.19,0,0,0,.68-5.58,11.14,11.14,0,0,0-.5-3.16,12.59,12.59,0,0,0-1.3-3,33.36,33.36,0,0,0-2.05-3.1l-.12-.13-.31.37c-.5-.68-.93-1.3-1.37-2a15.52,15.52,0,0,1-1.3-2.67c-.12-.62-.25-1.18-.31-1.8a9.62,9.62,0,0,1,.37-2.48l.19-.68a22.16,22.16,0,0,0,.74-3.66,10.2,10.2,0,0,0-.18-2.73,8,8,0,0,0-1-2.48,16.68,16.68,0,0,0-3.91-4.09c-.62-.5-1.3-1-1.86-1.37l-.38-.24-.37-.31-.06-.07c-.43-.31-.87-.62-1.3-1a15.1,15.1,0,0,1-1-1.18c-.31-.43-.62-.74-.87-1.05a6.14,6.14,0,0,0-3.29-2,7.87,7.87,0,0,0-1.18-.12H312a5,5,0,0,0-1.36.31l-.25.06a5.39,5.39,0,0,0-1.18.56c-.43.25-.8.5-1.18.74l-.18.13c-.37.18-.68.37-.93.49h-.06a1.25,1.25,0,0,1-.5-.06l-.43-.18-.25-.25-.06-.13v-.31a4.44,4.44,0,0,1,.12-.8,6.56,6.56,0,0,1,.68-1.61,17.14,17.14,0,0,1,1.86-2.55,17.52,17.52,0,0,1,2.3-2,8.24,8.24,0,0,1,1.11-.56,2.93,2.93,0,0,1,.69-.06,23.88,23.88,0,0,1,2.85.25L316,99a23,23,0,0,0,2.55.18,11,11,0,0,0,2-.18,6.18,6.18,0,0,0,1.86-.62A5.67,5.67,0,0,0,324.08,97a3.46,3.46,0,0,0,.43-.62l.06-.12a11,11,0,0,0,.56-1.18,4.12,4.12,0,0,0,.12-2.29c-.62-2.67-3.47-3.6-6.2-4.16a11.74,11.74,0,0,0-1.42-.25h-.19a9.69,9.69,0,0,0-1.86-.12h-.87a21.12,21.12,0,0,0-2.29.25h-.07l-.24.06h-.19c-.68.06-1.43.18-2.11.18a12.5,12.5,0,0,1-1.55-.12,3.42,3.42,0,0,1-.87-.37,13,13,0,0,1-1.11-.81,9,9,0,0,1-1.06-1.24c-.12-.25-.25-.49-.37-.81s-.06-.49-.12-.68a6.26,6.26,0,0,1,.12-1,16.12,16.12,0,0,1,1.24-2.92l.19-.31.06-.12a1.53,1.53,0,0,1,.25-.44,10.79,10.79,0,0,0,.8-2.1,18.71,18.71,0,0,0,.44-2.24,11.45,11.45,0,0,0-.19-4.65,6.29,6.29,0,0,0-1.05-2,5.14,5.14,0,0,0-2-1.43,5.24,5.24,0,0,0-2.42-.62,5.58,5.58,0,0,0-1,.12,4.92,4.92,0,0,0-1.61.75,4,4,0,0,0-1.06,1l-.06.12a12.59,12.59,0,0,0-1.55,2.42l-.06.13a11.54,11.54,0,0,1-1.49,2.29c-.12.13-.25.19-.37.31a7.87,7.87,0,0,1-1.74.69,14.45,14.45,0,0,1-3.41.49h-.12a19.1,19.1,0,0,1-4.22-.49A18.49,18.49,0,0,1,281.22,73a16.24,16.24,0,0,1-3.1-2.23,12.35,12.35,0,0,1-1.8-2.17,13,13,0,0,1-.87-1.86c-.06-.31-.12-.62-.19-.93a2.13,2.13,0,0,1,.07-.69c.12-.31.24-.62.37-1a7,7,0,0,0,.49-1.49,4.5,4.5,0,0,0-.74-3.22,9.47,9.47,0,0,0-.56-.81,2.91,2.91,0,0,0-.43-.43l-.19-.13a6.64,6.64,0,0,0-1.49-.8c-.62-.25-1.24-.44-1.55-.56a15.54,15.54,0,0,1-2-.68l-.56-.38c-.12-.18-.31-.37-.5-.62a11.89,11.89,0,0,1-.8-1.79,26.27,26.27,0,0,1-.68-6.21v-.56a25.56,25.56,0,0,0-.25-3.47c-.13-.87-.37-1.74-.62-2.73a14.11,14.11,0,0,0-1.24-3.35,5.83,5.83,0,0,0-.69-1,2.8,2.8,0,0,0-1.42-.81c-.13,0-.25-.06-.37-.06a2.43,2.43,0,0,0-1.68.75,9.61,9.61,0,0,0-1.43,2c-.49.87-.93,1.86-1.3,2.61s-.8,1.67-1.24,2.48a18.65,18.65,0,0,1-2.05,3,4.72,4.72,0,0,1-.86.74A2.1,2.1,0,0,1,253,47h-.06a2.43,2.43,0,0,0-.31.06,1.43,1.43,0,0,1-.5-.06,3.87,3.87,0,0,1-.68-.25c-.37-.25-.75-.49-1.06-.74s-.31-.37-.49-.56a9.42,9.42,0,0,1-.5-1.12c-.18-.62-.25-1.24-.37-1.73v-.31c-.13-.62-.25-1.31-.44-1.93a6.39,6.39,0,0,0-.74-1.86,11.19,11.19,0,0,0-1.55-2.17,17.26,17.26,0,0,0-3.54-3l-.43-.31a24.85,24.85,0,0,1-3.22-2.48,28.79,28.79,0,0,1-3.79-4.9l-.12-.25a20.73,20.73,0,0,0-2.55-3.6,11.39,11.39,0,0,0-1.92-1.61,8.11,8.11,0,0,0-2.6-1.06,11.28,11.28,0,0,0-2.48-.25,19.44,19.44,0,0,0-4.28.56,15.21,15.21,0,0,0-2.67.87,5.93,5.93,0,0,0-.62.31l-.5-.49-.12-.13-.31-.31c-.37-.31-.68-.62-1.06-.93l-.31-.25-.06-.06-.12-.06-.13-.06c-.62-.56-1.24-1.06-1.79-1.62l-.07-.06c-.93-.87-1.92-1.8-3-2.66a16.16,16.16,0,0,0-4.65-2.36,1.66,1.66,0,0,0-.43-.13c-.19-.06-.37-.06-.56-.12l-.12-.06-.19-.06h-.12l.06.06-.68-.25-.38-.12-.49-.13c-.75-.18-1.37-.37-2-.56s-1.24-.37-1.92-.55l-.19-.07-.31-.12-.12-.06a1.72,1.72,0,0,0-1.43-.81h-.31a7.88,7.88,0,0,0-3.66,1.55A4.39,4.39,0,0,0,191.6,13a3.74,3.74,0,0,0,0,1.25v.18a8.46,8.46,0,0,0,.18,1.37v.12l.13.56c.12.74.31,1.49.37,2.29,0,.37-.06.62-.06.87s-.13.31-.19.44-.19.24-.25.37a5.88,5.88,0,0,1-.62.56c-.18.06-.31.18-.49.24h-.13c-.12,0-.18.07-.31.07a1.19,1.19,0,0,1-.49-.07l-.44-.18a4.12,4.12,0,0,1-.56-.44,3.14,3.14,0,0,0-.43-.49,1.69,1.69,0,0,0,.31-.56l.06-.12a2.59,2.59,0,0,0,.25-.87,3.12,3.12,0,0,0,0-1.06,4.76,4.76,0,0,0-1.12-2.17l-.12-.18L187.5,15a.26.26,0,0,0-.06-.13l.06-.06.06-.18a4.57,4.57,0,0,1,.62-.81,22.23,22.23,0,0,1,3-2.42c.38-.25.69-.5,1-.68a15,15,0,0,0,1.86-1.55A5.51,5.51,0,0,0,195.5,7a4,4,0,0,0,.19-1.55A7.3,7.3,0,0,0,195.32,4a4.22,4.22,0,0,0-.75-1.12,9.35,9.35,0,0,0-1.36-1.24,6.64,6.64,0,0,0-1.55-.93,10.31,10.31,0,0,0-1.92-.62,5,5,0,0,0-1-.12,5.49,5.49,0,0,0-1,.06,10.2,10.2,0,0,0-2,.44l-.13.06h-.49a.84.84,0,0,0-.38.06l-.43.06c-.43.06-.81.19-1.12.25-.62.19-1.36.43-2.23.74A39.33,39.33,0,0,0,176.21,4a54.33,54.33,0,0,0-6,4.34,5.61,5.61,0,0,1-.62.38l-.06.06a6.31,6.31,0,0,0-2.11,2,3,3,0,0,0-.31,2.05A9.91,9.91,0,0,0,166.6,14l-.06.12a9.54,9.54,0,0,0-.44,1.61v.13c-.06.18-.06.31-.12.49a15.94,15.94,0,0,1-.56,2.24,11.62,11.62,0,0,1-1.3,2.11v-.07c-.06-.12-.06-.24-.12-.37l-.07-.12-.12-.37-.25-.81c-.31-1-.62-2.05-1-3a9.31,9.31,0,0,0-.81-1.61A18.93,18.93,0,0,0,160,11.85a8.82,8.82,0,0,0-4.16-2.67,8.69,8.69,0,0,0-2.48-.31,10.68,10.68,0,0,0-2,.19l-.38.06h-.87c-.74,0-1.61.06-2.6.12a43.61,43.61,0,0,0-7.88,1.49,25,25,0,0,0-4,1.55,10.8,10.8,0,0,0-3,2.05A6.28,6.28,0,0,0,131.5,16a6,6,0,0,0-.44,2.61c.06.74.25,1.49.37,2.17l.07.31a13.64,13.64,0,0,1,.43,2.35,5,5,0,0,1-.12,1,2.3,2.3,0,0,1-.25.62,11,11,0,0,1-.68.93,8.12,8.12,0,0,1-.81.68,7.79,7.79,0,0,1-1.24.56,8.82,8.82,0,0,1-2.3.31h-.18a33.45,33.45,0,0,1-4.53-.44c-1.12-.18-2-.31-2.85-.37a9.08,9.08,0,0,0-1.24-.06,25.8,25.8,0,0,0-2.86.19,13.37,13.37,0,0,0-3.72,1,13.43,13.43,0,0,0-5.46,5.39,11.29,11.29,0,0,0-1.36,3c-.06.19-.12.37-.19.56a7.49,7.49,0,0,1-.55,1.55,1.76,1.76,0,0,1-.25.31c-.06.06-.19.12-.25.19l-.43.18a6.74,6.74,0,0,1-1.37.19h-.12a9,9,0,0,1-1.8-.13c-.44-.06-.75-.06-1.06-.12a12.23,12.23,0,0,1-2.23-.81,14.66,14.66,0,0,1-1.8-.8l-.12-.06L94,37.21l-.06-.06L93.72,37l-.43-.19a47,47,0,0,0-6.08-2.36,18.07,18.07,0,0,0-3.1-.55h-.37a7.84,7.84,0,0,0-2.67.49,6.21,6.21,0,0,0-2.35,1.8,7.88,7.88,0,0,0-1.37,3.29c-.12.56-.19,1.11-.25,1.42a1.57,1.57,0,0,0,.37,1.12,1.55,1.55,0,0,0,1.06.5h.25a9.07,9.07,0,0,1,1.11-.13,10.46,10.46,0,0,1,1.49.13,5.59,5.59,0,0,1,1.06.43,7.7,7.7,0,0,1,.86.62,9.7,9.7,0,0,1,.69.81,5.63,5.63,0,0,1,.49,1.05,3.84,3.84,0,0,1,.19,1.24A9.67,9.67,0,0,1,84.55,48a9.28,9.28,0,0,1-.44,1.17,7.43,7.43,0,0,1-.74,1,9.21,9.21,0,0,1-1.12.93,10.54,10.54,0,0,1-1.67.74,9.4,9.4,0,0,1-2.61.37h-.19a7.85,7.85,0,0,1-1.24-.06c-.49-.06-.93-.12-1.55-.25a6.33,6.33,0,0,1-1.11-.25l-.25-.06-.25-.06-.25-.06H73l-.31-.06-.31-.07-1-.18a28,28,0,0,0-4-.5h-.8a11,11,0,0,0-1.31.06,8.91,8.91,0,0,0-2,.44,7.18,7.18,0,0,0-1.55.8c-.19.13-.31.25-.56.44a8.5,8.5,0,0,0-.93,1.12,5.32,5.32,0,0,0-.87,1.92,3.27,3.27,0,0,0,.25,1.86,3.5,3.5,0,0,0,1.11,1.36,5.94,5.94,0,0,0,1.31.81l.18.06c.56.25,1.12.5,1.62.75h.06c.43.18.8.31,1.18.49.12.06.18.06.24.13a9.75,9.75,0,0,1,1.24.93,11.36,11.36,0,0,1,1.49,1.67,5.07,5.07,0,0,1,.31.62v.25l-.06.12c-.06.07-.06.13-.12.13a5.59,5.59,0,0,1-.62.49,20.47,20.47,0,0,1-3.79,1.55c-1,.31-2,.56-2.85.81-1.18.31-2.36.68-3.66,1a11.06,11.06,0,0,0-1.3.44,3.49,3.49,0,0,0-.62.25,4.12,4.12,0,0,0-1.12.62,2.76,2.76,0,0,0-.62.62,1.21,1.21,0,0,0-.18.31A4.05,4.05,0,0,0,52.73,72a9.39,9.39,0,0,0-.25,1.24.14.14,0,0,0-.12-.13l-.07-.06A7.64,7.64,0,0,1,51,72c-.43-.37-.87-.68-1.3-1a9.64,9.64,0,0,0-1.06-.62A5,5,0,0,0,47.39,70a2.81,2.81,0,0,0-.68-.06,6.83,6.83,0,0,0-2.29.5,4.93,4.93,0,0,0-.87.37l-.06.06c-.19.12-.38.25-.5.31l-.37.37-.13.19a2.37,2.37,0,0,0-.43.87l-.06.12a2.44,2.44,0,0,0-.13.56,2.66,2.66,0,0,0,.07.74,5.12,5.12,0,0,0,.68,1.68,11,11,0,0,1,.68,1.11l.12.13.25.37c.25.43.44.87.62,1.24,0,.12.06.31.06.43a8.58,8.58,0,0,1-.12,1.18,14.42,14.42,0,0,1-1.24,3c-.37.68-.81,1.43-1.3,2.17-.06-.06-.13-.06-.25-.06l-.31-.06-.25-.06-.25-.07L40.45,85a3.26,3.26,0,0,0-.75-.12c-.18-.06-.43-.06-.62-.13H39c-.31-.06-.56-.06-.87-.12s-.31-.12-.56-.19a5.63,5.63,0,0,1-1.11-.86l-.07-.07a7.09,7.09,0,0,0-1.73-1.17,1.31,1.31,0,0,0-.69-.13,2.23,2.23,0,0,0-1.17.37,1.88,1.88,0,0,0-.56.81l-.06.06a2.55,2.55,0,0,0-.31,1l-.07.25a7,7,0,0,0-.06,2.48,6.36,6.36,0,0,0,.93,2,7.12,7.12,0,0,0,1.24,1.49c.37.37.75.68,1.12,1.05l.37.38a10,10,0,0,1,1.49,1.67,3.8,3.8,0,0,1,.37.87,5.62,5.62,0,0,1,.13.8,1.08,1.08,0,0,1-.07.5,12.74,12.74,0,0,1-.74,1.68l-.06.18c-.87,1.61-1.92,3.23-3.17,5.15-.31.43-.62.93-1.05,1.49l-.06.06-.44.62-.24.37-.13.19-.06.06-.25.37-.25.37-.12.19-.37-.19-.5-.18c-.43-.19-.93-.31-1.36-.5l-.13-.06c-.31-.12-.56-.19-.74-.25a19.63,19.63,0,0,1-1.8-1.3l-.06-.06c-.62-.44-1.12-.81-1.61-1.12s-.81-.43-1.25-.68a10.47,10.47,0,0,0-1.3-.44,5.65,5.65,0,0,0-.93-.12,4.64,4.64,0,0,0-1.8.37,4.42,4.42,0,0,0-1.11.75,5.61,5.61,0,0,0-.81.93,6.51,6.51,0,0,0-.5.93,4.27,4.27,0,0,0-.24.8l-.07.31a5.27,5.27,0,0,0-.06,1.68,6.72,6.72,0,0,0,.5,1.8,8.94,8.94,0,0,0,.68,1.36,17,17,0,0,0,1.3,1.86,31,31,0,0,0,2.86,3c1.42,1.36,3,2.73,4.09,3.6l.12.12c.93.81,1.86,1.61,2.73,2.42.25.25.56.5.81.74a17.45,17.45,0,0,1,2.91,3.29,5.92,5.92,0,0,1,.44.87c0,.12.06.19.06.31a4.94,4.94,0,0,1-.12.93l-.19.56-.12.12a1.27,1.27,0,0,1-.44.06,15.83,15.83,0,0,1-2.85-.43h-.06l-.25-.06L28,128c-.87-.18-1.49-.24-2.05-.31h-.62c-.49,0-.93.07-1.36.07h-.31a35.62,35.62,0,0,0-4.53.74,32.56,32.56,0,0,0-5.27,1.74,22.43,22.43,0,0,0-4.65,2.66c-.68.56-1.3,1.18-1.86,1.74a10,10,0,0,0-1.43,2.17,7.11,7.11,0,0,0-.68,2.3,4.55,4.55,0,0,0,.31,2.79,3.51,3.51,0,0,0,1.86,1.67,6.87,6.87,0,0,0,2,.37,5,5,0,0,1,1,.13.51.51,0,0,1,.31.12c.06.06.12.06.18.13l.19.18a3.5,3.5,0,0,1,.25.62,4.34,4.34,0,0,1,.12.87,6.14,6.14,0,0,1-.25,1.8,30.46,30.46,0,0,1-1.86,4.9l-.31.74a38.75,38.75,0,0,0-2.23,6.45A12.42,12.42,0,0,0,6.58,163,5.07,5.07,0,0,0,7,164.55a4,4,0,0,0,.74,1.3A8,8,0,0,0,9,167.34l.37.37a18.3,18.3,0,0,1,1.68,1.92,2.75,2.75,0,0,1,.25.56v.37c0,.06-.07.13-.07.19s-.18.31-.31.43a1.2,1.2,0,0,1-.31.25c-.06.06-.12.06-.18.12h-.25a4.41,4.41,0,0,1-.81-.12c-.43-.12-.8-.25-1.24-.37L8,171l-.56-.19A13.43,13.43,0,0,0,6,170.44a4.85,4.85,0,0,0-.93-.06H4.54A4.29,4.29,0,0,0,2,171.49a12.49,12.49,0,0,0-1.11,1.3,6.38,6.38,0,0,0-.69,1.43A6.22,6.22,0,0,0,.13,177,11.81,11.81,0,0,0,1.19,180Z" style="fill:#eaeaea"/></svg>