<svg xmlns="http://www.w3.org/2000/svg" width="100%" height="100%" fill="current">
  <path id="iconmonstr-github-1" d="M25.924,0A25.926,25.926,0,0,0,17.73,50.523c1.294.24,1.713-.564,1.713-1.246V44.45c-7.211,1.568-8.713-3.059-8.713-3.059-1.18-3-2.88-3.794-2.88-3.794-2.353-1.609.179-1.575.179-1.575A5.442,5.442,0,0,1,12,38.7c2.312,3.962,6.064,2.817,7.544,2.154a5.5,5.5,0,0,1,1.646-3.465c-5.757-.659-11.81-2.882-11.81-12.813a10.034,10.034,0,0,1,2.67-6.958,9.324,9.324,0,0,1,.253-6.861s2.178-.7,7.131,2.657a24.571,24.571,0,0,1,12.981,0c4.949-3.353,7.123-2.657,7.123-2.657a9.316,9.316,0,0,1,.255,6.861,10.007,10.007,0,0,1,2.668,6.958c0,9.957-6.064,12.15-11.836,12.791a6.2,6.2,0,0,1,1.778,4.8v7.114c0,.689.415,1.5,1.73,1.244A25.929,25.929,0,0,0,25.924,0Z" />
</svg>
