<svg xmlns="http://www.w3.org/2000/svg" xmlns:xlink="http://www.w3.org/1999/xlink" width="212.54" height="30.895" viewBox="0 0 212.54 30.895">
  <defs>
    <clipPath id="clip-path">
      <rect id="Rectangle_17" data-name="Rectangle 17" width="212.54" height="30.895" fill="none"/>
    </clipPath>
  </defs>
  <g id="Group_18" data-name="Group 18" style="mix-blend-mode: luminosity;isolation: isolate">
    <g id="Group_2" data-name="Group 2">
      <g id="Group_1" data-name="Group 1" clip-path="url(#clip-path)">
        <path id="Path_2" data-name="Path 2" d="M83.88,221.563V210.806c0-6.179,1.973-10.087,8.6-10.087,6.178,0,8.151,3.424,8.151,8.672v2.532H95.344v-2.6c0-2.532-.036-4.579-2.829-4.579-2.828,0-3.089,2.159-3.089,4.914v13.065c0,3.276.671,4.839,3.089,4.839,2.718,0,2.829-2.122,2.829-4.8v-2.717h5.286v2.419c0,5.323-1.786,9.156-8.151,9.156-6.626,0-8.6-4.168-8.6-10.05" transform="translate(-83.88 -200.719)" fill="#eaeaea"/>
        <path id="Path_3" data-name="Path 3" d="M101.227,200.988H106.7V213.57h6.142V200.988h5.509v30.15H112.84V217.515H106.7v13.623h-5.471Z" transform="translate(-79.637 -200.653)" fill="#eaeaea"/>
        <path id="Path_4" data-name="Path 4" d="M119.44,200.988H126.7c6.03,0,9.455,1.937,9.455,8,0,3.611-.894,6.142-3.723,7.3l4.207,14.852h-5.51l-3.611-13.81h-2.6v13.81H119.44Zm7.22,12.916c3.165,0,4.319-1.377,4.319-4.615,0-3.053-.858-4.542-4.021-4.542h-2.046V213.9Z" transform="translate(-75.182 -200.653)" fill="#eaeaea"/>
        <rect id="Rectangle_16" data-name="Rectangle 16" width="5.434" height="30.15" transform="translate(66.219 0.335)" fill="#eaeaea"/>
        <path id="Path_5" data-name="Path 5" d="M145.34,222.42l4.727-.931c.148,3.574,1,5.882,3.425,5.882,1.749,0,2.493-1.191,2.493-2.829,0-2.606-1.339-4.057-3.312-5.77l-3.8-3.313a8.9,8.9,0,0,1-3.5-7.3c0-4.764,2.978-7.444,7.78-7.444,5.658,0,7.258,3.8,7.557,8.189l-4.728.819c-.111-2.829-.52-4.951-2.941-4.951a2.527,2.527,0,0,0-2.53,2.829c0,2.047.856,3.164,2.457,4.542l3.759,3.312c2.457,2.122,4.505,4.764,4.505,8.748,0,4.355-3.054,7.407-7.557,7.407-5.51,0-8.115-3.2-8.338-9.194" transform="translate(-68.847 -200.719)" fill="#eaeaea"/>
        <path id="Path_6" data-name="Path 6" d="M164.825,205.046h-4.8v-4.057h15v4.057h-4.69v26.093h-5.509Z" transform="translate(-65.256 -200.653)" fill="#eaeaea"/>
        <path id="Path_7" data-name="Path 7" d="M174.529,221.75V210.434c0-6.1,2.233-9.715,8.71-9.715,6.438,0,8.672,3.611,8.672,9.715V221.75c0,6.066-2.234,9.863-8.672,9.863-6.514,0-8.71-3.76-8.71-9.863m11.8,1.3V209.169c0-2.532-.409-4.43-3.089-4.43s-3.126,1.9-3.126,4.43v13.883c0,2.494.409,4.5,3.126,4.5,2.68,0,3.089-2.01,3.089-4.5" transform="translate(-61.708 -200.719)" fill="#eaeaea"/>
        <path id="Path_8" data-name="Path 8" d="M192.5,200.988h8.86c5.4,0,7.7,3.128,7.7,8.562,0,5.918-3.2,8.188-8.076,8.188h-3.014v13.4H192.5Zm7.594,12.879c3.014,0,3.795-1.154,3.795-4.355,0-3.238-.408-4.654-3.795-4.654h-2.122v9.008Z" transform="translate(-57.311 -200.653)" fill="#eaeaea"/>
        <path id="Path_9" data-name="Path 9" d="M209.071,200.988h5.471V213.57h6.142V200.988h5.51v30.15h-5.51V217.515h-6.142v13.623h-5.471Z" transform="translate(-53.259 -200.653)" fill="#eaeaea"/>
        <path id="Path_10" data-name="Path 10" d="M227.285,200.988h12.656v3.871h-7.185v8.674h5.658v3.833h-5.658V227.38h7.26v3.759H227.285Z" transform="translate(-48.804 -200.653)" fill="#eaeaea"/>
        <path id="Path_11" data-name="Path 11" d="M240.833,200.988h7.258c6.03,0,9.455,1.937,9.455,8,0,3.611-.894,6.142-3.723,7.3l4.207,14.852h-5.51l-3.611-13.81h-2.6v13.81h-5.472Zm7.221,12.916c3.164,0,4.319-1.377,4.319-4.615,0-3.053-.856-4.542-4.021-4.542h-2.046V213.9Z" transform="translate(-45.49 -200.653)" fill="#eaeaea"/>
      </g>
    </g>
  </g>
</svg>
