<svg xmlns="http://www.w3.org/2000/svg" xmlns:xlink="http://www.w3.org/1999/xlink" width="431.296" height="720.809" viewBox="0 0 431.296 720.809">
  <defs>
    <clipPath id="clip-path">
      <rect id="Rectangle_17" data-name="Rectangle 17" width="212.54" height="30.895" fill="none"/>
    </clipPath>
  </defs>
  <g id="Group_26" data-name="Group 26" transform="translate(-744.352 -262.055)">
    <g id="Group_18" data-name="Group 18" transform="translate(848.748 502.747)" style="mix-blend-mode: luminosity;isolation: isolate">
      <g id="Group_2" data-name="Group 2">
        <g id="Group_1" data-name="Group 1" clip-path="url(#clip-path)">
          <path id="Path_2" data-name="Path 2" d="M83.88,221.563V210.806c0-6.179,1.973-10.087,8.6-10.087,6.178,0,8.151,3.424,8.151,8.672v2.532H95.344v-2.6c0-2.532-.036-4.579-2.829-4.579-2.828,0-3.089,2.159-3.089,4.914v13.065c0,3.276.671,4.839,3.089,4.839,2.718,0,2.829-2.122,2.829-4.8v-2.717h5.286v2.419c0,5.323-1.786,9.156-8.151,9.156-6.626,0-8.6-4.168-8.6-10.05" transform="translate(-83.88 -200.719)" fill="#eaeaea"/>
          <path id="Path_3" data-name="Path 3" d="M101.227,200.988H106.7V213.57h6.142V200.988h5.509v30.15H112.84V217.515H106.7v13.623h-5.471Z" transform="translate(-79.637 -200.653)" fill="#eaeaea"/>
          <path id="Path_4" data-name="Path 4" d="M119.44,200.988H126.7c6.03,0,9.455,1.937,9.455,8,0,3.611-.894,6.142-3.723,7.3l4.207,14.852h-5.51l-3.611-13.81h-2.6v13.81H119.44Zm7.22,12.916c3.165,0,4.319-1.377,4.319-4.615,0-3.053-.858-4.542-4.021-4.542h-2.046V213.9Z" transform="translate(-75.182 -200.653)" fill="#eaeaea"/>
          <rect id="Rectangle_16" data-name="Rectangle 16" width="5.434" height="30.15" transform="translate(66.219 0.335)" fill="#eaeaea"/>
          <path id="Path_5" data-name="Path 5" d="M145.34,222.42l4.727-.931c.148,3.574,1,5.882,3.425,5.882,1.749,0,2.493-1.191,2.493-2.829,0-2.606-1.339-4.057-3.312-5.77l-3.8-3.313a8.9,8.9,0,0,1-3.5-7.3c0-4.764,2.978-7.444,7.78-7.444,5.658,0,7.258,3.8,7.557,8.189l-4.728.819c-.111-2.829-.52-4.951-2.941-4.951a2.527,2.527,0,0,0-2.53,2.829c0,2.047.856,3.164,2.457,4.542l3.759,3.312c2.457,2.122,4.505,4.764,4.505,8.748,0,4.355-3.054,7.407-7.557,7.407-5.51,0-8.115-3.2-8.338-9.194" transform="translate(-68.847 -200.719)" fill="#eaeaea"/>
          <path id="Path_6" data-name="Path 6" d="M164.825,205.046h-4.8v-4.057h15v4.057h-4.69v26.093h-5.509Z" transform="translate(-65.256 -200.653)" fill="#eaeaea"/>
          <path id="Path_7" data-name="Path 7" d="M174.529,221.75V210.434c0-6.1,2.233-9.715,8.71-9.715,6.438,0,8.672,3.611,8.672,9.715V221.75c0,6.066-2.234,9.863-8.672,9.863-6.514,0-8.71-3.76-8.71-9.863m11.8,1.3V209.169c0-2.532-.409-4.43-3.089-4.43s-3.126,1.9-3.126,4.43v13.883c0,2.494.409,4.5,3.126,4.5,2.68,0,3.089-2.01,3.089-4.5" transform="translate(-61.708 -200.719)" fill="#eaeaea"/>
          <path id="Path_8" data-name="Path 8" d="M192.5,200.988h8.86c5.4,0,7.7,3.128,7.7,8.562,0,5.918-3.2,8.188-8.076,8.188h-3.014v13.4H192.5Zm7.594,12.879c3.014,0,3.795-1.154,3.795-4.355,0-3.238-.408-4.654-3.795-4.654h-2.122v9.008Z" transform="translate(-57.311 -200.653)" fill="#eaeaea"/>
          <path id="Path_9" data-name="Path 9" d="M209.071,200.988h5.471V213.57h6.142V200.988h5.51v30.15h-5.51V217.515h-6.142v13.623h-5.471Z" transform="translate(-53.259 -200.653)" fill="#eaeaea"/>
          <path id="Path_10" data-name="Path 10" d="M227.285,200.988h12.656v3.871h-7.185v8.674h5.658v3.833h-5.658V227.38h7.26v3.759H227.285Z" transform="translate(-48.804 -200.653)" fill="#eaeaea"/>
          <path id="Path_11" data-name="Path 11" d="M240.833,200.988h7.258c6.03,0,9.455,1.937,9.455,8,0,3.611-.894,6.142-3.723,7.3l4.207,14.852h-5.51l-3.611-13.81h-2.6v13.81h-5.472Zm7.221,12.916c3.164,0,4.319-1.377,4.319-4.615,0-3.053-.856-4.542-4.021-4.542h-2.046V213.9Z" transform="translate(-45.49 -200.653)" fill="#eaeaea"/>
        </g>
      </g>
    </g>
    <text id="DESIGNER_-_DEVELOPER_-_ANIMATOR" data-name="DESIGNER - DEVELOPER - ANIMATOR" transform="translate(803.329 743.196)" fill="#eaeaea" font-size="19" font-family="Oswald-Light, Oswald" font-weight="300"><tspan x="0" y="0" letter-spacing="0.099em">D</tspan><tspan y="0" letter-spacing="0.1em">ESI</tspan><tspan y="0" letter-spacing="0.099em">G</tspan><tspan y="0" letter-spacing="0.1em">N</tspan><tspan y="0" letter-spacing="0.099em">ER</tspan><tspan y="0" letter-spacing="0.1em"> </tspan><tspan y="0" letter-spacing="0.099em">-</tspan><tspan y="0" letter-spacing="0.1em"> </tspan><tspan y="0" letter-spacing="0.099em">DE</tspan><tspan y="0" letter-spacing="0.1em">V</tspan><tspan y="0" letter-spacing="0.099em">E</tspan><tspan y="0" letter-spacing="0.096em">L</tspan><tspan y="0" letter-spacing="0.1em">OPER - ANIM</tspan><tspan y="0" letter-spacing="0.063em">A</tspan><tspan y="0" letter-spacing="0.1em">TO</tspan><tspan y="0">R</tspan></text>
    <rect id="Rectangle_27" data-name="Rectangle 27" width="315.814" height="23.077" transform="translate(797.39 720.196)" fill="none"/>
    <path id="Path_34" data-name="Path 34" d="M95.8,345.025V285.256c0-33.161,12.007-52.62,47.827-52.62,36.02,0,48.222,19.459,48.222,52.62v59.769c0,33.162-12.2,53.02-48.222,53.02-35.821,0-47.827-19.858-47.827-53.02m60.031,8.936V276.519c0-9.531-1.18-18.863-12.2-18.863-10.431,0-11.809,9.332-11.809,18.863v77.442c0,9.135.788,18.864,11.809,18.864s12.2-9.729,12.2-18.864" transform="translate(767.783 312.683)" fill="#eaeaea" style="mix-blend-mode: luminosity;isolation: isolate"/>
    <path id="Path_35" data-name="Path 35" d="M167.908,234.39h29.918l9.448,93.725,12.005-93.526H242.7l12.6,92.93,9.643-93.129h29.524L275.374,395.232h-30.7l-13.581-97.1-12.794,97.1H187.2Z" transform="translate(785.421 313.112)" fill="#eaeaea" style="mix-blend-mode: luminosity;isolation: isolate"/>
    <path id="Path_36" data-name="Path 36" d="M266.269,234.39h71.644v24.226H301.5v39.913h27.751v24.622H301.5v48.055h36.805v24.026H266.269Z" transform="translate(809.479 313.112)" fill="#eaeaea" style="mix-blend-mode: luminosity;isolation: isolate"/>
    <rect id="Rectangle_26" data-name="Rectangle 26" width="373.161" height="165.409" transform="translate(774.623 543.109)" fill="none"/>
    <g id="Group_17" data-name="Group 17" transform="translate(-474.309 -6.017)">
      <path id="Path_17" data-name="Path 17" d="M144.339,475.385a1,1,0,1,0-1,1,1.021,1.021,0,0,0,1-1" transform="translate(1240.165 377.56)" fill="#eaeaea"/>
      <path id="Path_18" data-name="Path 18" d="M209.621,413.227a32.98,32.98,0,0,0,6.176-.772,6.548,6.548,0,0,0,2.006-.849,5.31,5.31,0,0,0,1.467-1.467,2.878,2.878,0,0,0,.158-.292c1.563-.166,3.1-.194,4.652-.249-1.171.51-2.335,1.036-3.5,1.545-2.7,1.236-5.48,2.316-8.259,3.4-2.085.773-4.168,1.545-6.253,2.162l-3.242.926c-.926.231-1.853.463-2.856.7a45.059,45.059,0,0,1-10.19.309,146.627,146.627,0,0,1-16.288-2.7,125.765,125.765,0,0,0-17.754-2.471h-.694c6.021.926,11.811,2.934,17.523,4.864,5.327,1.775,10.652,3.628,16.288,4.4a32.188,32.188,0,0,0,17.291-1.93,126.623,126.623,0,0,0,16.442-7.565c1.235-.694,2.392-1.312,3.628-2.008,1.157-.617,2.393-1.235,3.628-1.775-.077,0-.154.077-.231.077,3.272-1.522,6.674-2.9,9.958-4.5h-3.055c-.683.244-1.369.477-2.054.714a4.8,4.8,0,0,0,.325-.714h-1.33a1.21,1.21,0,0,1-.215.329,9.254,9.254,0,0,1-.849.926c-.188.146-.392.259-.589.385-1.25.431-2.5.862-3.735,1.313q-.965.353-1.919.743c-.055.01-.109.021-.164.03-2.173.35-4.346.585-6.519,1.027a4.359,4.359,0,0,0,.421-2.34,8.448,8.448,0,0,0-.423-2.412h-.453c0,.387-.016.774-.05,1.177v-.077a7.8,7.8,0,0,1-.386,1.93,3.6,3.6,0,0,1-.386.772c-.156.154-.233.309-.387.463a1.686,1.686,0,0,1-.386.231,6.424,6.424,0,0,1-1.157.309,22.9,22.9,0,0,1-3.242.232,48.948,48.948,0,0,0-5.79.54c-4.245.694-8.491,1.545-12.813,1.236h.077a12.79,12.79,0,0,1-1.7-.231,24.265,24.265,0,0,0,8.182,1.775,64.7,64.7,0,0,0,8.646-.154" transform="translate(1243.275 360.595)" fill="#eaeaea"/>
      <path id="Path_19" data-name="Path 19" d="M153.532,412.764a14.842,14.842,0,0,0,4.863.694,20.046,20.046,0,0,0,8.5-2.06,4.632,4.632,0,0,0,2.544,2.523,15.577,15.577,0,0,0,4.94,1.313A40.264,40.264,0,0,0,184.487,415a36.464,36.464,0,0,0,6.484-1,5.1,5.1,0,0,0,2.239-1.543,4.773,4.773,0,0,0,1-3.088c-.077.231-.154.54-.231.772a4.255,4.255,0,0,1-.617,1.159,4.924,4.924,0,0,1-.619.694,2.055,2.055,0,0,1-.772.463,9.324,9.324,0,0,1-1.389.386,23.9,23.9,0,0,1-3.319.154h-1.313a36.681,36.681,0,0,0-4.091.386,55.032,55.032,0,0,1-9.417.463h.154a12.567,12.567,0,0,1-3.319-.617,4.3,4.3,0,0,1-1.313-.694,2.661,2.661,0,0,1-.694-.617l-.352-.529c.063-.034.134-.055.2-.088a1.9,1.9,0,0,1-.22.055c-.03-.045-.058-.088-.088-.132.015.05.046.088.063.138a2.8,2.8,0,0,0-.372.093,23.482,23.482,0,0,1-5.713.232,20.577,20.577,0,0,1-5.248-1.159,14.74,14.74,0,0,1-3.474-1.775,6.235,6.235,0,0,1-1.467-1.39,10.6,10.6,0,0,1-1-1.543c-.095-.253-.188-.523-.278-.792h-1.634c0,.162-.025.32-.019.483a7.458,7.458,0,0,0,1.622,4.322,9.583,9.583,0,0,0,4.245,2.934" transform="translate(1241.469 360.595)" fill="#eaeaea"/>
      <path id="Path_20" data-name="Path 20" d="M197.594,472.5c1.466-3.859,3.319-7.565,5.1-11.424a112.525,112.525,0,0,1,5.248-11.194,25.242,25.242,0,0,0-7.8,9.958,31.185,31.185,0,0,0-2.548,12.66" transform="translate(1253.682 371.567)" fill="#eaeaea"/>
      <path id="Path_21" data-name="Path 21" d="M386.6,405.044c-.077.619-.154,1.159-.232,1.776l-.077.54v.154l-.231,1.545c-.154,1.389-.464,2.778-.617,3.859l-.078.386a6,6,0,0,1-.154,1.235c.077-1.929.077-4.014,0-6.484v-1.08c.213-.665.4-1.306.592-1.949H314.852l.109.714.309,1.852-.077.694.154-.309v.463l.154.927.077.772c-.077,1.235-.077,2.625-.077,3.937-.077-.386-.154-.849-.231-1.312a10.217,10.217,0,0,0-.154,2.315,18.034,18.034,0,0,0,.54,3.474v1.082l-.463,1.466-.309,1v-.309c-.612-3.9-1.223-7.959-1.459-12.092.148.451.227.83.378,1.209l.077-.232a2.774,2.774,0,0,0-.154-.849v-.154a10.965,10.965,0,0,0-.386-1.7c0-.077-.078-.154-.232-.154a.246.246,0,0,0-.233.231,66.953,66.953,0,0,0,.619,15.439,42.218,42.218,0,0,0-1.159-4.168c-.154.849-.231,1.62-.309,2.161v.077a86.92,86.92,0,0,0-.463,10.575l-.077.309a10.861,10.861,0,0,0-.077-1.62c-.231-2.239-.54-4.554-.772-6.1-.077-.386-.077-.772-.154-1.08l-.077-.463v-.232a3.524,3.524,0,0,0-.386,1.08c-.387,1.312-.7,2.856-1.082,4.554a108.322,108.322,0,0,0-1.621,11.348c-.077.617-.077,1.312-.154,1.929q-.463,2.317-.694,4.631c-.85,1.622-1.7,3.4-2.625,5.172l.077-.463V448.2c-.231.463-.386,1-.619,1.466-.617,1.776-1.235,3.861-1.852,6.1-1.389,2.393-2.856,4.941-4.477,7.719l.077-.309a17.55,17.55,0,0,0-.077-1.852l.154-.077.463-.386h-.154c-.154.077-.309.231-.54.386v-.695a29.505,29.505,0,0,0-.619-4.247l-.231.773-.154.849-.077.309v.154l-.077.54-.077.463-.154.849-.463,2.779a42.644,42.644,0,0,0-8.955,13.123l-.463.617.077-.231v-1.466l-.154.231-.232.694v.154l-.077.309c-.154.463-.309,1-.463,1.545-2.7,3.4-5.4,6.947-7.179,9.339l-.232.309-.154.232-.463.619a1.455,1.455,0,0,0,.154-.619c.077-.849.154-1.775.231-3.087,0-.85.077-1.7.077-2.548l-.386.849c-.231.695-.463,1.312-.694,2.008l-.154.386-.156.309-.154.386-.077.232-.077.309-.154.463c-.694,1.93-1.312,3.937-2.006,5.867l-.694.926-1.467,2.008-.54-.617c-.463-.463-.926-1-1.389-1.467l.232-.232c.926-1.312,2.934-4.014,4.94-6.407a2.771,2.771,0,0,0-.772.54c-.849.7-1.7,1.545-2.7,2.548-1.7,1.7-3.319,3.551-4.863,5.4a21.839,21.839,0,0,0-2.393-.54,11.609,11.609,0,0,0-2.239-.232h.077l.077-.077.077-.156c.773-.849,1.39-1.62,1.93-2.315a2.709,2.709,0,0,0-.617.386c-.772.54-1.545,1.235-2.548,2.085h-.617a18.938,18.938,0,0,0-2.085.154,9.156,9.156,0,0,0-3.089.872l-.076-.024.062.031c-.178.09-.36.175-.525.278l-.231-.077-.694-.231.154-.077a22.5,22.5,0,0,0,1.776-2.316,3.717,3.717,0,0,0-.541.231c-.54.386-1,.772-1.543,1.159l-.386.309-.7.54-.232.154c-.54.386-1.08.849-1.62,1.235l-.077-.231a35.212,35.212,0,0,0-2.625-3.551c-.077.077,0,.231,0,.309a2.764,2.764,0,0,0,.309.849l.077.156c-.081.032-.183.086-.273.126l.118.414a9.672,9.672,0,0,1,.927,2.006H248.5l-.541-.154c-.386-.386-.772-.849-1.157-1.235l-.414-.414-.049.029-.54-.617-.077-.077a67.558,67.558,0,0,1-4.632-5.327,7.518,7.518,0,0,0,.231,1.543,15.642,15.642,0,0,0,2.471,5.4l-.309-.154-.54-.154-.232-.077c-.54-.154-1.157-.309-1.7-.463-.617-.849-1.389-1.776-2.238-2.779a1.145,1.145,0,0,0,.077.54c.231.617.463,1.235.54,1.545l-.386-.31-.54-.309-.541-.309L237,493.43l-.232-.54-.309-.54-.077.231v.309l-.154-.309-.154-.231-.309-.309a1.614,1.614,0,0,1-.309-.463,5.412,5.412,0,0,0-.617-.773l-.077-.154a.584.584,0,0,0-.077.309,11.468,11.468,0,0,0,.309,1.39l-.154-.154c-.233-.154-.387-.232-.619-.386v-.54h-.077a.585.585,0,0,0-.154.309V491.5l-.154-.154c-.154.154,0,.309.077.463a1.5,1.5,0,0,0-.077.617l-.463-.309a33.934,33.934,0,0,1-3.242-2.162c-.154-.154-.386-.309-.54-.463a10.448,10.448,0,0,1-2.085-2.471l.387-1.157.232-.617a2.37,2.37,0,0,0-.619.617c-.849,1-1.7,2.162-2.546,3.319v-.077l-.077-.154c-.077-.154-.077-.232-.154-.386a6.9,6.9,0,0,1-.541-2.085V486.1a2.175,2.175,0,0,0-.309.849,6.612,6.612,0,0,0,.077,3.242l-.231-.154c-.463-.154-.926-.309-1.312-.463a14.137,14.137,0,0,0,.54-1.312l.077-.077.077-.077-.154-.077.077-.231c.077-.231.463-1.467,1.157-3.859l-.309.309a12.217,12.217,0,0,0-1.235,1.7,2.454,2.454,0,0,0,.232-.694,14.46,14.46,0,0,0,.309-3.242l.077.232.232.231a7.917,7.917,0,0,0,.309,1.08l.154-.232c.154-.54.231-.926.387-1.312a20.091,20.091,0,0,1,1.7-3.165l.154-.232c-.077.154-.077.386-.154.54a12.4,12.4,0,0,0,0,2.393l.154-.077.077-.077.077-.154a35.414,35.414,0,0,1,2.856-5.944c.309-.54.54-1,.849-1.543.54-.7,1-1.313,1.545-2.008,1.312-1.776,2.778-3.782,4.4-6.176l.154-.154a15.583,15.583,0,0,1,2.008-1.389,2.741,2.741,0,0,0,.694-.309,6.953,6.953,0,0,0-.694.772,22.514,22.514,0,0,0-2.625,4.245,24.451,24.451,0,0,0-2.162,7.256l.386-.463q.463-.81.927-1.62l.231-.386.077-.077c.617-1.082,1.389-2.471,2.083-3.861a46.035,46.035,0,0,0,2.471-6.02h.231l.231-.077c.231,0,.463-.077.772-.077-.077-.077-.154-.154-.231-.154-.232-.077-.54-.154-.849-.231l.077-.154.077-.233H239.7l-.154.077-.154.233h-.231a7.925,7.925,0,0,0-2.7-.464,10.528,10.528,0,0,0-6.484,2.393l.154-.154.077-.154.154-.231.694-1.158c-.076,0-.154.077-.232.077a5.532,5.532,0,0,0-1.157.849l.077-.309a14.308,14.308,0,0,0,.077-1.93h.077l.154-.077a95.512,95.512,0,0,0,12.583-2.548A87.147,87.147,0,0,0,266.1,449.2a82.731,82.731,0,0,0,11.038-8.182,78.482,78.482,0,0,0,9.341-9.649,62.406,62.406,0,0,0,5.4-7.719,60.215,60.215,0,0,0,4.091-8.028c1.313-3.165,2.316-6.484,3.319-9.727v-.309l.077-.309V405.2c.019-.055.039-.118.056-.174h-2.675l-.238.56-.076.077-.078.231-.153.154c-.85,2.008-1.93,4.4-3.012,6.716a70.915,70.915,0,0,1-5.326,9.032,91.862,91.862,0,0,1-15.516,16.75,81.412,81.412,0,0,1-16.751,10.5,93.094,93.094,0,0,1-21.536,6.716,85.685,85.685,0,0,1-15.284,1.313c-2.239,0-4.4-.077-6.407-.231a68.845,68.845,0,0,1-17.291-3.705,33.723,33.723,0,0,1-4.94-2.162,46.75,46.75,0,0,1-4.555-2.7,65.137,65.137,0,0,1-11.115-10.807l-.386-.386-.54-.617-.154-.154c-.309-.386-.54-.695-.85-1.082-2.083-2.7-4.168-5.634-5.557-7.565-1.157-1.621-2.316-3.319-3.474-5.017a62.921,62.921,0,0,0-4.477-5.867c-1.082-1.312-2.162-2.7-2.934-3.705-.541-.617-1-1.312-1.467-1.929l-.231-.233-.077-.154-.154-.154c-.386-.54-.694-1-1-1.466l-.772-1-.077-.077-.077-.077-.078-.077-.154-.154c-.617-.773-1.235-1.7-1.852-2.548-.04-.06-.073-.116-.113-.174h-.427c.524,1,1.083,1.979,1.7,2.953.54.926,1.082,1.852,1.622,2.855l.231.386c.309.541.54,1,.849,1.545.54.926,1.08,1.853,1.7,2.779.386.694.849,1.312,1.235,2.006.309.463.54,1,.849,1.467l.077.154.309.617.077.077.077.154c.386.695.773,1.466,1.159,2.239l.463,1.157.077.154c.154.463.386.926.54,1.312a28.653,28.653,0,0,0,1.235,2.7c1,2.239,1.853,4.014,2.779,5.635a73.092,73.092,0,0,0,6.484,10.267,47.941,47.941,0,0,0,8.8,8.876,36.636,36.636,0,0,0,5.48,3.552,37.154,37.154,0,0,0,6.1,2.546,80.184,80.184,0,0,0,25.319,4.245h.927c.731,0,1.609,0,2.553-.039a.633.633,0,0,1,.071-.27c2.085,0,4.324-.232,6.793-.463a5.914,5.914,0,0,0-1.312.386,10.85,10.85,0,0,0-4.785,3.551,8.652,8.652,0,0,1-.606-1.617,7.269,7.269,0,0,0,.529,3.316,12.319,12.319,0,0,0-.927,2.548,6.807,6.807,0,0,0-1.08-1.39,34.848,34.848,0,0,0-6.87-5.171l-.926-.54v-.077l.077.077h.463a1.313,1.313,0,0,0,.54-.077.239.239,0,0,0-.154-.077h-.154a1.1,1.1,0,0,1-.463-.156l-.154-.077h-.154a.283.283,0,0,0-.231.077c-.077.077-.154.233-.077.31,0,.309.386.617.617.849.077.077.154.077.154.154,1.08,1.08,2.162,2.006,3.165,2.856a.833.833,0,0,0-.54-.231l-.154-.077a13.284,13.284,0,0,0-6.949-2.779l.078.154c.077.077.154.077.232.154l.077.077.077.077.077.077.386.231c.154.077.309.232.54.386l-.463-.232a14.349,14.349,0,0,0-2.625-.463l.386.463.231.232.077.077c.54.463,1.082.926,1.622,1.467h-.154a4.039,4.039,0,0,0-1.236.463l.077.077c.154,0,.231.077.386.077h.156a2.829,2.829,0,0,1,.35.031c-.1-.118-.172-.217-.273-.34.154.077.231.154.309.154l.231.077.174.174.289.057c.032.1.073.209.11.312l.585.536a3.07,3.07,0,0,0,0,.849c-.046-.062-.1-.136-.153-.2.306.8.661,1.664,1.079,2.593.231.463.386.926.619,1.389q.23,1.391.694,3.242a29.55,29.55,0,0,0,.849,3.088l.077.309.077.231v.231l.077.154a47.69,47.69,0,0,1,1.235,5.018v.309a11.04,11.04,0,0,0,.309-2.008,27.466,27.466,0,0,0-.54-7.487,42.593,42.593,0,0,0-2.161-6.484l.077.154,1.157,1,.077.154.077.232.077.617.309,1.389.154.927c.154.849.309,1.7.54,2.625l.077.386c.233,1.158.464,2.392.7,3.551a33.746,33.746,0,0,1,.617,4.554,7.28,7.28,0,0,0,.463-1.776,17.86,17.86,0,0,0,.231-5.711l.154.386c.232.463.54.926.772,1.389l.386.772c-.077.773-.231,1.544-.309,2.393l-.077.463c-.154,1.236-.309,3.088-.617,4.787a5.2,5.2,0,0,0,.617-1.159,33.959,33.959,0,0,0,1.545-4.477v.154l.154.309.154.231.386.773c.386.926.772,1.7,1,2.469a.7.7,0,0,0,.077-.386,8.691,8.691,0,0,0,0-2.006l.309.772c.464.926.85,1.852,1.313,2.779l-.463.463a16.173,16.173,0,0,0-1.082,1.312c-1.158-.386-2.392-.694-3.628-1.08a2.622,2.622,0,0,0,.463.463,25.676,25.676,0,0,0,2.316,1.7h-.077c-.463.541-.926,1.082-1.389,1.545l-.077.077c-1,.695-1.93,1.466-2.779,2.161-1.313.541-2.779,1.159-4.4,2.008a4.651,4.651,0,0,0,.387-.926,42.5,42.5,0,0,0,1.775-6.639,4.044,4.044,0,0,0-.772.849c-.772,1-1.545,2.239-2.471,3.705q-3.125,2.664-6.253,5.327l-.772.694-.386.309a7.79,7.79,0,0,1-1.235,1,14.628,14.628,0,0,0,.694-1.62c.849-2.393,1.62-4.864,2.161-6.639v-.154l.541-1.7a12.228,12.228,0,0,0-1.545,2.162,59.97,59.97,0,0,0-4.94,9.341c-.54.154-1.159.309-1.776.54a6.152,6.152,0,0,0,.232-1.157c.463-3.011.85-6.33,1.159-10.652a8.455,8.455,0,0,0-.7,1.775c-.772,2.162-1.389,4.245-2.006,6.407a2.1,2.1,0,0,0,0-.695c-.154.077-.154.231-.231.386a8.968,8.968,0,0,0-.309,1.389l-.077.231c-.231,1.082-.541,2.162-.773,3.088l-1.08.309-.54.154c-.309-.232-.694-.386-1.08-.617a32.876,32.876,0,0,0,.617-5.094l-.386.695c-.309.772-.617,1.543-.85,2.316l-.231.617v-.463c-.154-.85-.231-1.7-.386-2.471v-.154l-.077-.309a3.282,3.282,0,0,0-.154.849c-.077,1.08-.077,2.162-.077,3.4a2.573,2.573,0,0,0-.463-.231,21.694,21.694,0,0,0-3.628-1.082,41.4,41.4,0,0,0-1.543-5.094c-.077.309-.077.617-.154.849-.078,1.313-.078,2.7-.078,4.091a3.774,3.774,0,0,0-1-.077h-.926l.077.154.077.077.154.078c.617.386,1.157.694,1.7,1.08,0,1.08.077,2.316.154,3.628l-.154-.077h-.233a27.471,27.471,0,0,0-3.551-3.088c-.309-.231-.694-.463-1.08-.694-.309-1-.772-2.162-1.389-3.782a.979.979,0,0,0-.077.463c0,.772,0,1.62.077,2.625a.709.709,0,0,0-.463-.31c-1.082-.54-2.239-1.08-3.629-1.621-.386-.926-.772-1.853-1.157-2.7a.978.978,0,0,0-.077.463c.077.7.154,1.39.231,2.008l-.077-.077c-.54-.231-1.08-.386-1.543-.54l.232.463a17.873,17.873,0,0,0,1.7,1.929c0,.154.077.309.077.464v.154l.077.232.077.231-.231-.231c-.617-.541-1.312-1-2.006-1.545-.694-.617-1.39-1.235-2.085-1.775-.926-1-1.775-1.93-2.625-3.011l-.077-.154-.231-.7.077.077a1.127,1.127,0,0,0,.54.078h.387c.077,0,.154,0,.154-.078v-.153a4.867,4.867,0,0,0-.773-.927l-.231-.231v.231l.154.232.077.077a2.308,2.308,0,0,1,.386.54c-.694-.231-1.312-.54-2.006-.849l-.231-.231-.386-.54c-1-1.312-1.853-2.471-2.625-3.628a5.237,5.237,0,0,0,.926.926c1,.926,2.085,1.853,3.242,2.856-.231-.386-.54-.849-.772-1.157l-.154-.154c-.54-.773-1.157-1.545-1.853-2.471a89.692,89.692,0,0,0-5.557-7.95c-.232-.7-.463-1.467-.695-2.239a1.856,1.856,0,0,0,.617.463c1.08.695,2.161,1.389,3.088,1.93l.694.386-.617-.695c-.386-.31-.7-.619-1.082-.927l-.309-.231c-1-.849-1.929-1.7-2.934-2.47-.309-.926-.617-1.929-.926-2.855l.309.309c.85.617,1.776,1.235,2.779,1.929.926.617,1.93,1.236,2.856,1.776l-.772-.695c-.54-.464-1.159-1-1.776-1.467-1.466-1.312-2.856-2.548-4.168-3.859l-.231-.695.309.386.772.772.309.309.231.231c.386.463.85.927,1.236,1.313a9.693,9.693,0,0,0-1.236-1.853c-.54-.694-1.08-1.389-1.543-2.006l-.231-.231-.077-.078-.849-1.08-.464-.617-.463-.617-.772-1-.926-3.706-.154-.463-.154-.617.077.154.232.309.154.154c1.157,1.39,2.779,3.242,4.245,5.173a6.679,6.679,0,0,1,.54.772,32.381,32.381,0,0,0-1.852-3.242c-1.082-1.775-2.393-3.705-4.092-6.1l.31.387c.617.694,1.235,1.466,1.929,2.161l.154.154.232.309c.54.54,1,1.159,1.545,1.7a6.655,6.655,0,0,0-.773-1.236c-.386-.617-.772-1.08-1.157-1.62l-.154-.232-.231-.309-.386-.54-.309-.464c-.54-.772-1.08-1.466-1.622-2.238l-.077-.154-1.08-4.168a.413.413,0,0,0,.309.231c.154,0,.231-.077.386-.154l.231.309a.284.284,0,0,0,.231.077c.077,0,.232-.077.232-.154a.145.145,0,0,0,0-.231c-.232-.464-.463-.85-.694-1.236-.309-.772-.617-1.543-.926-2.161l-1.157-2.085c-.31-1.08-.619-2.239-.927-3.319l.386.54c.927,1,1.93,2.008,2.856,2.934l.927.926,1.157,1.159-1.93-2.625-1.62-2.162-.772-1.08.231.232a27.635,27.635,0,0,0,2.856,2.393.772.772,0,0,0-.31-.386l-.231-.154-.54-.541a37.012,37.012,0,0,1-5.48-7.565l-.386-.617c-.619-1.08-1.236-2.162-1.853-3.474l.232.386c.463.54.926,1,1.312,1.545.387.386.7.772,1.082,1.158-.154-.309-.386-.617-.54-.926l-.077-.154-.232-.31-.156-.309c-.231-.309-.463-.695-.694-1-1-1.543-2.006-3.165-3.088-5.017l-.232-.464-.077-.077-.077-.154v-.154c-.154-.926-.231-1.852-.386-2.856l-.154.387a9.5,9.5,0,0,0-.154,1.543c-.077-.232-.232-.54-.309-.772l-.154-.309c-.849-1.545-1.622-3.088-2.393-4.71-.54-2.7-.926-5.248-1.312-7.719l.154.386q.463.694,1.157,1.622v-.232l-.077-.154a55.247,55.247,0,0,1-2.881-5.979,1.385,1.385,0,0,0,.1.112c.464.926,1.082,1.852,1.7,2.856a3.9,3.9,0,0,0-.386-1l-.231-.54c-.386-.926-.773-1.775-1.082-2.7l.077.077a4.765,4.765,0,0,0,2.085.7,1.029,1.029,0,0,0-.386-.232l-.154-.077a7.176,7.176,0,0,1-.772-.386,5.9,5.9,0,0,1-1.082-.85l-.077-.077c-.315-.881-.619-1.762-.891-2.643H98.209a49.239,49.239,0,0,1-.865,4.962c.3-.752.573-1.482.783-2.163a1.7,1.7,0,0,0-.077.617q-.116,1.5-.233,3.011v.077c-.076,1.466-.231,2.855-.386,4.245a3.229,3.229,0,0,0,.31-.772c.076-.309.154-.7.231-1a1.312,1.312,0,0,0,0,.773,33.656,33.656,0,0,0,.463,5.171,3.2,3.2,0,0,0,.154-1.157v-.154l.154-1.93v-.772c.077-.772.077-1.544.154-2.316a2.906,2.906,0,0,0,.077.85,26.23,26.23,0,0,0,.772,4.014,41,41,0,0,0,1.853,6.406l-.077-.849-.154-.772c0,.154.077.232.154.386a6.847,6.847,0,0,0-.154-1.157l-.156-.695c-.153-.773-.231-1.622-.309-2.393l.077-1.157v-3.628l.078-.7.154.773.231.772.077.694a47.739,47.739,0,0,1,.463,6.021,17.749,17.749,0,0,1-.154,2.161,4.508,4.508,0,0,0,.463-1.775c.154-.772.231-1.544.309-2.316v.154c.463,2.471.849,4.864,1.312,7.333l.154.773c0-.154-.077-.233-.154-.387a17.123,17.123,0,0,0-1.312-1.852,22.6,22.6,0,0,0-7.41-6.639l.309.154a6.753,6.753,0,0,0,1.235.154l-.617-.309-.154-.077c-.386-.154-.772-.309-1.235-.54-1-.463-1.93-.926-2.393-1.159l-1.08-.772a5.317,5.317,0,0,0,.617.232c.772.154,1.62.309,2.471.463v-.047a31.906,31.906,0,0,1-4.092-1.5,8.739,8.739,0,0,1-1-.772l-.231-.154a1.817,1.817,0,0,0,.617.154l-.463-.31-.54-.231-.309-.154c-.694-.463-1.389-1-2.085-1.466a16.417,16.417,0,0,0-1.929-1.235l-.154-.154-.309-.233a15.14,15.14,0,0,0,6.329,2.548,1.244,1.244,0,0,0-.54-.309c-.232-.077-.54-.231-.772-.309a12.294,12.294,0,0,1-2.238-1.157c-.31-.231-.619-.386-.85-.541L84,409.908l-.927-1.08a3.8,3.8,0,0,0,1,.617,35.164,35.164,0,0,0,4.785,2.161l-.154-.231-.309-.154-.077-.077-.231-.309a30.561,30.561,0,0,0-5.253-5.809H80.191l.027.019.694.464.617.463c2.008,1.62,4.245,3.165,6.176,5.017-2.548-1.7-4.941-3.551-7.256-5.4l-.231-.154-.473-.406H43.757c.06.187.119.377.18.56a11.6,11.6,0,0,0,.154,1.543c.309,2.548.694,5.173,1.08,7.8.231,1.7.541,3.4.773,5.017.077-1.852,0-3.4,0-4.863-.075-2.006-.151-3.725-.294-5.365a38.606,38.606,0,0,0,.68,4.207c.309,1.39.694,2.7,1.08,3.937a28.44,28.44,0,0,0,.617,4.478c.154.617.309,1.235.463,1.7l.231,1.159a9.608,9.608,0,0,0,.324.918l-.014-.07-.233-.927a5.21,5.21,0,0,1-.154-1.08l.077.386a10.516,10.516,0,0,0,.927,1.853c.116.7.276,1.439.447,2.29.129.306.271.622.418.941l-.016-.143-.154-.85c-.154-.849-.231-1.7-.386-2.546l.617,1.543a34.754,34.754,0,0,0,1.389,4.708l-.077-.077c-.092-.138-.2-.294-.3-.443.239.462.49.94.762,1.447a3.82,3.82,0,0,0-.309-1l-.077-.233c-.231-.695-.463-1.312-.694-2.006a1.687,1.687,0,0,0,.231.386c.463.54,1,1.08,1.545,1.62l.926,2.316-.077-.617-.154-.463-.154-.463-.077-.463.077.231c.231.231.463.386.694.617a.984.984,0,0,0-.309-.463l-.154-.231-.154-.154-.309-.309c-.309-1.39-.694-3.011-1-4.787.078.232.156.54.233.772.463,1.467.926,3.088,1.543,4.632a78.541,78.541,0,0,0,3.474,8.182l-.154-.849c-.2-.85-.441-1.66-.653-2.54.295.6.594,1.258.962,1.923a18.073,18.073,0,0,0,.926,4.785,2.625,2.625,0,0,0-.077-.772c-.077-.309-.077-.617-.154-.849-.154-.85-.231-1.7-.309-2.548a1.152,1.152,0,0,0,.231.54c.1.36.223.732.33,1.1-.085-.429-.168-.866-.253-1.328l.154.463c.309.617.619,1.312.927,1.929.151.493.3.986.473,1.5l-.164-.879-.077-.54.231.463c.463.694,1,1.466,1.7,2.471.617,1.312,1.236,2.778,1.93,4.014l.463.926c-.154-.54-.309-1.08-.54-1.7l-.309-.849c-.386-1.08-.773-2.083-1.082-3.011.119.239.259.477.4.7-.288-.912-.574-1.862-.861-2.865l.231.463c.463.694.927,1.389,1.313,2.006a25.343,25.343,0,0,0,.694,2.856c.04.142.1.279.139.419a31.378,31.378,0,0,0,4.955,8.535,1.243,1.243,0,0,0-.309-.54,14.128,14.128,0,0,0-.617-1.93l-.076-.264a1.476,1.476,0,0,0-.078-.739c-.027-.112-.056-.238-.083-.362l-.148-.334-.54-1.235-.087-.173c.086.2.173.387.241.559.239.718.418,1.316.564,1.847-.3-.953-.6-1.807-.9-2.614q-.332-.773-.663-1.548l.231.463c.386.54.772,1.157,1.235,1.7.269.805.536,1.67.805,2.542.246.472.493.945.738,1.4l.077.154.078.154.077.077c.694,1.235,1.312,2.392,1.929,3.551.386,1.08.617,2.006.926,3.011l-.077-.773c-.077-.386-.154-.694-.231-1.08V460.7c-.231-1.157-.463-2.239-.772-3.4a44.036,44.036,0,0,0,2.856,7.1l.309.694a20.281,20.281,0,0,0-.694-2.315l-.386-1.236c-.7-2.083-1.159-3.782-1.545-5.326a13.513,13.513,0,0,1-.386-1.7l.154.309.077.077.309.463c.309,1.159.694,2.316,1.159,3.628.386,1.082.926,2.162,1.466,3.4l.077.233c.617,1.466,1.389,3.087,1.93,4.631l.077-.154.077.309.694,1.62c-.042-.25-.087-.5-.141-.753-.077-.245-.149-.5-.225-.749l-.02-.041-.067-.253c-.254-.855-.5-1.725-.706-2.6l-.073-.367c-.361-1.349-.722-2.724-1.084-4.11l-.309-1.082.154.464c.386.694.694,1.389,1.08,2.006a23.856,23.856,0,0,0,.619,3.319c.386,1.39.926,2.625,1.389,3.859-.229.516-.448,1.048-.667,1.579.036.2.139.4.2.66,1.852,2.006,3.011,3.859,4.4,5.48a.66.66,0,0,0-.231-.463l-.154-.231-.231-.386a25.982,25.982,0,0,1-2.239-5.4c-.154-.463-.231-.849-.386-1.312v-.077l.231.54c.773,1.236,1.7,2.548,2.856,4.245l.617.85.386.54.154.232.154.232-.077-.386-.077-.154a1.643,1.643,0,0,0,.233.386,26.822,26.822,0,0,0,2.006,2.162,32.564,32.564,0,0,1,1.7,4.091,13.366,13.366,0,0,0-.541-2.316c-.463-1.389-1-2.779-1.543-4.014l-.231-.463.386.617,1.08,1.543.927,1.313c.309.54.617,1.08.926,1.543l.077.154.077.154.154.231.231.386.386.7-.154-.54c-.077-.233-.231-.541-.309-.773l.154.309.54.773.231.309a54.666,54.666,0,0,0,1.776,5.4l.309.773a23.194,23.194,0,0,1,.849,2.469,7.936,7.936,0,0,0,.077-1.312c0-.683-.075-1.446-.151-2.5.127.319.255.637.382.956v-.54l-.232-.926.077.231.154.231a1.026,1.026,0,0,0-.232-.617l-.077-.154a2.385,2.385,0,0,0-.154-.617V484.5l.154.515.309.849q.694,1.852,1.39,3.705c.231,1.313.54,2.7.772,4.014l.077.232c.386,1.776.694,3.551,1,5.327,0,1.853.077,3.551.154,5.248a18.025,18.025,0,0,0,.309-2.006v-.54l.154-.927.154-1.312.154-1.157v-.232c.231-2.085.541-4.555.773-6.87v-.154a33.649,33.649,0,0,0,1.312,3.937,6.766,6.766,0,0,0-.154-1.236l-.077-.232-.077-.154c-.154-.772-.309-1.466-.463-2.238a9.774,9.774,0,0,0,.463,1.389c.849,2.316,1.775,4.477,2.393,6.176l.463,1.235.231,3.937c.154,2.47.386,5.944.386,9.186v.386a47.861,47.861,0,0,0,.849-5.017,53.425,53.425,0,0,0,.463-6.947c.386,2.238.927,5.326,1.39,8.259.077.694.231,1.467.309,2.162l.077-.077v.617c.154,2.006.386,4.091.54,5.867l.077,1,.154,1.852c.231-2.083.309-4.168.386-6.1.077-2.779.154-5.327.154-7.8l.231,1.622.154.849c.386,1.776.7,3.474,1.082,5.25.617,3.164,1,5.557,1.389,7.873.077-1,0-1.93,0-2.856-.077-1.389-.154-2.856-.309-4.708,0-1.776-.154-3.474-.231-5.25.386,3.628.694,6.561.849,9.032a20.217,20.217,0,0,1,.077,2.161,9.056,9.056,0,0,0,.386-2.083c.077-.772.154-1.467.231-2.239v1a20.96,20.96,0,0,0,.077,2.239,74.919,74.919,0,0,0,1.467,17.523c.386,1.776.772,3.474,1.157,5.018.309,1,.617,2.238,1.08,3.4v-1.081c-.077-.386-.077-.772-.154-1.157-.077-1.158-.154-2.393-.231-3.628v-1.236c0-.694-.077-1.389-.077-2.083a8.7,8.7,0,0,0,.232,1.389v.154c.619,2.625,1.39,5.25,2.008,7.41-.077,1.776-.154,3.319-.309,4.787a8.709,8.709,0,0,0,.694-1.544c.309-.926.617-1.775.926-2.624a7.384,7.384,0,0,0,.464,1.62,55.113,55.113,0,0,0,2.392,6.253,24.187,24.187,0,0,1-.849,5.79,6.992,6.992,0,0,0,.772-1.545,17.471,17.471,0,0,0,.849-2.625l.233.541c.386.772.694,1.543,1.08,2.238v.154a33.567,33.567,0,0,1,.694,4.168,2.279,2.279,0,0,0,.154-1c0-.54.077-1,.077-1.543a3.358,3.358,0,0,0,.309.54l-.077-.463c-.077-.232-.154-.386-.231-.617v-2.471l.077.772.154,1.545c.386,3.859.849,7.41,1.236,10.807l.231-1.313v-.154a15.032,15.032,0,0,0,.154-1.929l.154-2.007a2.136,2.136,0,0,0,.077.694c.231,1.39.386,2.625.54,3.859a9.966,9.966,0,0,0,.231-1.775c.077-.849.077-1.7.077-2.7l.231,1.313.154.772c.386,1.62.694,3.242,1.08,4.863.154.694.309,1.39.387,2.007a15.883,15.883,0,0,0,.154-2.625c0-1.157,0-2.316-.077-3.551a8.309,8.309,0,0,0,.309,1.622,47.856,47.856,0,0,0,2.315,6.869,31.371,31.371,0,0,0,4.555,7.72v.309c.154,1.157.232,2.239.386,3.4l.154-1.157c0-.619.077-1.236.077-1.93l.077.154.154.154v-.231a.269.269,0,0,0-.077-.154v-2.856l.309,1,.386.927.077.309.077.309c.617,1.62,1.622,4.014,2.471,6.253l-.077-.927-.077-.232c-.773-3.705-1.545-7.642-2.393-11.347l.154.309.694.926c.386,1.776.85,3.628,1.467,5.79.694,2.316,1.466,4.708,2.161,6.639l.077.232c.386,1.08.7,2.162,1.082,3.165a27.407,27.407,0,0,0-.463-3.628c-.31-1.853-.7-3.705-1.082-5.636l-.077-.309-.463-2.161-.154-.773a3.432,3.432,0,0,0,.309.541c.617.772,1.235,1.466,1.853,2.238l.463.54a30.258,30.258,0,0,0,3.242,6.947,14.36,14.36,0,0,0,4.94,4.941l-.077-.232-.231-.231a15.614,15.614,0,0,1-2.008-2.625,23.166,23.166,0,0,1-2.315-5.713l.154.231c.386.309.849.617,1.312.927l-.309-.541c-.463-.54-.849-1.08-1.312-1.621a3.563,3.563,0,0,0,.54.54q1.273,1.158,3.011,2.548a44.934,44.934,0,0,0,3.088,3.474c.231.463.54.926.772,1.389A39.2,39.2,0,0,0,163.9,608.062c.386.309.772.54,1.235.849l.077.077a4.311,4.311,0,0,0,.541.309h.154a1.961,1.961,0,0,0,.54-.154h.077a1.859,1.859,0,0,0,.754-.647.529.529,0,0,1-.137.03h-.309a27.55,27.55,0,0,0-.849-2.7c-.464-1.312-1-2.779-1.622-4.477l.077.154c.231.154.463.232.694.386.386.463.773.926,1.159,1.312a34.259,34.259,0,0,0,2.083,4.478c-.077,0-.154.077-.231.154-.1.095-.174.172-.255.246a4.633,4.633,0,0,0,.409.757,21.088,21.088,0,0,0,2.259,3.074,9.9,9.9,0,0,1,3.53,1.746,20.1,20.1,0,0,0,3.293,2.034l.259-.37c.926-1.313,1.853-2.779,2.934-4.4l.077.156c.617.617,1.235,1.157,1.775,1.7a2.568,2.568,0,0,0-.463-.772l-.077-.154c-.386-.463-.694-.927-1.08-1.39l.772-1.157a6.5,6.5,0,0,0,1.853.54l-.154-.154-.154-.077h-.077l-.077-.077a4.553,4.553,0,0,1-.619-.309,4.432,4.432,0,0,1-.54-.309l.617-.849.231.309c.541.617,1.159,1.157,1.853,1.852a31.739,31.739,0,0,0,4.091,3.4l-.077-.231-.232-.232a56,56,0,0,1-5.1-6.1c.233-.309.464-.695.7-1l.154-.154a11.792,11.792,0,0,0,1.775,1.158c.54.85,1,1.544,1.467,2.316l.309.463a37.269,37.269,0,0,1,2.548,5.4l-.156-.231a8.357,8.357,0,0,1-1.312-1,3.633,3.633,0,0,0,.694.927,14.84,14.84,0,0,0,1.159,1.08.239.239,0,0,0,.154.077c.077,0,.154-.077.231-.154a.284.284,0,0,0,.077-.232,27.6,27.6,0,0,0-2.393-7.565,4.289,4.289,0,0,0,.617.463c1.313.772,2.7,1.466,4.091,2.161-.154,1.7-.386,3.165-.617,4.478a8.585,8.585,0,0,0,.617-1.622c.233-.772.464-1.7.7-2.546a1.935,1.935,0,0,0,.54.309c.309.154.54.232.849.386.386.309.849.694,1.312,1a5.969,5.969,0,0,0,.85.617,18.251,18.251,0,0,0,3.474,4.555,1.157,1.157,0,0,0-.231-.541l-.077-.077-.154-.231-.077-.154c-.077-.154-.231-.309-.31-.463-.386-.617-.694-1.389-1.08-2.083a1.385,1.385,0,0,0,.54.386,15.072,15.072,0,0,0,3.319,1.7,1.688,1.688,0,0,0-.232-.386,24.189,24.189,0,0,1-1.852-2.316c-.85-1.158-1.776-2.469-2.471-3.551l-.077-.077-.077-.154-.309-.386-.694-1-.077-.309.309.232c.386.232.849.463,1.312.695a27.81,27.81,0,0,0,2.085,3.165,24.79,24.79,0,0,0,6.176,5.944,12.241,12.241,0,0,0,6.483,2.161h.386a.567.567,0,0,0-.463-.154H213.3l-.926-.231a9.336,9.336,0,0,1-2.548-1.157,18.318,18.318,0,0,1-3.474-2.779,36.77,36.77,0,0,1-4.091-5.094l.463.309.54.309.309.154-.617-.617c-.232-.232-.54-.386-.772-.617l-.309-.232c-.386-.619-.849-1.313-1.235-1.93a5.629,5.629,0,0,0,.694.772,29.647,29.647,0,0,0,4.477,3.628,27.138,27.138,0,0,0,6.176,3.088.77.77,0,0,0-.386-.309l-.309-.232-.309-.154a39.117,39.117,0,0,1-7.566-6.1c-1.543-1.62-3.009-3.165-4.168-4.631l.309.232c.463.154.85.386,1.313.54.463.54,1,1.08,1.62,1.7a33.789,33.789,0,0,0,5.636,4.324c.463.309,1,.617,1.543.926l.927,1,.617.617,1,1.082.154.232.154.154c1.312,1.466,2.625,2.856,3.937,4.323a13.063,13.063,0,0,0-1.389-2.315c-.772-1.159-1.545-2.316-2.548-3.629l.231.232c.386.156.695.31,1.08.464l.464.154a46.474,46.474,0,0,0,4.091,5.634,5.974,5.974,0,0,0-.54-1.235l-.077-.154-.077-.232-.154-.386-.773-1.544c-.772-1.62-1.466-3.242-2.161-4.94l.232.154c.386.154.849.309,1.235.463a51.972,51.972,0,0,0,5.1,6.176c-.232-.617-.541-1.236-.773-1.776l-.154-.309-.617-1.312-.463-.849-.231-.541-.309-.694.154.077c.463.154.926.232,1.389.386a58.2,58.2,0,0,0,5.79,5.173,17.466,17.466,0,0,0-1-1.544l-.077-.154-.077-.077c-.619-.926-1.313-1.852-2.008-2.933l.386.156c.54.076,1.082.154,1.7.231.231.077.463.232.694.309a2.045,2.045,0,0,0,.463.386,7.178,7.178,0,0,0,3.319,1.7h.309l-.077.077h.154a2.305,2.305,0,0,0,1.08-.463,15.625,15.625,0,0,0,2.162.386c.386.077.694.077,1.08.154a61.5,61.5,0,0,1,9.5,10.035l1.08,1.39v-.309l-.077-.233v-.077c-1.08-2.469-2.238-4.94-3.551-7.333h.077a4.275,4.275,0,0,0,2.316-.926h-.077c-.154,0-.232.077-.386.077a3.59,3.59,0,0,0-.694.232,2.626,2.626,0,0,1-.772.077,1.316,1.316,0,0,1-.541-.077.4.4,0,0,1-.309-.154c-.386-.694-.772-1.312-1.235-2.008-.077-.232-.077-.54-.154-.772.386-.077.772-.232,1.157-.309,0-.077-.077-.077-.154-.077h-.463a1.145,1.145,0,0,1-.54-.077,17.442,17.442,0,0,1-.077-2.006,20.389,20.389,0,0,0,2.238-.154,6.53,6.53,0,0,0,2.085,3.009c0-.154-.077-.232-.077-.309a1.243,1.243,0,0,1-.309-.54,5.973,5.973,0,0,1-.54-1.235q.116.231.232.231l.077.077c.077-.077,0-.154-.077-.231l-.154-.154-.077-.077-.154-.154a1.817,1.817,0,0,1-.154-.617l-.077-.233h.232c1.08-.154,2.083-.232,3.165-.386a5.637,5.637,0,0,0,2.855,3.088c0-.154-.154-.232-.232-.309l-.077-.077c-.154-.077-.232-.232-.309-.309a6.594,6.594,0,0,1-.849-1.08,7.158,7.158,0,0,1-.617-1.544h.231l.849-.077c.926,1.081,1.776,2.162,2.856,3.551.694.849,1.312,1.7,2.006,2.471a.586.586,0,0,0-.076-.386c-.156-.386-.31-.772-.541-1.313-.694-1.62-1.389-3.164-2.161-4.708l1.235-.154-.54-.077h-.849a33.715,33.715,0,0,0-3.319-5.4v-.233c.077-.463.154-.849.232-1.235l.694-.232c1-.386,2.006-.849,3.011-1.157a11.867,11.867,0,0,0,1.235,7.8v-.309l-.077-.154v-.077a10.967,10.967,0,0,1-.309-2.779,17.965,17.965,0,0,1,.309-2.856,5.323,5.323,0,0,0,.309.772,24.639,24.639,0,0,0,1.313,2.471l.077.077c.695,1.313,1.389,2.7,2.083,4.091a21.117,21.117,0,0,1,.85,2.239,3.873,3.873,0,0,1,.154.926,3.631,3.631,0,0,0,.077-1.62,14.185,14.185,0,0,0-.463-2.239,30.392,30.392,0,0,0-1.776-4.631c-.463-1.082-1-2.162-1.467-3.242l-.386-.772h.31c.54-.077,1.157-.232,1.7-.309a7.96,7.96,0,0,0-.077,1.466,10.256,10.256,0,0,0,1.467,4.863,8.161,8.161,0,0,0,4.014,3.319,2.045,2.045,0,0,0-.463-.386l-.156-.154c-.386-.309-.694-.617-1-.849a7.575,7.575,0,0,1-1.312-1.7,9.065,9.065,0,0,1-.773-2.006,10.582,10.582,0,0,1-.307-2.779v-.309a15.633,15.633,0,0,0,.694,2.548l.077-.154v-.154a12.767,12.767,0,0,1-.386-2.934,8.532,8.532,0,0,1,.154-1.39c.694-.077,1.389-.309,1.929-.386-.077.154-.077.386-.154.54a7.508,7.508,0,0,0,.926,4.787c.078-.077,0-.232,0-.309l-.077-.154-.077-.232a7.792,7.792,0,0,1-.231-1.93,12.63,12.63,0,0,1,.386-2.779l.078-.309c.54-.154,1.157-.309,1.929-.463v.386c.309,1.622.54,3.242.772,4.71v.386l.077.772a34.866,34.866,0,0,0,.927,5.094,2.586,2.586,0,0,0,0-.772c0-.309-.077-.54-.077-.849-.077-.849-.077-1.7-.077-2.548v-.772c0-1.466,0-3.242-.156-5.018-.076-.695-.154-1.312-.231-1.929h.077a43.835,43.835,0,0,1,.7,7.873c0,1.081-.077,2.085-.154,3.088a15.9,15.9,0,0,0,.849-3.319,29.5,29.5,0,0,0,.386-6.407c.154,1.853.232,3.551.232,5.558v2.239c0,1.775,0,3.628.154,5.48l.077-.309v-.077c0-1.312.154-2.625.231-3.859V611.3l.077-.926c.154-1.776.232-3.706.232-5.713a16.9,16.9,0,0,0-.309-3.551l.232-.077c.077,0,.154.077.309.077a5.054,5.054,0,0,0,2.548-.772,1.454,1.454,0,0,0-.309.695.678.678,0,0,0,.077.54.667.667,0,0,0,.463.231.283.283,0,0,0,.231-.077c.232-.077.463-.232.694-.309-.077.309.077.617.386,1l.077.077c.233.772.464,1.467.7,2.316a20.8,20.8,0,0,0,.54,2.085l.154.463c.154.772.386,1.543.54,2.315a1.071,1.071,0,0,0,0-.694l-.077-.695v-1.312c-.077-.541-.077-1-.154-1.545a28.2,28.2,0,0,0-.54-3.088,20.109,20.109,0,0,0,2.7-1.235c.386,1.08.772,2.161,1.08,3.242a26.591,26.591,0,0,1,.849,6.407v.617a14.478,14.478,0,0,1-.309,2.161,10.218,10.218,0,0,0,1.158-4.014v-.077a18.275,18.275,0,0,0-.154-5.4,13.029,13.029,0,0,0-1.157-3.705,11.662,11.662,0,0,0,1.78-1.013,2.873,2.873,0,0,1,.073-.686l.232-.154q1.389-.579,2.546-1.157l-.231.232-.077.154a13.94,13.94,0,0,1-1.157,1.466c-.154,0-.232.077-.386.154l-.386.231-.077.077c-.093.093-.193.185-.3.279a7.718,7.718,0,0,0,.225.8c0,.077.077.154.231.154.077,0,.154,0,.154-.077l.309-.309a4.608,4.608,0,0,0,1.543-.541,10.89,10.89,0,0,0,2.471-1.7,18.007,18.007,0,0,0,2.7-3.088l.154-.077a30.067,30.067,0,0,1,1.235,3.165l-.154.154c-.309.309-.54.617-.849.926a10.558,10.558,0,0,1-1.7,1.545h.077a1.823,1.823,0,0,0,.619-.154,8.884,8.884,0,0,0,2.469-1.159v.154c.231.85.387,1.545.541,2.316a7.512,7.512,0,0,0,.077-1.235,10.882,10.882,0,0,0-.077-1.622,10.635,10.635,0,0,0,2.083-1.775v.849c.061,1.276.122,2.459.182,3.731a38.718,38.718,0,0,0,.358-4.813v-1.389a14.608,14.608,0,0,0,1.236-1.62,21.929,21.929,0,0,0,1.389-2.239l.772.849q1.932,2.089,3.994,4.249a19.147,19.147,0,0,1,2.886-1.694l-.01-.007-.386-.232-1-.695-2.548-1.7a1.689,1.689,0,0,0,.386-.232,20.384,20.384,0,0,0,3.011-2.856,33.737,33.737,0,0,0,3.782-5.326l-.154.54-.077.386-.077.309c-.077.386-.154.695-.231,1a8.644,8.644,0,0,0,1-1.62,44.618,44.618,0,0,0,2.934-6.176,42.284,42.284,0,0,0,1.93-5.79,39,39,0,0,0,2.7-6.174c.187-.609.391-1.192.584-1.779-.22,1.022-.441,1.984-.661,3.013l-.077.309v.154l-.154.54c-.31,1.467-.541,2.856-.85,4.245l-.077.387-.232,1.157v.154a41.649,41.649,0,0,1-3.242,9.8,10.819,10.819,0,0,1-1.157,1.852,1.426,1.426,0,0,0,.694-.54,14.934,14.934,0,0,0,2.548-3.319,31.351,31.351,0,0,0,2.47-5.326c.607-1.747,1.215-3.649,1.822-6.062-.144.895-.289,1.979-.433,3.206-.463,4.785-.772,9.8-1,15.284l.154-.463.077-.463.309-2.008.309-1.775.232-1.157.077-.619.077-.463c.232-1.08.386-2.161.54-3.242l-.154.233c.154-.618.309-1.236.386-1.7l.077-.231c.617-3.474,1.236-6.562,1.93-9.727a7.06,7.06,0,0,0,.54-1.08c.54-1.313,1-2.779,1.543-4.555.541-1.852,1.082-3.937,1.544-6.252a10.721,10.721,0,0,0,.309,1.775,19.723,19.723,0,0,0,2.239,5.327,2.27,2.27,0,0,0-.154-.7l-.077-.154c-.154-.463-.232-.849-.387-1.312a36.015,36.015,0,0,1-.926-8.878c.232-.849.463-1.62.617-2.469V549.7c.154-.773.386-1.467.464-2.162l.232-1.853v-.309l.926-1.157-.077.309c.077.463.077.926.154,1.39l-.077.617-.309,1.775a70.912,70.912,0,0,0-1.39,10.575,6.686,6.686,0,0,0,.386-1.157v-.077l.077-.309c.233-.926.464-1.93.773-2.856l.926-3.242.463-1.543a1.313,1.313,0,0,0,.077.54,14.4,14.4,0,0,0,.54,1.7c.077.154.154.386.231.541-.463,2.006-.849,4.091-1.312,6.174-1,4.632-2.008,9.032-3.242,14.436.695-1.7,1.312-3.629,2.239-6.407,1.312-4.015,2.392-7.643,3.319-10.962l.232-.926c.772-2.856,1.312-5.48,1.775-8.028.309-1.622.54-3.319.772-5.018v.85l.077,1.08.077,1.543a12.238,12.238,0,0,0,.619-2.469c.54-2.934,1-6.253,1.466-10.112.309-.54.617-1.082.926-1.7l-.154.463c-.154.85-.232,1.7-.309,2.548a108.558,108.558,0,0,1-1.775,11.038c-.232,1-.463,1.853-.694,2.625-.387,1.389-.85,2.625-1.313,3.937a24.364,24.364,0,0,0,2.008-4.014,53.211,53.211,0,0,0,3.242-11.578c.205-1.167.412-2.467.617-3.933.077.77.077,1.541.154,2.311.077.849.154,1.776.231,2.625-.231.386-.463.849-.772,1.389q-.463.695-.927,1.39a3.637,3.637,0,0,0,.773-.772c.309-.387.694-.85,1-1.313v.463c.077.849.232,1.7.309,2.548l.077.617a9.354,9.354,0,0,0,.077-1.543v-2.779a22.118,22.118,0,0,0,1.853-3.242,43.6,43.6,0,0,0,2.469-6.87v.695c-.077,3.088-.232,6.1-.463,8.955a32.511,32.511,0,0,0,.849-4.555c.233-1.929.464-4.091.619-6.637v.386c.077,1,.231,2.006.386,3.011a10.369,10.369,0,0,0,.077-1.545V524c0-1.7.077-3.4.154-5.017l.077-.231v-.077c.309-1.93.695-4.169,1.157-6.33.154-.772.386-1.545.54-2.316.154-.617.386-1.158.541-1.775a2.1,2.1,0,0,0-.078.694c-.077,1.312-.077,2.625-.154,4.014,0,2.7.077,5.481.233,7.719v.154l.077.927a11.041,11.041,0,0,0,.695-2.085c.54-1.776,1-3.4,1.389-5.017v.926a32.208,32.208,0,0,1-.54,4.168,27.547,27.547,0,0,0,2.085-6.176,47.441,47.441,0,0,0,1-8.028,17.828,17.828,0,0,0,.772-2.162,28.279,28.279,0,0,0,1.158-5.326,2.732,2.732,0,0,0,.31.849q.81,1.968,2.083,4.4V503a.283.283,0,0,0-.077-.231v-.154c-.772-2.856-1.389-5.867-2.006-8.955V492.2l.232.694a13.76,13.76,0,0,0,2.546,4.4v-.154l-.077-.154a12.893,12.893,0,0,1-1.157-2.934c.386.387.309.387.309.31a49.271,49.271,0,0,1-1.08-9.649v-.772l.077.232c.231.309.386.694.617,1,.154.617.309,1.157.463,1.775.54,1.776,1.159,3.628,1.853,5.481a7.6,7.6,0,0,0-.154-1.312l-.077-.387c-.154-1-.232-2.006-.387-3.009l.156.309,1.389,2.083.077.077.154.232.077.154c.207.311.4.6.6.9a12.013,12.013,0,0,1,2.107-3.448q-.624-.736-1.245-1.464l-.307-.309c-1.159-1.389-2.316-2.7-3.475-4.091-.154-2.7-.154-5.636-.154-8.878v-.54c.154-.386.309-.849.463-1.235l.233-.54v.309c.077.694.232,1.389.386,2.239a29.148,29.148,0,0,0,1.852,6.02,6.387,6.387,0,0,0,.54,1c.077-.154,0-.231,0-.309l-.077-.387-.077-.231a37.068,37.068,0,0,1-.772-8.722v-1.159c0,.233.077.464.077.7a28.8,28.8,0,0,0,1.236,4.94l-.231,2.625a2.311,2.311,0,0,0,.307-.772c.078-.309.156-.7.233-1l.077.154.077.233a18.389,18.389,0,0,0,2.7,5.094l-.154-.54a9.369,9.369,0,0,1-.54-1.313,27.387,27.387,0,0,1-.849-2.778c-.232-.927-.463-2.007-.694-3.165.617-2.779,1.157-5.635,1.62-8.106.154-.772.309-1.543.386-2.315V463.4l.077-.309c.232-1.313.463-2.625.694-3.861.077-.309.233-.617.31-.926-.077.231-.077.386-.154.617a31.441,31.441,0,0,0-.387,3.782,33.111,33.111,0,0,0,.387,6.1,15.183,15.183,0,0,0-.619,2.548.834.834,0,0,0,.231-.54l.077-.154c.129-.258.258-.561.387-.836v.219a26.419,26.419,0,0,0,2.006,6.329v-.54a36.445,36.445,0,0,1-.926-7.719,11.286,11.286,0,0,0,.694-1l.077-.154.154-.231a22,22,0,0,0,1.7-2.7c.077-.154.232-.386.309-.54v.154l.077.154.077-.154-.077-.231.309-.619c.154-.386.386-.772.54-1.235a2.452,2.452,0,0,0,.232.694,9.2,9.2,0,0,0,2.162,3.165,9.9,9.9,0,0,0,1.7,1.313l-.077-.154-.077-.077a8.678,8.678,0,0,1-2.315-4.247,20.921,20.921,0,0,1-.541-4.091L364.6,458a4.923,4.923,0,0,1,.154-.54,49.417,49.417,0,0,0,.773-9.881c.232-.386.54-.849.849-1.312l-.077.154-.077.309a43.14,43.14,0,0,0,0,8.954,29,29,0,0,0,1.08,4.632v-.154c-.077-.617-.231-1.313-.309-2.085-.077-1.08-.154-2.161-.154-3.4a20.254,20.254,0,0,1,.077-2.083c.154-2.239.54-4.324.772-5.944.154-.849.309-1.622.463-2.471l.077-.386c.154-.694.231-1.312.386-2.008l.078-.154c.154-.386.309-.694.463-1.08l-.077.694A20.247,20.247,0,0,0,369,443.41a64.152,64.152,0,0,1-.773,9.186,20.538,20.538,0,0,0,1.159-4.247c.386-2.161.617-4.245.849-6.253a12.112,12.112,0,0,0,1.932-1.918c0,.228.076.454.076.606-.156,1.08-.387,2.316-.541,3.628l.231-.463.464-1.389.154-.54a3.281,3.281,0,0,0,.154.849,30.741,30.741,0,0,0,1.157,3.782,21.034,21.034,0,0,0,2.856,5.248v-.154a.269.269,0,0,0-.077-.154,18.725,18.725,0,0,1-1.853-4.708,37.775,37.775,0,0,1-1.158-7.719c.309-.927.617-1.93,1-2.856.231-.54.463-1.082.772-1.776.464-1.157.85-2.392,1.236-3.705l.154-.386.154-.309-.154.617c-.231,1.159-.386,2.239-.617,3.4l-.231,1.159-.154.694.309-.463c.386-.927.772-1.853,1.157-2.934-.154,1-.232,2.161-.309,3.474a41.886,41.886,0,0,0,.617,9.031,4.4,4.4,0,0,0,.077-1v-2.239a82,82,0,0,1,1.312-11.5l.233-1.466v.232l.076.232a24.939,24.939,0,0,0,4.555,9.417l-.077-.309c-.077-.077-.077-.232-.154-.309a25.922,25.922,0,0,1-1.93-4.4c.54-1.312,1-2.934,1.545-4.785a65.039,65.039,0,0,0,1.466-6.716l.077.309c.154.309.309.695.463,1a13.237,13.237,0,0,0,.695,2.316l.078-.077v-.077c-.078-.463-.154-.85-.233-1.313l.078.309a6.294,6.294,0,0,0,.926,1.545,2.31,2.31,0,0,0-.309-.772l-.077-.231q-.347-.812-.7-1.622v-1.235a38.221,38.221,0,0,1,1.39-7.873l.077-.387.077-.309.077-.232c.231-1,.54-2.083.772-3.088.232-1.08.463-2.315.694-4.014.071-.5.141-.991.2-1.486H386.6ZM48.414,420.02v-.386c.154.309.231.54.386.849a8.419,8.419,0,0,1,.156,1.466l-.31-1.08Zm.154,3.165v-.154c0-.231-.077-.54-.077-.849l.154.54c.233.617.541,1.235.773,1.852a5.249,5.249,0,0,0,.154,1.157c-.386-.849-.694-1.7-1-2.546m1.545,2.315-.386-1.235v-.309l-.077-.772-.309-2.008.077.386c.231.464.386.85.617,1.313a16.869,16.869,0,0,0,.309,3.4Zm6.87,13.123a48.7,48.7,0,0,1-2.162-6.1c-.077-.387-.231-.773-.309-1.159l.154.463c.309.617.694,1.159,1,1.7.233.694.541,1.543.85,2.393.056.336.112.658.168.982,0-.02-.01-.036-.014-.056l.031.157c.092.533.185,1.064.278,1.618M69.642,454.6l-.153-.617.153.386.233.309.232,1.62c-.154-.54-.309-1.157-.464-1.7M81.3,409.059l-.154-.077a18.912,18.912,0,0,0-2.7-1.467l-.926-1.852.463.54c.926.849,2.008,1.7,3.319,2.779Zm3.937,67.466-.077-.077c-.386-.54-.772-1.158-1.235-1.929a37.938,37.938,0,0,1-2.085-4.322l.694,1,1,1.312L84,473.668a18.716,18.716,0,0,0,1.235,2.856m2.393-57.045.386.154h.154l.231.077a3.227,3.227,0,0,0,.309.772Zm6.793,4.322-.54-.617-.619-.694,1,.849.077.077.154.54Zm2.315,67.621c-.231,2.469-.309,5.017-.309,7.487-.147-2.653-.3-5.327-.58-8.652l.04.161.077.54v-2.315c0-1.157-.077-2.239-.154-3.4l.154.231c.309.309.617.694.926,1,.077.309.154.617.233,1-.156,1.389-.31,2.624-.387,3.937m16.982,35.045-.077-1-.077-1.853v-.154l.309-2.162a23.854,23.854,0,0,0,.077,3.165c.154,3.242.464,6.176.85,8.955l-.077,1.157c-.464-3.242-.773-5.711-1-8.1m2.548,17.831-.077-.54-.309-1.622-.077-.617-.694-4.168L114.8,535.5l.154-.772c0,.463.077.927.077,1.236.309,2.083.772,4.168,1.235,6.174Zm10.961,10.267c-.077-.772-.231-1.62-.386-2.393l.154.387.309.54a9.839,9.839,0,0,0-.077,1.466m8.183-125.592-.077.617-.463-.927-.464-1.08-.231-.463a15.311,15.311,0,0,0,1.236,1.853M128.85,409.6l-.077.309-.077.232-.077.386-.077.154-.232.617-.077-.154-.077-.617c-.231-1.235-.464-2.471-.7-3.782v-.695a1.026,1.026,0,0,0,.231.617c.31.695.7,1.543,1.159,2.393Zm1.62,6.716-.077-.154-.077-.309c-.231-1.776-.54-3.551-.772-5.327v-.077c.077.154.231.386.309.54.463.772.926,1.545,1.389,2.162a40.558,40.558,0,0,0-.231,4.323c-.154-.386-.386-.772-.54-1.157m1.622,158.708c-.54-2.162-1-4.4-1.39-6.947l.231.617c.387.772.85,1.622,1.313,2.548.694,2.239,1.543,4.708,2.625,7.41l.154.463c.077,1,.232,1.93.386,2.933l.154,1.853a37.983,37.983,0,0,1-3.474-8.878m3.782-6.716-.077-.695a2.254,2.254,0,0,0,.154.695l.694,1.853c-.231-.619-.54-1.236-.772-1.853m14.435-99.656c.54.617,1.08,1.157,1.7,1.776l.156.154v.386l-.309-.386c-.541-.541-1-1.082-1.545-1.544l-.077-.232-.154-.463Zm1.93,5.944-.156-.154c-.153-.154-.386-.309-.54-.463l-.617-2.316.231.309c.309.232.617.54.926.772a14.771,14.771,0,0,1,.156,1.853m-2.7,6.484a3.982,3.982,0,0,0,.154.849l-.077-.154c-.309-.463-.617-.926-.849-1.313a13.3,13.3,0,0,1-1.082-2.469l.231.463a22.48,22.48,0,0,0,1.622,2.625m-3.782-11.58q.579.926,1.389,2.085c.232.772.54,1.62.849,2.548a42.354,42.354,0,0,1-2.238-4.632m.617-10.344c.231.309.463.54.694.849l.231.927.695,3.319-.232-.309c-.386-1.467-.926-3.011-1.312-4.324l-.077-.309-.077-.386Zm-6.562-19.3c.926,1.157,2.008,2.392,3.4,3.937a20.687,20.687,0,0,0,.54,2.083l.386,1.39c-.617-.927-1.235-1.93-2.006-3.011l-2.316-4.168-.694-1.236a11.125,11.125,0,0,0,.694,1m3.628,10.035v1.466l-.154-.232-.231-.772-.463-1.545.154.231a8.349,8.349,0,0,0,.694.85m-2.856-3.861.231.387a17.533,17.533,0,0,0,1.082,1.466,2.032,2.032,0,0,0,.077.926q-.812-1.5-1.39-2.779m.386,3.242c-.463-.694-.926-1.389-1.466-2.238-.231-1.159-.463-2.316-.617-3.4a1.614,1.614,0,0,0,.309.463,10.523,10.523,0,0,0,.309,1.312,16.174,16.174,0,0,0,1.466,3.859m-3.859-16.21c-.154-.85-.309-1.7-.386-2.47a6.047,6.047,0,0,0,.386,1.08,37.969,37.969,0,0,0,2.471,5.018c-.025,0-.029.014-.037.025-.829-1.133-1.439-2.046-2.047-2.881Zm1.313,137.249v-.387l.231.387c.617.772,1.389,1.7,2.392,2.856.077.309.231.617.309.926,0,.463.077,1.08.077,1.775-.772-1.312-1.543-2.856-2.469-4.554Zm.772,5.48v-.154a2.741,2.741,0,0,0,.309.695A39.816,39.816,0,0,0,141.9,580.2a6.054,6.054,0,0,0,.154,1.08c-.927-1.622-1.853-3.474-2.856-5.481M142.2,456.223l-.463-1.389-.077-.154-.156-.54c-.309-1-.617-2.008-.926-3.165a3,3,0,0,0,.463.849c.619,1,1.313,2.085,2.008,3.088.154,1.235.463,2.393.694,3.551-.54-.772-1-1.466-1.543-2.239m1.389-6.174c.077.154.231.309.309.463.386.463.849.926,1.236,1.389l.772,3.165q-.81-1.157-1.622-2.316c-.231-.926-.463-1.775-.694-2.7M147.607,588.3c-.463-.54-1-1.157-1.466-1.7a15.8,15.8,0,0,1-.386-1.852,1.685,1.685,0,0,0,.309.386A50.994,50.994,0,0,0,149,589.766l.077.077c0,.154.077.232.232.386a20.234,20.234,0,0,1-1.7-1.929m1.159-105.291a74.643,74.643,0,0,1-2.757-7.907,24.765,24.765,0,0,0,1.289,2.35,11.3,11.3,0,0,0,1.39,4.631,18.591,18.591,0,0,0,1.775,2.779c.386,1.466.926,2.934,1.467,4.4a46.793,46.793,0,0,1-3.165-6.253m3.087,101.432c-.386-.85-.694-1.776-1.08-2.625-.309-.772-.617-1.543-.926-2.393l.077.077.154.154a59.9,59.9,0,0,0,3.011,6.33,12.148,12.148,0,0,1-1.236-1.543m8.492-89.775c.463.309.926.617,1.466,1a22.263,22.263,0,0,0,2.471,4.322q-1.5-.926-2.779-1.852c-.54-1.236-1-2.47-1.466-3.782Zm-2.856-8.415q.81.81,1.622,1.622c.154.617.309,1.389.54,2.315l-.077-.077c-.54-.617-1.082-1.157-1.622-1.775l-.772-2.471Zm-3.474,3.011.077.154.154.154c.232.54.54,1.157.849,1.776l.077.154c-.386-.619-.694-1.236-1.08-1.853Zm.772,3.4-.386-1.543a3.226,3.226,0,0,0,.309.772,33.272,33.272,0,0,0,1.93,3.011,16.593,16.593,0,0,1-1.7-1.622Zm9.649,111,.077.154c.772,1.622,1.545,3.165,2.239,4.71a78.92,78.92,0,0,1-7.256-9.881c-1.236-1.93-2.471-3.782-3.859-5.867l-.077-.232a1.681,1.681,0,0,0,.386.309c.463.463.926,1,1.466,1.467.309.309.617.54.926.849a11.51,11.51,0,0,0,1.159,1.543,23.686,23.686,0,0,0,3.242,3.474l1.62,3.242Zm-.386-6.407c-.926-1.235-1.93-2.546-2.934-4.014l-.077-.077-.54-1.312v-.077l.154.232a9.242,9.242,0,0,0,.849.926c.773.772,1.545,1.545,2.316,2.239.154.617.309,1.466.54,2.393Zm1-10.73c-.309-.309-.617-.54-.926-.849-.154-.926-.231-1.852-.309-2.7a2.473,2.473,0,0,0,.231.7c.386.849.849,1.775,1.389,2.855v.077a.846.846,0,0,0,.077.387Zm8.569-84.294c.926.772,1.852,1.543,2.779,2.238-.309-.077-.54-.077-.85-.154-.617-.463-1.312-1-2.006-1.466a6.791,6.791,0,0,1-.386-1.157,1.038,1.038,0,0,0,.463.54m-.077,98.653a1.028,1.028,0,0,0,.386.231,32.531,32.531,0,0,0,2.006,4.014c-.386-.154-.849-.231-1.235-.386v-.154l-1.157-3.705m-1.622-4.555.154.077c.464,1.313.85,2.548,1.39,3.705l-.309-.231c-.309-.849-.617-1.7-.927-2.625-.154-.309-.231-.695-.386-1Zm-1.08,5.4.077.077.154.232.772,1.235.077.154-.386-.231-.309-.154-1.389-.926-.077-1.157-.077-1.081c.309.617.772,1.236,1.157,1.853m-4.477-4.71.154.232a11.6,11.6,0,0,0,1.235.85c.232.926.463,1.929.772,3.088-.386-.309-.849-.7-1.235-1-.309-1-.617-2.083-.926-3.165m7.565,15.9-.154-.232a19.607,19.607,0,0,1-2.239-2.779,22.333,22.333,0,0,1-1.312-2.316l.154.233a3.485,3.485,0,0,1,.54.54l-.386-.617-.617-.773a36.884,36.884,0,0,1-1.622-3.782l.154.231c.309.232.617.386.85.54.154.541.386,1.082.54,1.622l.154.463.077-.386-.077-1v-.386l.154.154a15.155,15.155,0,0,0,1.929,1,2.081,2.081,0,0,0-.617-.54l-.154-.154a8.893,8.893,0,0,1-1.312-1.082l.309.154a19.154,19.154,0,0,0,2.239.85c.849,1.466,1.775,3.011,2.778,4.554a36.156,36.156,0,0,1-1.389,3.705m.926.849L174.7,614v-.077a23.66,23.66,0,0,0,1.08-4.014v.154l.078.154.231.463.077.154v-.386a4.2,4.2,0,0,1,.54.7l-.231-1c-.154-.386-.232-.772-.386-1.08l-.078-.309a22.635,22.635,0,0,0,.154-3.24v0h0c0-.026,0-.05,0-.076a27.092,27.092,0,0,0,2.546,3.782Zm5.173-6.176a13.009,13.009,0,0,1-1.545-1.929,27.331,27.331,0,0,1-2.779-6.176c-.077-.309-.154-.54-.231-.849.309.54.619,1.157,1,1.775a41.26,41.26,0,0,0,3.319,4.787c.386.463.772.926,1.157,1.466Zm1.7-2.083c-.617-.849-1.312-1.776-1.929-2.779l.077.077a20.134,20.134,0,0,0,2.392,2.085Zm2.779-102.589.154.231.309.232c.386.309.772.54,1.157.849l.233.232-.541.154-.154.077-.926.156c-.077-.619-.154-1.313-.231-1.93m2.162,102.358c-.387-.694-.773-1.39-1.236-2.085l.54-.849.077-.077.231.386c.619.849,1.313,1.776,2.085,2.7a49.189,49.189,0,0,0,4.477,4.477c-2.006-1.312-4.014-2.856-6.174-4.554m6.56-2.007c-.849-1.158-1.543-2.083-2.238-2.934l-.231-.309-.057-.086c.322.209.55.418.829.626l.077.077a14.893,14.893,0,0,1,1.622,1.467Zm5.867.694c-.231-.077-.54-.077-.849-.154l-.231-.386-.54-.772.232.232a8.8,8.8,0,0,0,1.466.772,1.028,1.028,0,0,0,.232.386Zm5.1,2.934a2.765,2.765,0,0,0,.849.309l.077.077c.077.154.232.309.309.464l.077.154.54.617c-.617-.54-1.235-1-1.852-1.622m7.1,5.558c-.773-1-1.622-2.162-2.7-3.474l.386.309c.772.386,1.622.772,2.548,1.235l.232.154c.54.927,1.08,2.085,1.775,3.242-.772-.463-1.543-1-2.238-1.466M216,495.592l-.154.231-1.312,1c.309-.309.54-.617.849-.926l.694-.386Zm6.793-16.365a20.193,20.193,0,0,0,0,2.162l-.231-.463a3.766,3.766,0,0,0-.077-.927l.309-.849Zm5.558-10.267.077-.231v-.386a27,27,0,0,1,2.625-2.548,16.344,16.344,0,0,1,2.161-1.543,16.618,16.618,0,0,0-2.7,2.161,13.192,13.192,0,0,0-2.006,2.625.413.413,0,0,1-.231.309c0-.154.077-.232.077-.386m-3.165-2.856a3.344,3.344,0,0,0-.386.077,6.223,6.223,0,0,0-1.39.773l.463-.464a15.149,15.149,0,0,1,2.779-3.009c.386-.31.7-.541,1.082-.85a2.814,2.814,0,0,0-.386.85c-.387,1-.7,2.006-1,3.009a21.555,21.555,0,0,0-2.856,4.555l-.077-.309a14.435,14.435,0,0,0-.926-1.93,16.454,16.454,0,0,1,2.316-2.316c.154-.154.309-.232.463-.386Zm-3.319,19.916-.077.077-.154.232c-.154-1-.309-2.006-.386-3.088l.077.232c.231.85.386,1.622.54,2.393Zm-.154-10.035a11.606,11.606,0,0,0-1.082-2.7v-.463l.154.077a2.769,2.769,0,0,0-.076-.463,13.221,13.221,0,0,1,.386-1.7,2.727,2.727,0,0,1,.463-.7l.077.156a21.886,21.886,0,0,0,1.466,1.775,20.631,20.631,0,0,0-1.235,4.785,2.742,2.742,0,0,0-.154-.772m4.014,14.358-.077-.077c.386-.849.849-2.006,1.312-3.242a1.729,1.729,0,0,0,.231.773c0-.077-.077-.077-.154-.077a.464.464,0,0,0-.309.077l.077.077h.154c.154,0,.154,0,.231.077l.156.077a9.917,9.917,0,0,0,2.392,3.628h-.077l-.309-.077c-.309-.077-.54-.154-.772-.231l.077-.077c-.077-.077-.154-.154-.232-.154-.231-.077-.54-.077-.772-.156l-.309-.077-.541-.154-.154-.077c-.309-.077-.617-.231-.926-.309M231.9,609.065a7.587,7.587,0,0,0-.85,1.157,14.317,14.317,0,0,0-2.855-1.543c-.309-.154-.54-.232-.849-.386h.076a.275.275,0,0,0,.156-.077,13.784,13.784,0,0,1-1.545-1.467l.386.154h.386l.617-.077.233.077.463.231c1.157.541,2.392,1,3.782,1.545Zm1.7-1.776a2.587,2.587,0,0,0-.463.464,2.147,2.147,0,0,1-.077-.7,1.455,1.455,0,0,0,.617.154Zm2.548,6.947.077.077h.695a6.049,6.049,0,0,0,.154,1.082q-.347-.463-.926-1.159m1-6.56a30.066,30.066,0,0,0-.386,4.477,1.917,1.917,0,0,1,.077.617c-.772,0-1.466-.077-2.239-.077a17.908,17.908,0,0,1-.849-2.162,18.751,18.751,0,0,0,1.467-2.083l.154-.077.077-.077.54-.309.309-.232.309-.233h.617Zm1.082,5.171c.077-1.775.231-3.474.463-5.327h.54c-.077.156,0,.387,0,.619a11.974,11.974,0,0,0,.231,3.4,3.8,3.8,0,0,0,.463,1.312Zm5.866-.077h-.231c-.926,0-1.929,0-2.856.077l-.077-.232a27.336,27.336,0,0,1-.309-4.631v-.541l.231.154.154.156c.85.694,1.7,1.466,2.7,2.392a10.577,10.577,0,0,0,.617,2.7Zm11.657-116.947a7.5,7.5,0,0,1,1.389-.077,14.9,14.9,0,0,1,1.853.077l-.309.154c-.31.309-.7.617-.927.849-.867-.217-1.878-.508-2.953-.86a4.853,4.853,0,0,1,.947-.143m.077,2.7a4.043,4.043,0,0,1-.927,1.08c-1.466-.617-2.778-1.157-4.091-1.62l.232-.31c.619-.695,1.159-1.389,1.776-2.083a1.385,1.385,0,0,0,.386.54,2.739,2.739,0,0,0-.926.617l.077.077.309-.154a2.741,2.741,0,0,1,.695-.309,11.746,11.746,0,0,0,2.548,2.162Zm4.014,2.161c-.849.077-1.543.077-2.162.154l-.232-.077c-.309-.154-.617-.309-1-.463a10.478,10.478,0,0,0,.926-.926,14.748,14.748,0,0,0,2.934,1.389Zm3.937-2.855v.232c-1.543-.232-2.856-.464-4.091-.773l-.54-.154h-.077l.154-.154.849-1c1.389.309,2.856.695,4.245,1.08h.077a5.487,5.487,0,0,1-.617.773m4.94.694-.386.154q-.926-.116-2.315-.231l-.309-.077-.309-.077.154-.077.232-.232.309-.387c.926.31,1.852.619,2.779.85Zm1.159,101.739-.154.077-.231.154-.309.31-.154.232-.077-.309a6.631,6.631,0,0,0,1.158-.7Zm.386-103.747-.231-.077-.309-.077a18.772,18.772,0,0,0-2.316-.694l.232-.231,1.39-1.853.077.309a15.1,15.1,0,0,0,1.312,2.47Zm13.818-7.8c-.231.617-.463,1.235-.772,2.239a11.429,11.429,0,0,1-1,.617l-.077.077-.154.077.154-.54.156-.464a23.859,23.859,0,0,0,1.929-2.392Zm1.235,108.224a10.871,10.871,0,0,0-.772-2.932,6.892,6.892,0,0,0,.617-.387c.541-.386,1.082-.849,1.622-1.312v.231l.077.154a10.492,10.492,0,0,1,.309,1.313,21.74,21.74,0,0,1-1.853,2.932m4.014-6.87-.231.463-.386.7-.077.154-.077.154c-.077-.232-.077-.463-.154-.695a9.1,9.1,0,0,0,1.236-1.236Zm1.7-117.024c-1.312,1.622-2.779,3.4-4.4,5.4l.386-.926.463-1.159c.926-2.315,1.852-4.4,2.856-6.33a32.954,32.954,0,0,1,4.785-7.024,44.317,44.317,0,0,0-.772,4.632l-.463.772c.077-.154.077-.309.154-.463v-.309l-.617.926-.463.849c-.619,1.236-1.313,2.393-1.93,3.628M302.07,576.1l-.309.773-.54,1.543a80.231,80.231,0,0,1-4.014,9.264c-.927,1.775-1.776,3.319-2.625,4.631l-2.162-1.389-.154-.077a47.269,47.269,0,0,0,3.011-6.484,62.569,62.569,0,0,0,5.25-6.176c.694-.926,1.312-1.853,1.929-2.779Zm8.569-13.045c-.463,1.466-.927,3.009-1.39,4.554-.154.463-.309.926-.463,1.312a18.019,18.019,0,0,0,.309-2.006c.154-.773.386-1.622.54-2.393l.156-.54.386-.617.926-1.545Zm10.961-20.3-.386.54.077-.309v-.154l.077-.232.232-.773Zm4.631-4.015-.077.541-.309,1.7c-.463,3.011-1.08,6.1-1.62,8.8v.232l-.309,1.235-.077.232a20.059,20.059,0,0,1-.464-3.4v-.232l.077-.309c.7-2.393,1.236-4.863,1.7-7.333l.077-.309c.386-.54.772-1.159,1.158-1.7Zm.54-4.554c-.309.617-.695,1.235-1,1.853.154-1,.231-2.162.309-3.319.077-1.236.154-2.548.154-4.014l.077-.233.309-.772.077-.154.077-.154a4.744,4.744,0,0,0-.077,1.08c0,1.467.077,3.088.154,5.25Zm5.867-18.449c-.309,1.157-.617,2.315-.849,3.4l-.54,2.161-.232,1-.772,3.551c.076-1.159.154-2.316.307-3.474l.078-1,.077-.849.077-1.235c.077-.309.232-.617.309-.926q1.042-1.97,1.852-3.474a5.859,5.859,0,0,0-.309.849m3.859,8.028c-.463,2.548-1,5.172-1.7,7.719v.077c-.077.31-.154.541-.232.773a22.093,22.093,0,0,1-1.236,3.4c.077-3.705.154-7.412.309-10.962.85-1.852,1.776-3.859,2.625-6.02l-.077.309-.077.617c-.231,2.316-.386,4.245-.54,5.867a1.716,1.716,0,0,0,.386-.85c.309-.694.54-1.543.849-2.392a9.924,9.924,0,0,0-.309,1.466m5.481-31.88v-.309l.154-2.239c.077.926.231,1.776.386,2.625-.154.617-.463,1.312-.694,2.006Zm-.154,12.5c-.154.927-.232,2.008-.386,3.165-.463.927-1,2.008-1.467,3.165,0-.232.077-.463.077-.617v-.077c.154-.926.232-1.929.386-2.856.464-1.312.85-2.7,1.236-4.014l1.158-3.937a41.044,41.044,0,0,0-1,5.171m4.4-2.778c0-1.082-.077-2.316-.077-3.705l.077-1.776v-.54a18.831,18.831,0,0,0,.077-2.085v.309c.154.463.232.85.386,1.236a49.239,49.239,0,0,1-.463,6.562m10.344-40.527c-.309,1.158-.617,2.471-.849,3.86a43.94,43.94,0,0,0-.772,6.1l-.077-.773c-.233-2.161-.387-3.937-.464-5.557.773-1.466,1.545-2.934,2.393-4.4a1.3,1.3,0,0,0-.232.772m4.708-.154c-.154.463-.232.926-.386,1.466l-.154.463a10.538,10.538,0,0,1-.694,1.93,7.336,7.336,0,0,1-.463,1.389c.077-2.856.232-5.711.463-8.336.077-1.08.232-2.162.386-3.242l.154-.231.463-.617a.586.586,0,0,0-.076.386c-.078.617-.078,1.235-.156,1.852a19.238,19.238,0,0,0,.54,4.71Zm1-4.323a15.8,15.8,0,0,1-.386,1.852,21.6,21.6,0,0,1,.386-3.705,7.438,7.438,0,0,0,0,1.853m9.185-17.06v.077c-.386.695-.849,1.389-1.235,2.006l.077-.694.077-1.389.077-.464.077-1.235c.386-.926.772-1.852,1.08-2.779a2.632,2.632,0,0,0-.077.773c.077,1,.156,2.006.232,3.087-.076.232-.232.387-.309.619m4.092-14.127c-.85,3.242-1.545,6.33-2.162,9.186v-1.543c0-1.082,0-2.085.077-3.011.463-1.313.926-2.548,1.312-3.859v-.154c.309-.927.7-1.93,1-2.856.695-1.853,1.235-3.474,1.775-4.787-.695,2.239-1.312,4.4-2.006,7.025m6.1,7.024c-.077.387-.154.773-.232,1.082l-.077.231-.077.231-.154-.463c-.154-.54-.309-1.082-.463-1.7a60.8,60.8,0,0,1-1.235-6.716l.077-.772c.386-1.543.772-3.011,1-4.477l.232-.694.772-2.008-.077.617c0,.617-.077,1.236-.077,1.853v.772l.154,2.008a11.991,11.991,0,0,0,.386-1.313q.465-1.736.927-3.937v.309c.154.617.309,1.313.463,1.93a103.039,103.039,0,0,1-1.622,13.045m2.008-18.912-.077.772v.617l-.077.927-.077,1.389a15.969,15.969,0,0,1-.309-1.7c.154-.85.386-1.776.54-2.7Z" transform="translate(1216.054 360.595)" fill="#eaeaea" style="mix-blend-mode: luminosity;isolation: isolate"/>
      <path id="Path_22" data-name="Path 22" d="M325.412,405.026c.08,1.194.132,2.41.1,3.648,0,.926-.077,1.852-.154,2.778a27.947,27.947,0,0,0,.849-5.094c.039-.432.048-.887.072-1.332Z" transform="translate(1284.933 360.595)" fill="#eaeaea"/>
      <path id="Path_23" data-name="Path 23" d="M321.69,408.6c0,1.312,0,2.7.077,4.014l.154-.54.077-.617v.849c.077,1,.231,2.085.386,3.165l.077-1.389v-6.33c.154-.85.231-1.7.386-2.548l.044-.174h-1.464c.065,1.237.137,2.437.263,3.571" transform="translate(1283.971 360.595)" fill="#eaeaea"/>
      <path id="Path_24" data-name="Path 24" d="M86.262,407.824l.231-1,.077-.463-.077.772c0,1.235-.077,2.392-.077,3.628v.617l.154-.154v-.154c.161-.344.284-.667.418-1,.239-1.6.447-3.245.646-5.043H86.325a32.436,32.436,0,0,0-.372,3.724,4.351,4.351,0,0,0,.309-.926" transform="translate(1226.375 360.595)" fill="#eaeaea"/>
      <path id="Path_25" data-name="Path 25" d="M85.794,415.234v-1.62c0-2.47.231-5.173.54-8.338.01-.082.021-.168.031-.25h-1.1c-.031.289-.072.575-.093.867a35.48,35.48,0,0,0,.54,10.035,2.136,2.136,0,0,0,.077-.694" transform="translate(1226.148 360.595)" fill="#eaeaea"/>
      <path id="Path_27" data-name="Path 27" d="M70.8,455.945a5.992,5.992,0,0,1,.168.636c.021.07.042.143.063.213l.154.54.077.231.231-.386a.589.589,0,0,1-.154-.386,19.925,19.925,0,0,1-.694-2.7c-.229-.381-.458-.838-.687-1.221.075.278.149.563.224.835l.231.927.241.9c.029.1.058.2.088.294Z" transform="translate(1222.463 372.298)" fill="#eaeaea"/>
      <path id="Path_29" data-name="Path 29" d="M59.234,438.281c-.113-.187-.245-.393-.376-.609q.5,1.578.992,3a51.7,51.7,0,0,0,3.088,6.793,17.783,17.783,0,0,0,1.08,1.776l.154.309c0,.077.077.077.077.154l-.077-.309a57.278,57.278,0,0,1-3.8-8.843c-.148-.373-.314-.731-.449-1.115Z" transform="translate(1219.748 368.581)" fill="#eaeaea"/>
      <path id="Path_30" data-name="Path 30" d="M185.747,471.835c.154-.232.309-.386.463-.617l-.077-.154v-.154c-.154.309-.232.617-.386.926" transform="translate(1250.784 376.71)" fill="#eaeaea"/>
    </g>
    <path id="Top_Head" data-name="Top Head" d="M1.477,224.014a49.009,49.009,0,0,0,3.242,5.636l.694,1.157.077.077.077.154a26.637,26.637,0,0,1,1.467,2.625c.231.463.386.849.617,1.389l.077.154a2.768,2.768,0,0,0,.309.7c.617,1.466,1.312,2.855,2.085,4.477l.154.231.54,1.157c1,2.162,2.238,4.632,3.4,7.179a70.59,70.59,0,0,1,2.625,6.639c.154.617.309,1,.386,1.467a5.5,5.5,0,0,0-1.622-.231,2.626,2.626,0,0,0-.772.077,4.659,4.659,0,0,0-3.4,2.161,5.98,5.98,0,0,0-.772,2.162,9.432,9.432,0,0,0-.077,2.085v.153a22.148,22.148,0,0,0,.849,4.4c.37,1.294.787,2.539,1.222,3.728h42.1c-.244-.713-.488-1.438-.716-2.184a26.971,26.971,0,0,1-1.235-6.947,18.865,18.865,0,0,1,.463-4.014c.54-1.93,1.235-3.859,1.7-5.25l.077-.154a56.562,56.562,0,0,0,1.929-6.252,30.37,30.37,0,0,0,.154-9.881v-.54c-.077-1.159-.231-2.393-.231-3.552a27.12,27.12,0,0,1,.386-4.554c.077-.386.231-.694.309-1a16.293,16.293,0,0,1,2.008-2.548l.077-.154.077-.077.077-.077.077-.154c.309-.386.617-.694.926-1.08a19.113,19.113,0,0,0,2.393-5.1,48.817,48.817,0,0,0,2.008-12.119c.154-2.548.154-5.173.231-7.487v-.619c.077-5.557.154-11.347,1.389-16.828a33,33,0,0,1,2.7-7.179,48.794,48.794,0,0,1,2.779-4.168c1-1.389,2.161-2.856,3.474-4.554,2.161-2.7,4.631-5.558,7.487-8.646a188.888,188.888,0,0,1,36.434-30.181c3.552-2.162,6.87-4.092,10.19-5.79,1.39-.694,2.856-1.389,3.861-1.853l.309-.154,1.235-.617,2.548-1.157.154-.077c1.312-.617,2.548-1.236,3.859-1.853a198.306,198.306,0,0,1,25.4-10.344l.154-.077h.077a77.823,77.823,0,0,1,20.148-3.474h1.082a81.8,81.8,0,0,1,9.571.617c3.4.464,6.87,1.082,9.958,1.7h.231l1.159.231c7.487,1.466,15.361,2.779,24.084,4.091,7.41,1.08,15.206,2.162,23.853,3.242,2.238.232,4.4.54,6.561.849l1.62.231,3.937.464a85.486,85.486,0,0,1,10.112,1.775,95.7,95.7,0,0,1,21.228,8.413,90.858,90.858,0,0,1,18.45,13.355,80.377,80.377,0,0,1,6.1,6.484c.232.309.463.54.694.849l.154.156c.617.694,1.235,1.466,1.929,2.161a31.182,31.182,0,0,0,3.165,2.779,44.639,44.639,0,0,0,5.558,3.551l1.312.772.077.077a46.434,46.434,0,0,1,6.947,4.941,15.141,15.141,0,0,1,2.316,2.625c.772.926,1.389,2.006,1.93,2.778l.076.154a118.952,118.952,0,0,1,8.337,16.982c.54,1.236,1.08,2.471,1.543,3.705l.464,1.082.154.386,1.389,3.242,1.62,3.705.154.386a47.686,47.686,0,0,1,1.776,4.863,104.733,104.733,0,0,1,3.011,18.141v.154c.386,3.705.772,7.565,1.466,11.27a47.569,47.569,0,0,0,4.632,14.358,5.754,5.754,0,0,0,.54.926l.154.233.154.309.077.077a16.338,16.338,0,0,1,.849,1.62c.54,1.08,1.08,2.162,1.776,3.782a74.319,74.319,0,0,1,2.779,7.487c1.548,5.184,2.622,10.479,3.642,15.693H431.3a8.017,8.017,0,0,0-1.63-3.265,11.382,11.382,0,0,0-2.162-2.162,4.078,4.078,0,0,0-1.08-.617,2.61,2.61,0,0,0-.927-.309,8.329,8.329,0,0,0-2.469-.309,28.652,28.652,0,0,0-3.705.386c-.927.154-1.93.309-2.934.386a2.64,2.64,0,0,1-.849-.077,2.023,2.023,0,0,1-.464-.386,5,5,0,0,1-.617-.694.59.59,0,0,1-.154-.386v-.232a.7.7,0,0,1,.077-.386,2.747,2.747,0,0,1,.309-.7,15.219,15.219,0,0,1,2.393-2.932,20.614,20.614,0,0,0,2.548-3.242,6.414,6.414,0,0,0,.694-1.622,11.072,11.072,0,0,0,.309-1.7c.154-1.545.154-3.088.154-4.555a47.621,47.621,0,0,0-.772-9.185,29.364,29.364,0,0,0-1.467-4.632c-.154-.386-.309-.694-.463-1.08l-.077-.154v-.077a9.418,9.418,0,0,1-.54-1.312,2.148,2.148,0,0,1-.077-.7,10.542,10.542,0,0,1,.154-1.466,35,35,0,0,1,1.7-4.71c.386-.772.849-1.62,1.235-2.392l.077-.154.077-.231c.617-1.082,1.157-2.085,1.7-3.011.927-1.622,1.776-3.242,2.7-4.941.85-1.466,1.467-2.778,2.085-4.091a18.521,18.521,0,0,0,1.389-3.242,5.058,5.058,0,0,0,.31-2.856,5.292,5.292,0,0,0-2.625-3.474,14.676,14.676,0,0,0-5.944-1.466,25.025,25.025,0,0,1-3.088-.463,10.3,10.3,0,0,1-1.389-.54c-.156-.154-.387-.232-.541-.386a6.764,6.764,0,0,1-.617-.773,10.93,10.93,0,0,1-.617-1.389,11.245,11.245,0,0,1-.309-2.393,35.053,35.053,0,0,1,.926-7.1l.154-.694a34.909,34.909,0,0,0,.849-6.947A13.956,13.956,0,0,0,415,175a15.86,15.86,0,0,0-1.62-3.705,41.714,41.714,0,0,0-2.548-3.859l-.154-.154-.386.463c-.617-.85-1.157-1.622-1.7-2.471a18.61,18.61,0,0,1-1.622-3.319,22.593,22.593,0,0,1-.386-2.239,11.543,11.543,0,0,1,.463-3.088l.232-.849a28.12,28.12,0,0,0,.927-4.554,12.765,12.765,0,0,0-.233-3.4,9.6,9.6,0,0,0-1.235-3.088,20.548,20.548,0,0,0-4.863-5.1c-.773-.617-1.622-1.235-2.316-1.7l-.463-.309-.463-.386-.077-.077c-.54-.386-1.082-.772-1.622-1.236-.463-.463-.849-1-1.235-1.466-.386-.54-.772-.926-1.08-1.312a7.652,7.652,0,0,0-4.092-2.471,9.456,9.456,0,0,0-1.466-.154h-.694a6.068,6.068,0,0,0-1.7.386l-.309.077a6.471,6.471,0,0,0-1.466.694c-.54.309-1,.617-1.467.926l-.231.154c-.463.233-.849.464-1.157.619h-.077a1.5,1.5,0,0,1-.617-.077c-.154-.077-.386-.154-.54-.231l-.31-.31-.076-.154v-.386a5.21,5.21,0,0,1,.154-1,8.623,8.623,0,0,1,.849-2.008,20.59,20.59,0,0,1,2.315-3.164,21.1,21.1,0,0,1,2.856-2.471,11.551,11.551,0,0,1,1.39-.694,3.46,3.46,0,0,1,.849-.077,31.98,31.98,0,0,1,3.551.309l.926.077a27.633,27.633,0,0,0,3.165.232,13.384,13.384,0,0,0,2.471-.232,7.411,7.411,0,0,0,2.315-.773,6.956,6.956,0,0,0,2.085-1.7,4.683,4.683,0,0,0,.54-.772l.077-.154a13.49,13.49,0,0,0,.7-1.467,5.223,5.223,0,0,0,.153-2.856c-.772-3.319-4.323-4.477-7.719-5.171a14.246,14.246,0,0,0-1.775-.309h-.231a11.7,11.7,0,0,0-2.316-.154h-1.08c-1,.077-2.008.154-2.856.309h-.077l-.309.077h-.231c-.85.077-1.776.231-2.625.231a15.069,15.069,0,0,1-1.93-.154,4.123,4.123,0,0,1-1.08-.463,15.425,15.425,0,0,1-1.389-1,12.491,12.491,0,0,1-1.313-1.543c-.154-.309-.309-.617-.463-1-.077-.309-.077-.617-.154-.849a7.6,7.6,0,0,1,.154-1.313,19.729,19.729,0,0,1,1.545-3.628l.232-.386.077-.154a1.932,1.932,0,0,1,.309-.54,13.962,13.962,0,0,0,1-2.625,21.854,21.854,0,0,0,.54-2.779,14.063,14.063,0,0,0-.231-5.79,7.62,7.62,0,0,0-1.312-2.469,6.382,6.382,0,0,0-2.471-1.776,6.466,6.466,0,0,0-3.011-.772,6.754,6.754,0,0,0-1.235.154,6.065,6.065,0,0,0-2.008.926,5,5,0,0,0-1.312,1.236l-.077.154a15.344,15.344,0,0,0-1.93,3.011l-.077.154a13.969,13.969,0,0,1-1.852,2.856c-.154.154-.309.232-.464.386a9.7,9.7,0,0,1-2.161.849,18.154,18.154,0,0,1-4.245.617h-.154a23.821,23.821,0,0,1-5.25-.617A22.408,22.408,0,0,1,350,90.856a20.492,20.492,0,0,1-3.861-2.779,14.869,14.869,0,0,1-2.238-2.7,15.777,15.777,0,0,1-1.082-2.316c-.076-.386-.154-.772-.232-1.157a2.9,2.9,0,0,1,.077-.85c.154-.386.31-.772.464-1.235a8.654,8.654,0,0,0,.617-1.852,5.639,5.639,0,0,0-.927-4.015,11.3,11.3,0,0,0-.695-1,3.563,3.563,0,0,0-.54-.54l-.231-.154a8.835,8.835,0,0,0-1.853-1c-.772-.309-1.543-.541-1.929-.7a18.819,18.819,0,0,1-2.471-.849l-.694-.463c-.154-.231-.386-.463-.617-.772a15.028,15.028,0,0,1-1-2.239,32.808,32.808,0,0,1-.85-7.719v-.694a30.672,30.672,0,0,0-.309-4.324,34.827,34.827,0,0,0-.772-3.4,17.348,17.348,0,0,0-1.543-4.168,7,7,0,0,0-.85-1.235,3.44,3.44,0,0,0-1.775-1c-.154,0-.309-.077-.463-.077a3.015,3.015,0,0,0-2.085.926,11.6,11.6,0,0,0-1.775,2.546c-.619,1.082-1.159,2.316-1.622,3.243-.54,1.08-1,2.083-1.543,3.087a23.253,23.253,0,0,1-2.548,3.782,6.178,6.178,0,0,1-1.08.927,2.749,2.749,0,0,1-.7.309H314.8a3.34,3.34,0,0,0-.386.077,1.7,1.7,0,0,1-.617-.077,5.86,5.86,0,0,1-.849-.309c-.463-.309-.926-.617-1.313-.927-.231-.231-.386-.463-.617-.694a12.239,12.239,0,0,1-.617-1.389c-.232-.772-.309-1.545-.463-2.162v-.386c-.154-.772-.309-1.62-.54-2.393a8.044,8.044,0,0,0-.926-2.315,13.7,13.7,0,0,0-1.93-2.7,21.433,21.433,0,0,0-4.4-3.705l-.541-.386a30.936,30.936,0,0,1-4.014-3.088,36.036,36.036,0,0,1-4.708-6.1l-.154-.309a26.051,26.051,0,0,0-3.165-4.477,14.257,14.257,0,0,0-2.393-2.008,10.2,10.2,0,0,0-3.242-1.312,13.521,13.521,0,0,0-3.088-.309,24.033,24.033,0,0,0-5.326.694,18.614,18.614,0,0,0-3.319,1.08,7.142,7.142,0,0,0-.772.386l-.617-.617-.156-.154-.386-.386c-.463-.386-.849-.772-1.312-1.157l-.386-.31-.077-.076-.154-.078-.154-.077c-.772-.694-1.545-1.312-2.239-2.006l-.077-.077c-1.157-1.08-2.393-2.239-3.782-3.319a20.442,20.442,0,0,0-5.79-2.934,1.963,1.963,0,0,0-.54-.154c-.231-.077-.463-.077-.694-.154l-.154-.077-.232-.077h-.154l.077.077-.849-.309-.464-.154-.617-.154c-.926-.231-1.7-.463-2.471-.694s-1.543-.464-2.392-.7l-.231-.077-.386-.154-.154-.077a2.143,2.143,0,0,0-1.776-1h-.386a9.685,9.685,0,0,0-4.554,1.93,5.487,5.487,0,0,0-1.853,3.551,5.167,5.167,0,0,0,0,1.543v.231a10.035,10.035,0,0,0,.232,1.7v.156l.154.694c.154.926.386,1.852.463,2.856,0,.463-.077.772-.077,1.08-.077.154-.154.386-.232.54s-.231.309-.309.463a6.96,6.96,0,0,1-.772.694c-.232.078-.386.233-.617.31h-.154c-.154,0-.232.076-.386.076a1.732,1.732,0,0,1-.619-.076c-.154-.077-.386-.156-.54-.231a4.322,4.322,0,0,1-.694-.541,3.865,3.865,0,0,0-.54-.617,2.023,2.023,0,0,0,.386-.694l.077-.154a3.312,3.312,0,0,0,.309-1.08,3.726,3.726,0,0,0,0-1.313,6.048,6.048,0,0,0-1.389-2.7l-.154-.231-.231-.309a.268.268,0,0,0-.078-.154l.078-.077.077-.231a4.955,4.955,0,0,1,.772-1A26.947,26.947,0,0,1,238,14.127c.463-.309.849-.617,1.235-.849a17.988,17.988,0,0,0,2.316-1.93,6.888,6.888,0,0,0,1.776-2.7,5.1,5.1,0,0,0,.231-1.929,8.977,8.977,0,0,0-.464-1.7,4.843,4.843,0,0,0-.926-1.389,11.331,11.331,0,0,0-1.7-1.545,8.037,8.037,0,0,0-1.93-1.157,12.142,12.142,0,0,0-2.393-.772A6,6,0,0,0,234.908,0a6.638,6.638,0,0,0-1.235.077,13.17,13.17,0,0,0-2.471.54L231.049.7h-.617a.986.986,0,0,0-.464.077l-.54.077c-.54.077-1,.231-1.389.309q-1.158.347-2.779.926a47.544,47.544,0,0,0-5.944,2.934,66.052,66.052,0,0,0-7.41,5.4,6.785,6.785,0,0,1-.772.463l-.077.077a7.981,7.981,0,0,0-2.625,2.471,3.674,3.674,0,0,0-.386,2.548,11.864,11.864,0,0,0-.694,1.466l-.077.154a11.149,11.149,0,0,0-.54,2.008v.154c-.077.231-.077.386-.154.617a20.932,20.932,0,0,1-.694,2.779,14.353,14.353,0,0,1-1.622,2.624v-.077c-.077-.154-.077-.309-.154-.463l-.077-.154-.154-.463-.309-1c-.386-1.236-.772-2.548-1.236-3.782a12.058,12.058,0,0,0-1-2.008,23.283,23.283,0,0,0-2.161-3.088,10.489,10.489,0,0,0-8.26-3.705,14.041,14.041,0,0,0-2.471.231l-.463.077h-1.08c-.926,0-2.008.077-3.242.154a53.558,53.558,0,0,0-9.8,1.853,31.309,31.309,0,0,0-4.94,1.929,13.428,13.428,0,0,0-3.782,2.548,7.793,7.793,0,0,0-1.467,2.085,7.5,7.5,0,0,0-.54,3.242c.077.926.309,1.852.463,2.7l.077.387a16.5,16.5,0,0,1,.54,2.932,6.01,6.01,0,0,1-.154,1.236,2.311,2.311,0,0,1-.309.772,11.044,11.044,0,0,1-.849,1.157,9.774,9.774,0,0,1-1,.849,9.286,9.286,0,0,1-1.545.7,10.648,10.648,0,0,1-2.856.386h-.231a42.3,42.3,0,0,1-5.634-.54c-1.39-.231-2.471-.386-3.551-.464a10.894,10.894,0,0,0-1.545-.077,33.488,33.488,0,0,0-3.551.233,17,17,0,0,0-4.631,1.235c-3.011,1.389-5.1,4.014-6.793,6.716a13.794,13.794,0,0,0-1.7,3.705l-.232.694a9.274,9.274,0,0,1-.694,1.93,1.683,1.683,0,0,1-.309.386c-.077.077-.231.154-.309.231-.154.077-.386.154-.54.231a9.035,9.035,0,0,1-1.7.231h-.154a11.692,11.692,0,0,1-2.238-.154c-.541-.077-.927-.077-1.313-.154a14.79,14.79,0,0,1-2.779-1,19.464,19.464,0,0,1-2.238-1l-.154-.077-.231-.077-.077-.077-.231-.154-.541-.231a57.377,57.377,0,0,0-7.565-2.934,22.935,22.935,0,0,0-3.859-.694h-.463a9.732,9.732,0,0,0-3.319.617,7.711,7.711,0,0,0-2.934,2.239,9.861,9.861,0,0,0-1.7,4.091c-.154.694-.231,1.39-.309,1.776a1.851,1.851,0,0,0,1.775,2.006h.309a10.835,10.835,0,0,1,1.39-.154,12.8,12.8,0,0,1,1.852.154,6.676,6.676,0,0,1,1.312.54,9.282,9.282,0,0,1,1.082.773,11.543,11.543,0,0,1,.849,1,6.841,6.841,0,0,1,.617,1.312,4.983,4.983,0,0,1,.231,1.545,11.511,11.511,0,0,1-.154,1.62,11.266,11.266,0,0,1-.54,1.467,8.56,8.56,0,0,1-.926,1.235,10.949,10.949,0,0,1-1.39,1.157,12.316,12.316,0,0,1-2.083.927A11.757,11.757,0,0,1,97.042,65h-.231a9.371,9.371,0,0,1-1.545-.077c-.617-.077-1.157-.154-1.929-.309a9.019,9.019,0,0,1-1.39-.309l-.309-.077-.309-.077-.309-.077h-.232l-.386-.078-.386-.077c-.386-.077-.849-.154-1.236-.231a35.221,35.221,0,0,0-5.017-.617h-1a13.153,13.153,0,0,0-1.622.077,10.781,10.781,0,0,0-2.548.54,9.29,9.29,0,0,0-1.929,1c-.231.154-.386.309-.694.54a11.023,11.023,0,0,0-1.159,1.389,6.73,6.73,0,0,0-1.08,2.393,4.052,4.052,0,0,0,.309,2.316,4.339,4.339,0,0,0,1.39,1.7,7.078,7.078,0,0,0,1.62,1l.231.077c.694.309,1.39.619,2.008.927h.077c.54.231,1,.386,1.466.617.154.077.232.077.309.154a16.19,16.19,0,0,1,1.545,1.157,14.4,14.4,0,0,1,1.852,2.085,7.139,7.139,0,0,1,.386.772v.309l-.077.154c-.077.077-.077.154-.154.154a6.747,6.747,0,0,1-.772.617,26.282,26.282,0,0,1-4.708,1.93c-1.236.386-2.548.694-3.551,1-1.467.386-2.934.85-4.555,1.313a13.3,13.3,0,0,0-1.62.54,5.319,5.319,0,0,0-.772.309,5.085,5.085,0,0,0-1.39.772,3.334,3.334,0,0,0-.772.772,1.671,1.671,0,0,0-.231.387,5.326,5.326,0,0,0-.694,1.543,13.628,13.628,0,0,0-.309,1.543.166.166,0,0,0-.154-.154l-.077-.077a9.213,9.213,0,0,1-1.622-1.312c-.54-.463-1.08-.849-1.62-1.235a14.161,14.161,0,0,0-1.313-.773,6.142,6.142,0,0,0-1.543-.54,3.465,3.465,0,0,0-.85-.077,8.567,8.567,0,0,0-2.855.617,7.4,7.4,0,0,0-1.082.464l-.077.077a7.116,7.116,0,0,1-.617.386L53.042,89l-.154.231a2.851,2.851,0,0,0-.54,1.08l-.077.154a2.864,2.864,0,0,0-.154.694,3.762,3.762,0,0,0,.077.927,6.516,6.516,0,0,0,.849,2.083,13.436,13.436,0,0,1,.849,1.39l.154.154.309.463c.31.54.541,1.08.773,1.543,0,.154.077.386.077.54a10.542,10.542,0,0,1-.154,1.467,17.768,17.768,0,0,1-1.545,3.782c-.463.849-1,1.775-1.62,2.7-.077-.077-.154-.077-.309-.077l-.387-.077-.309-.077-.309-.077-.231-.077a3.874,3.874,0,0,0-.926-.154c-.231-.077-.54-.077-.772-.154h-.154c-.386-.077-.7-.077-1.082-.154a6.924,6.924,0,0,0-.694-.233,7.245,7.245,0,0,1-1.389-1.08l-.077-.077a8.867,8.867,0,0,0-2.162-1.466,1.661,1.661,0,0,0-.849-.154,2.734,2.734,0,0,0-1.467.463,2.35,2.35,0,0,0-.694,1L40,103.9a3.305,3.305,0,0,0-.386,1.235l-.077.31a8.38,8.38,0,0,0-.077,3.087,7.745,7.745,0,0,0,1.157,2.548,8.573,8.573,0,0,0,1.545,1.853c.463.463.926.849,1.389,1.312l.463.463a12.58,12.58,0,0,1,1.853,2.085,4.561,4.561,0,0,1,.463,1.08,6.418,6.418,0,0,1,.154,1,1.508,1.508,0,0,1-.077.619,17.028,17.028,0,0,1-.926,2.083l-.077.231c-1.082,2.008-2.393,4.014-3.937,6.407-.386.54-.773,1.159-1.313,1.853l-.077.077-.54.772-.309.463-.154.232-.077.077-.309.463-.309.463-.154.233-.463-.233c-.233-.077-.387-.154-.619-.232-.54-.231-1.157-.386-1.7-.617l-.154-.077c-.386-.154-.694-.231-.926-.309a23.493,23.493,0,0,1-2.239-1.62l-.077-.077c-.772-.541-1.389-1-2.008-1.39-.463-.309-1-.54-1.543-.849a13.24,13.24,0,0,0-1.622-.54,6.847,6.847,0,0,0-1.157-.154,5.824,5.824,0,0,0-2.239.463,5.386,5.386,0,0,0-1.389.926,6.71,6.71,0,0,0-1,1.157,7.947,7.947,0,0,0-.617,1.159,4.917,4.917,0,0,0-.31,1l-.077.386A6.314,6.314,0,0,0,20,133.931a8.549,8.549,0,0,0,.619,2.238,11.389,11.389,0,0,0,.849,1.7,20.156,20.156,0,0,0,1.62,2.316,40.6,40.6,0,0,0,3.551,3.705c1.776,1.7,3.782,3.4,5.1,4.477l.154.154c1.157,1,2.316,2.008,3.4,3.011.309.309.694.617,1,.926a21.932,21.932,0,0,1,3.628,4.091,7.124,7.124,0,0,1,.54,1.082c0,.154.077.231.077.386a5.957,5.957,0,0,1-.154,1.157l-.231.694-.154.154a1.506,1.506,0,0,1-.54.077,19.235,19.235,0,0,1-3.551-.54h-.077l-.309-.077-.694-.154a23.083,23.083,0,0,0-2.548-.386h-.772c-.617,0-1.159.077-1.7.077h-.386a44.809,44.809,0,0,0-5.634.926,40.954,40.954,0,0,0-6.562,2.162,28.252,28.252,0,0,0-5.79,3.319,31.507,31.507,0,0,0-2.316,2.162,12.433,12.433,0,0,0-1.775,2.7,8.971,8.971,0,0,0-.85,2.856,5.66,5.66,0,0,0,.387,3.474A4.378,4.378,0,0,0,9.2,178.7a8.755,8.755,0,0,0,2.471.463,6,6,0,0,1,1.235.154.589.589,0,0,1,.386.154c.077.077.156.077.233.154l.231.231a3.225,3.225,0,0,1,.309.772,5.234,5.234,0,0,1,.154,1.082,7.806,7.806,0,0,1-.309,2.238,38.4,38.4,0,0,1-2.316,6.1l-.386.926A46.69,46.69,0,0,0,8.425,199a15.511,15.511,0,0,0-.231,3.859,6.359,6.359,0,0,0,.463,1.929,4.889,4.889,0,0,0,.926,1.622,9.662,9.662,0,0,0,1.622,1.852l.463.464a22.192,22.192,0,0,1,2.085,2.392,2.729,2.729,0,0,1,.309.7v.463c0,.077-.077.154-.077.231-.154.154-.231.386-.386.54a1.694,1.694,0,0,1-.387.309c-.077.077-.154.077-.231.154H12.67a5.311,5.311,0,0,1-1-.154c-.54-.154-1-.309-1.543-.463l-.233-.077L9.2,212.59a16.8,16.8,0,0,0-1.7-.463,5.848,5.848,0,0,0-1.159-.077H5.645a5.322,5.322,0,0,0-3.165,1.389,15.11,15.11,0,0,0-1.389,1.62,7.38,7.38,0,0,0-.849,1.776,7.5,7.5,0,0,0-.077,3.474,14.862,14.862,0,0,0,1.312,3.705" transform="translate(744.352 262.054)" fill="#eaeaea" style="mix-blend-mode: luminosity;isolation: isolate"/>
  </g>
</svg>
