<svg xmlns="http://www.w3.org/2000/svg" width="431.296" height="271.587" viewBox="0 0 431.296 271.587">
  <path id="Top_Head" data-name="Top Head" d="M1.477,224.014a49.009,49.009,0,0,0,3.242,5.636l.694,1.157.077.077.077.154a26.637,26.637,0,0,1,1.467,2.625c.231.463.386.849.617,1.389l.077.154a2.768,2.768,0,0,0,.309.7c.617,1.466,1.312,2.855,2.085,4.477l.154.231.54,1.157c1,2.162,2.238,4.632,3.4,7.179a70.59,70.59,0,0,1,2.625,6.639c.154.617.309,1,.386,1.467a5.5,5.5,0,0,0-1.622-.231,2.626,2.626,0,0,0-.772.077,4.659,4.659,0,0,0-3.4,2.161,5.98,5.98,0,0,0-.772,2.162,9.432,9.432,0,0,0-.077,2.085v.153a22.148,22.148,0,0,0,.849,4.4c.37,1.294.787,2.539,1.222,3.728h42.1c-.244-.713-.488-1.438-.716-2.184a26.971,26.971,0,0,1-1.235-6.947,18.865,18.865,0,0,1,.463-4.014c.54-1.93,1.235-3.859,1.7-5.25l.077-.154a56.562,56.562,0,0,0,1.929-6.252,30.37,30.37,0,0,0,.154-9.881v-.54c-.077-1.159-.231-2.393-.231-3.552a27.12,27.12,0,0,1,.386-4.554c.077-.386.231-.694.309-1a16.293,16.293,0,0,1,2.008-2.548l.077-.154.077-.077.077-.077.077-.154c.309-.386.617-.694.926-1.08a19.113,19.113,0,0,0,2.393-5.1,48.817,48.817,0,0,0,2.008-12.119c.154-2.548.154-5.173.231-7.487v-.619c.077-5.557.154-11.347,1.389-16.828a33,33,0,0,1,2.7-7.179,48.794,48.794,0,0,1,2.779-4.168c1-1.389,2.161-2.856,3.474-4.554,2.161-2.7,4.631-5.558,7.487-8.646a188.888,188.888,0,0,1,36.434-30.181c3.552-2.162,6.87-4.092,10.19-5.79,1.39-.694,2.856-1.389,3.861-1.853l.309-.154,1.235-.617,2.548-1.157.154-.077c1.312-.617,2.548-1.236,3.859-1.853a198.306,198.306,0,0,1,25.4-10.344l.154-.077h.077a77.823,77.823,0,0,1,20.148-3.474h1.082a81.8,81.8,0,0,1,9.571.617c3.4.464,6.87,1.082,9.958,1.7h.231l1.159.231c7.487,1.466,15.361,2.779,24.084,4.091,7.41,1.08,15.206,2.162,23.853,3.242,2.238.232,4.4.54,6.561.849l1.62.231,3.937.464a85.486,85.486,0,0,1,10.112,1.775,95.7,95.7,0,0,1,21.228,8.413,90.858,90.858,0,0,1,18.45,13.355,80.377,80.377,0,0,1,6.1,6.484c.232.309.463.54.694.849l.154.156c.617.694,1.235,1.466,1.929,2.161a31.182,31.182,0,0,0,3.165,2.779,44.639,44.639,0,0,0,5.558,3.551l1.312.772.077.077a46.434,46.434,0,0,1,6.947,4.941,15.141,15.141,0,0,1,2.316,2.625c.772.926,1.389,2.006,1.93,2.778l.076.154a118.952,118.952,0,0,1,8.337,16.982c.54,1.236,1.08,2.471,1.543,3.705l.464,1.082.154.386,1.389,3.242,1.62,3.705.154.386a47.686,47.686,0,0,1,1.776,4.863,104.733,104.733,0,0,1,3.011,18.141v.154c.386,3.705.772,7.565,1.466,11.27a47.569,47.569,0,0,0,4.632,14.358,5.754,5.754,0,0,0,.54.926l.154.233.154.309.077.077a16.338,16.338,0,0,1,.849,1.62c.54,1.08,1.08,2.162,1.776,3.782a74.319,74.319,0,0,1,2.779,7.487c1.548,5.184,2.622,10.479,3.642,15.693H431.3a8.017,8.017,0,0,0-1.63-3.265,11.382,11.382,0,0,0-2.162-2.162,4.078,4.078,0,0,0-1.08-.617,2.61,2.61,0,0,0-.927-.309,8.329,8.329,0,0,0-2.469-.309,28.652,28.652,0,0,0-3.705.386c-.927.154-1.93.309-2.934.386a2.64,2.64,0,0,1-.849-.077,2.023,2.023,0,0,1-.464-.386,5,5,0,0,1-.617-.694.59.59,0,0,1-.154-.386v-.232a.7.7,0,0,1,.077-.386,2.747,2.747,0,0,1,.309-.7,15.219,15.219,0,0,1,2.393-2.932,20.614,20.614,0,0,0,2.548-3.242,6.414,6.414,0,0,0,.694-1.622,11.072,11.072,0,0,0,.309-1.7c.154-1.545.154-3.088.154-4.555a47.621,47.621,0,0,0-.772-9.185,29.364,29.364,0,0,0-1.467-4.632c-.154-.386-.309-.694-.463-1.08l-.077-.154v-.077a9.418,9.418,0,0,1-.54-1.312,2.148,2.148,0,0,1-.077-.7,10.542,10.542,0,0,1,.154-1.466,35,35,0,0,1,1.7-4.71c.386-.772.849-1.62,1.235-2.392l.077-.154.077-.231c.617-1.082,1.157-2.085,1.7-3.011.927-1.622,1.776-3.242,2.7-4.941.85-1.466,1.467-2.778,2.085-4.091a18.521,18.521,0,0,0,1.389-3.242,5.058,5.058,0,0,0,.31-2.856,5.292,5.292,0,0,0-2.625-3.474,14.676,14.676,0,0,0-5.944-1.466,25.025,25.025,0,0,1-3.088-.463,10.3,10.3,0,0,1-1.389-.54c-.156-.154-.387-.232-.541-.386a6.764,6.764,0,0,1-.617-.773,10.93,10.93,0,0,1-.617-1.389,11.245,11.245,0,0,1-.309-2.393,35.053,35.053,0,0,1,.926-7.1l.154-.694a34.909,34.909,0,0,0,.849-6.947A13.956,13.956,0,0,0,415,175a15.86,15.86,0,0,0-1.62-3.705,41.714,41.714,0,0,0-2.548-3.859l-.154-.154-.386.463c-.617-.85-1.157-1.622-1.7-2.471a18.61,18.61,0,0,1-1.622-3.319,22.593,22.593,0,0,1-.386-2.239,11.543,11.543,0,0,1,.463-3.088l.232-.849a28.12,28.12,0,0,0,.927-4.554,12.765,12.765,0,0,0-.233-3.4,9.6,9.6,0,0,0-1.235-3.088,20.548,20.548,0,0,0-4.863-5.1c-.773-.617-1.622-1.235-2.316-1.7l-.463-.309-.463-.386-.077-.077c-.54-.386-1.082-.772-1.622-1.236-.463-.463-.849-1-1.235-1.466-.386-.54-.772-.926-1.08-1.312a7.652,7.652,0,0,0-4.092-2.471,9.456,9.456,0,0,0-1.466-.154h-.694a6.068,6.068,0,0,0-1.7.386l-.309.077a6.471,6.471,0,0,0-1.466.694c-.54.309-1,.617-1.467.926l-.231.154c-.463.233-.849.464-1.157.619h-.077a1.5,1.5,0,0,1-.617-.077c-.154-.077-.386-.154-.54-.231l-.31-.31-.076-.154v-.386a5.21,5.21,0,0,1,.154-1,8.623,8.623,0,0,1,.849-2.008,20.59,20.59,0,0,1,2.315-3.164,21.1,21.1,0,0,1,2.856-2.471,11.551,11.551,0,0,1,1.39-.694,3.46,3.46,0,0,1,.849-.077,31.98,31.98,0,0,1,3.551.309l.926.077a27.633,27.633,0,0,0,3.165.232,13.384,13.384,0,0,0,2.471-.232,7.411,7.411,0,0,0,2.315-.773,6.956,6.956,0,0,0,2.085-1.7,4.683,4.683,0,0,0,.54-.772l.077-.154a13.49,13.49,0,0,0,.7-1.467,5.223,5.223,0,0,0,.153-2.856c-.772-3.319-4.323-4.477-7.719-5.171a14.246,14.246,0,0,0-1.775-.309h-.231a11.7,11.7,0,0,0-2.316-.154h-1.08c-1,.077-2.008.154-2.856.309h-.077l-.309.077h-.231c-.85.077-1.776.231-2.625.231a15.069,15.069,0,0,1-1.93-.154,4.123,4.123,0,0,1-1.08-.463,15.425,15.425,0,0,1-1.389-1,12.491,12.491,0,0,1-1.313-1.543c-.154-.309-.309-.617-.463-1-.077-.309-.077-.617-.154-.849a7.6,7.6,0,0,1,.154-1.313,19.729,19.729,0,0,1,1.545-3.628l.232-.386.077-.154a1.932,1.932,0,0,1,.309-.54,13.962,13.962,0,0,0,1-2.625,21.854,21.854,0,0,0,.54-2.779,14.063,14.063,0,0,0-.231-5.79,7.62,7.62,0,0,0-1.312-2.469,6.382,6.382,0,0,0-2.471-1.776,6.466,6.466,0,0,0-3.011-.772,6.754,6.754,0,0,0-1.235.154,6.065,6.065,0,0,0-2.008.926,5,5,0,0,0-1.312,1.236l-.077.154a15.344,15.344,0,0,0-1.93,3.011l-.077.154a13.969,13.969,0,0,1-1.852,2.856c-.154.154-.309.232-.464.386a9.7,9.7,0,0,1-2.161.849,18.154,18.154,0,0,1-4.245.617h-.154a23.821,23.821,0,0,1-5.25-.617A22.408,22.408,0,0,1,350,90.856a20.492,20.492,0,0,1-3.861-2.779,14.869,14.869,0,0,1-2.238-2.7,15.777,15.777,0,0,1-1.082-2.316c-.076-.386-.154-.772-.232-1.157a2.9,2.9,0,0,1,.077-.85c.154-.386.31-.772.464-1.235a8.654,8.654,0,0,0,.617-1.852,5.639,5.639,0,0,0-.927-4.015,11.3,11.3,0,0,0-.695-1,3.563,3.563,0,0,0-.54-.54l-.231-.154a8.835,8.835,0,0,0-1.853-1c-.772-.309-1.543-.541-1.929-.7a18.819,18.819,0,0,1-2.471-.849l-.694-.463c-.154-.231-.386-.463-.617-.772a15.028,15.028,0,0,1-1-2.239,32.808,32.808,0,0,1-.85-7.719v-.694a30.672,30.672,0,0,0-.309-4.324,34.827,34.827,0,0,0-.772-3.4,17.348,17.348,0,0,0-1.543-4.168,7,7,0,0,0-.85-1.235,3.44,3.44,0,0,0-1.775-1c-.154,0-.309-.077-.463-.077a3.015,3.015,0,0,0-2.085.926,11.6,11.6,0,0,0-1.775,2.546c-.619,1.082-1.159,2.316-1.622,3.243-.54,1.08-1,2.083-1.543,3.087a23.253,23.253,0,0,1-2.548,3.782,6.178,6.178,0,0,1-1.08.927,2.749,2.749,0,0,1-.7.309H314.8a3.34,3.34,0,0,0-.386.077,1.7,1.7,0,0,1-.617-.077,5.86,5.86,0,0,1-.849-.309c-.463-.309-.926-.617-1.313-.927-.231-.231-.386-.463-.617-.694a12.239,12.239,0,0,1-.617-1.389c-.232-.772-.309-1.545-.463-2.162v-.386c-.154-.772-.309-1.62-.54-2.393a8.044,8.044,0,0,0-.926-2.315,13.7,13.7,0,0,0-1.93-2.7,21.433,21.433,0,0,0-4.4-3.705l-.541-.386a30.936,30.936,0,0,1-4.014-3.088,36.036,36.036,0,0,1-4.708-6.1l-.154-.309a26.051,26.051,0,0,0-3.165-4.477,14.257,14.257,0,0,0-2.393-2.008,10.2,10.2,0,0,0-3.242-1.312,13.521,13.521,0,0,0-3.088-.309,24.033,24.033,0,0,0-5.326.694,18.614,18.614,0,0,0-3.319,1.08,7.142,7.142,0,0,0-.772.386l-.617-.617-.156-.154-.386-.386c-.463-.386-.849-.772-1.312-1.157l-.386-.31-.077-.076-.154-.078-.154-.077c-.772-.694-1.545-1.312-2.239-2.006l-.077-.077c-1.157-1.08-2.393-2.239-3.782-3.319a20.442,20.442,0,0,0-5.79-2.934,1.963,1.963,0,0,0-.54-.154c-.231-.077-.463-.077-.694-.154l-.154-.077-.232-.077h-.154l.077.077-.849-.309-.464-.154-.617-.154c-.926-.231-1.7-.463-2.471-.694s-1.543-.464-2.392-.7l-.231-.077-.386-.154-.154-.077a2.143,2.143,0,0,0-1.776-1h-.386a9.685,9.685,0,0,0-4.554,1.93,5.487,5.487,0,0,0-1.853,3.551,5.167,5.167,0,0,0,0,1.543v.231a10.035,10.035,0,0,0,.232,1.7v.156l.154.694c.154.926.386,1.852.463,2.856,0,.463-.077.772-.077,1.08-.077.154-.154.386-.232.54s-.231.309-.309.463a6.96,6.96,0,0,1-.772.694c-.232.078-.386.233-.617.31h-.154c-.154,0-.232.076-.386.076a1.732,1.732,0,0,1-.619-.076c-.154-.077-.386-.156-.54-.231a4.322,4.322,0,0,1-.694-.541,3.865,3.865,0,0,0-.54-.617,2.023,2.023,0,0,0,.386-.694l.077-.154a3.312,3.312,0,0,0,.309-1.08,3.726,3.726,0,0,0,0-1.313,6.048,6.048,0,0,0-1.389-2.7l-.154-.231-.231-.309a.268.268,0,0,0-.078-.154l.078-.077.077-.231a4.955,4.955,0,0,1,.772-1A26.947,26.947,0,0,1,238,14.127c.463-.309.849-.617,1.235-.849a17.988,17.988,0,0,0,2.316-1.93,6.888,6.888,0,0,0,1.776-2.7,5.1,5.1,0,0,0,.231-1.929,8.977,8.977,0,0,0-.464-1.7,4.843,4.843,0,0,0-.926-1.389,11.331,11.331,0,0,0-1.7-1.545,8.037,8.037,0,0,0-1.93-1.157,12.142,12.142,0,0,0-2.393-.772A6,6,0,0,0,234.908,0a6.638,6.638,0,0,0-1.235.077,13.17,13.17,0,0,0-2.471.54L231.049.7h-.617a.986.986,0,0,0-.464.077l-.54.077c-.54.077-1,.231-1.389.309q-1.158.347-2.779.926a47.544,47.544,0,0,0-5.944,2.934,66.052,66.052,0,0,0-7.41,5.4,6.785,6.785,0,0,1-.772.463l-.077.077a7.981,7.981,0,0,0-2.625,2.471,3.674,3.674,0,0,0-.386,2.548,11.864,11.864,0,0,0-.694,1.466l-.077.154a11.149,11.149,0,0,0-.54,2.008v.154c-.077.231-.077.386-.154.617a20.932,20.932,0,0,1-.694,2.779,14.353,14.353,0,0,1-1.622,2.624v-.077c-.077-.154-.077-.309-.154-.463l-.077-.154-.154-.463-.309-1c-.386-1.236-.772-2.548-1.236-3.782a12.058,12.058,0,0,0-1-2.008,23.283,23.283,0,0,0-2.161-3.088,10.489,10.489,0,0,0-8.26-3.705,14.041,14.041,0,0,0-2.471.231l-.463.077h-1.08c-.926,0-2.008.077-3.242.154a53.558,53.558,0,0,0-9.8,1.853,31.309,31.309,0,0,0-4.94,1.929,13.428,13.428,0,0,0-3.782,2.548,7.793,7.793,0,0,0-1.467,2.085,7.5,7.5,0,0,0-.54,3.242c.077.926.309,1.852.463,2.7l.077.387a16.5,16.5,0,0,1,.54,2.932,6.01,6.01,0,0,1-.154,1.236,2.311,2.311,0,0,1-.309.772,11.044,11.044,0,0,1-.849,1.157,9.774,9.774,0,0,1-1,.849,9.286,9.286,0,0,1-1.545.7,10.648,10.648,0,0,1-2.856.386h-.231a42.3,42.3,0,0,1-5.634-.54c-1.39-.231-2.471-.386-3.551-.464a10.894,10.894,0,0,0-1.545-.077,33.488,33.488,0,0,0-3.551.233,17,17,0,0,0-4.631,1.235c-3.011,1.389-5.1,4.014-6.793,6.716a13.794,13.794,0,0,0-1.7,3.705l-.232.694a9.274,9.274,0,0,1-.694,1.93,1.683,1.683,0,0,1-.309.386c-.077.077-.231.154-.309.231-.154.077-.386.154-.54.231a9.035,9.035,0,0,1-1.7.231h-.154a11.692,11.692,0,0,1-2.238-.154c-.541-.077-.927-.077-1.313-.154a14.79,14.79,0,0,1-2.779-1,19.464,19.464,0,0,1-2.238-1l-.154-.077-.231-.077-.077-.077-.231-.154-.541-.231a57.377,57.377,0,0,0-7.565-2.934,22.935,22.935,0,0,0-3.859-.694h-.463a9.732,9.732,0,0,0-3.319.617,7.711,7.711,0,0,0-2.934,2.239,9.861,9.861,0,0,0-1.7,4.091c-.154.694-.231,1.39-.309,1.776a1.851,1.851,0,0,0,1.775,2.006h.309a10.835,10.835,0,0,1,1.39-.154,12.8,12.8,0,0,1,1.852.154,6.676,6.676,0,0,1,1.312.54,9.282,9.282,0,0,1,1.082.773,11.543,11.543,0,0,1,.849,1,6.841,6.841,0,0,1,.617,1.312,4.983,4.983,0,0,1,.231,1.545,11.511,11.511,0,0,1-.154,1.62,11.266,11.266,0,0,1-.54,1.467,8.56,8.56,0,0,1-.926,1.235,10.949,10.949,0,0,1-1.39,1.157,12.316,12.316,0,0,1-2.083.927A11.757,11.757,0,0,1,97.042,65h-.231a9.371,9.371,0,0,1-1.545-.077c-.617-.077-1.157-.154-1.929-.309a9.019,9.019,0,0,1-1.39-.309l-.309-.077-.309-.077-.309-.077h-.232l-.386-.078-.386-.077c-.386-.077-.849-.154-1.236-.231a35.221,35.221,0,0,0-5.017-.617h-1a13.153,13.153,0,0,0-1.622.077,10.781,10.781,0,0,0-2.548.54,9.29,9.29,0,0,0-1.929,1c-.231.154-.386.309-.694.54a11.023,11.023,0,0,0-1.159,1.389,6.73,6.73,0,0,0-1.08,2.393,4.052,4.052,0,0,0,.309,2.316,4.339,4.339,0,0,0,1.39,1.7,7.078,7.078,0,0,0,1.62,1l.231.077c.694.309,1.39.619,2.008.927h.077c.54.231,1,.386,1.466.617.154.077.232.077.309.154a16.19,16.19,0,0,1,1.545,1.157,14.4,14.4,0,0,1,1.852,2.085,7.139,7.139,0,0,1,.386.772v.309l-.077.154c-.077.077-.077.154-.154.154a6.747,6.747,0,0,1-.772.617,26.282,26.282,0,0,1-4.708,1.93c-1.236.386-2.548.694-3.551,1-1.467.386-2.934.85-4.555,1.313a13.3,13.3,0,0,0-1.62.54,5.319,5.319,0,0,0-.772.309,5.085,5.085,0,0,0-1.39.772,3.334,3.334,0,0,0-.772.772,1.671,1.671,0,0,0-.231.387,5.326,5.326,0,0,0-.694,1.543,13.628,13.628,0,0,0-.309,1.543.166.166,0,0,0-.154-.154l-.077-.077a9.213,9.213,0,0,1-1.622-1.312c-.54-.463-1.08-.849-1.62-1.235a14.161,14.161,0,0,0-1.313-.773,6.142,6.142,0,0,0-1.543-.54,3.465,3.465,0,0,0-.85-.077,8.567,8.567,0,0,0-2.855.617,7.4,7.4,0,0,0-1.082.464l-.077.077a7.116,7.116,0,0,1-.617.386L53.042,89l-.154.231a2.851,2.851,0,0,0-.54,1.08l-.077.154a2.864,2.864,0,0,0-.154.694,3.762,3.762,0,0,0,.077.927,6.516,6.516,0,0,0,.849,2.083,13.436,13.436,0,0,1,.849,1.39l.154.154.309.463c.31.54.541,1.08.773,1.543,0,.154.077.386.077.54a10.542,10.542,0,0,1-.154,1.467,17.768,17.768,0,0,1-1.545,3.782c-.463.849-1,1.775-1.62,2.7-.077-.077-.154-.077-.309-.077l-.387-.077-.309-.077-.309-.077-.231-.077a3.874,3.874,0,0,0-.926-.154c-.231-.077-.54-.077-.772-.154h-.154c-.386-.077-.7-.077-1.082-.154a6.924,6.924,0,0,0-.694-.233,7.245,7.245,0,0,1-1.389-1.08l-.077-.077a8.867,8.867,0,0,0-2.162-1.466,1.661,1.661,0,0,0-.849-.154,2.734,2.734,0,0,0-1.467.463,2.35,2.35,0,0,0-.694,1L40,103.9a3.305,3.305,0,0,0-.386,1.235l-.077.31a8.38,8.38,0,0,0-.077,3.087,7.745,7.745,0,0,0,1.157,2.548,8.573,8.573,0,0,0,1.545,1.853c.463.463.926.849,1.389,1.312l.463.463a12.58,12.58,0,0,1,1.853,2.085,4.561,4.561,0,0,1,.463,1.08,6.418,6.418,0,0,1,.154,1,1.508,1.508,0,0,1-.077.619,17.028,17.028,0,0,1-.926,2.083l-.077.231c-1.082,2.008-2.393,4.014-3.937,6.407-.386.54-.773,1.159-1.313,1.853l-.077.077-.54.772-.309.463-.154.232-.077.077-.309.463-.309.463-.154.233-.463-.233c-.233-.077-.387-.154-.619-.232-.54-.231-1.157-.386-1.7-.617l-.154-.077c-.386-.154-.694-.231-.926-.309a23.493,23.493,0,0,1-2.239-1.62l-.077-.077c-.772-.541-1.389-1-2.008-1.39-.463-.309-1-.54-1.543-.849a13.24,13.24,0,0,0-1.622-.54,6.847,6.847,0,0,0-1.157-.154,5.824,5.824,0,0,0-2.239.463,5.386,5.386,0,0,0-1.389.926,6.71,6.71,0,0,0-1,1.157,7.947,7.947,0,0,0-.617,1.159,4.917,4.917,0,0,0-.31,1l-.077.386A6.314,6.314,0,0,0,20,133.931a8.549,8.549,0,0,0,.619,2.238,11.389,11.389,0,0,0,.849,1.7,20.156,20.156,0,0,0,1.62,2.316,40.6,40.6,0,0,0,3.551,3.705c1.776,1.7,3.782,3.4,5.1,4.477l.154.154c1.157,1,2.316,2.008,3.4,3.011.309.309.694.617,1,.926a21.932,21.932,0,0,1,3.628,4.091,7.124,7.124,0,0,1,.54,1.082c0,.154.077.231.077.386a5.957,5.957,0,0,1-.154,1.157l-.231.694-.154.154a1.506,1.506,0,0,1-.54.077,19.235,19.235,0,0,1-3.551-.54h-.077l-.309-.077-.694-.154a23.083,23.083,0,0,0-2.548-.386h-.772c-.617,0-1.159.077-1.7.077h-.386a44.809,44.809,0,0,0-5.634.926,40.954,40.954,0,0,0-6.562,2.162,28.252,28.252,0,0,0-5.79,3.319,31.507,31.507,0,0,0-2.316,2.162,12.433,12.433,0,0,0-1.775,2.7,8.971,8.971,0,0,0-.85,2.856,5.66,5.66,0,0,0,.387,3.474A4.378,4.378,0,0,0,9.2,178.7a8.755,8.755,0,0,0,2.471.463,6,6,0,0,1,1.235.154.589.589,0,0,1,.386.154c.077.077.156.077.233.154l.231.231a3.225,3.225,0,0,1,.309.772,5.234,5.234,0,0,1,.154,1.082,7.806,7.806,0,0,1-.309,2.238,38.4,38.4,0,0,1-2.316,6.1l-.386.926A46.69,46.69,0,0,0,8.425,199a15.511,15.511,0,0,0-.231,3.859,6.359,6.359,0,0,0,.463,1.929,4.889,4.889,0,0,0,.926,1.622,9.662,9.662,0,0,0,1.622,1.852l.463.464a22.192,22.192,0,0,1,2.085,2.392,2.729,2.729,0,0,1,.309.7v.463c0,.077-.077.154-.077.231-.154.154-.231.386-.386.54a1.694,1.694,0,0,1-.387.309c-.077.077-.154.077-.231.154H12.67a5.311,5.311,0,0,1-1-.154c-.54-.154-1-.309-1.543-.463l-.233-.077L9.2,212.59a16.8,16.8,0,0,0-1.7-.463,5.848,5.848,0,0,0-1.159-.077H5.645a5.322,5.322,0,0,0-3.165,1.389,15.11,15.11,0,0,0-1.389,1.62,7.38,7.38,0,0,0-.849,1.776,7.5,7.5,0,0,0-.077,3.474,14.862,14.862,0,0,0,1.312,3.705" transform="translate(0 -0.001)" fill="#eaeaea" style="mix-blend-mode: luminosity;isolation: isolate"/>
</svg>
